<svg width="333" height="268" viewBox="0 0 333 268" fill="none" xmlns="http://www.w3.org/2000/svg">
<g clip-path="url(#clip0_437_2124)">
<path d="M231.881 260.853L225.716 260.853L222.784 237.059H231.882L231.881 260.853Z" fill="#FFB6B6"/>
<path d="M231.716 258.838L225.135 256.159L224.946 256.082L221.313 258.838C219.261 258.839 217.294 259.654 215.843 261.106C214.392 262.558 213.577 264.527 213.577 266.58V266.832H233.451V258.838H231.716Z" fill="#2F2E41"/>
<path d="M287.575 252.833L282.059 255.585L268.828 235.598L276.97 231.537L287.575 252.833Z" fill="#FFB6B6"/>
<path d="M288.085 250.327L286.675 251.029L286.53 251.101L279.456 251.648L279.243 251.662L277.218 255.748C276.309 256.202 275.498 256.83 274.832 257.597C274.165 258.365 273.656 259.256 273.334 260.22C273.012 261.184 272.883 262.202 272.954 263.217C273.025 264.231 273.295 265.221 273.749 266.131L273.86 266.353L291.647 257.484L288.085 250.327Z" fill="#2F2E41"/>
<path d="M227.7 132.964L261.689 134.154L261.925 133.81C261.925 133.81 264.825 140.58 264.825 146.383C264.825 148.312 263.484 160.931 264.165 163.318C264.25 163.615 263.667 164.343 263.858 165.726C263.982 166.623 264.667 165.933 264.825 167.176C264.938 168.069 263.732 168.562 263.858 169.594C263.996 170.722 265.654 174.376 265.803 175.631C267.393 188.99 269.508 208.344 269.508 208.344C269.508 208.344 278.006 231.122 279.804 231.492C282.821 232.113 284.858 237.604 283.186 238.746C282.39 239.289 272.099 242.947 272.099 242.947C271.534 243.05 269.765 242.162 270.892 240.062C271.099 239.675 269.862 240.659 269.657 240.196C269.438 239.704 269.867 237.746 269.617 237.2C267.368 232.295 263.915 225.498 260.643 222.007C255.808 216.85 252.746 210.282 251.904 203.261L244.399 161.613L241.827 173.292L239.698 175.397L240.282 180.305L240.182 185.069L234.867 204.895C234.867 204.895 234.069 241.922 235.35 243.098C236.043 243.735 238.986 251.579 233.417 252.286L223.3 251.505C223.3 251.505 221.936 248.63 222.618 247.607C223.3 246.583 223.259 246.863 222.427 245.188C221.596 243.514 221.936 240.676 221.936 240.676C220.611 227.342 220.088 213.94 220.371 200.543C220.878 178.539 223.951 153.26 223.951 152.745C223.977 152.219 223.88 151.694 223.668 151.211V149.822L224.974 144.901L227.7 132.964Z" fill="#2F2E41"/>
<path d="M275.53 137.123C282.943 137.123 288.953 131.108 288.953 123.689C288.953 116.27 282.943 110.255 275.53 110.255C268.117 110.255 262.107 116.27 262.107 123.689C262.107 131.108 268.117 137.123 275.53 137.123Z" fill="#244CC0"/>
<path d="M273.699 130.681C273.467 130.681 273.239 130.627 273.031 130.523C272.824 130.419 272.644 130.269 272.505 130.083L268.843 125.196C268.725 125.039 268.639 124.861 268.591 124.671C268.542 124.48 268.531 124.283 268.559 124.088C268.587 123.894 268.652 123.707 268.752 123.538C268.852 123.37 268.984 123.222 269.141 123.104C269.298 122.987 269.477 122.901 269.667 122.852C269.856 122.804 270.054 122.793 270.248 122.821C270.442 122.848 270.629 122.914 270.798 123.014C270.967 123.114 271.114 123.246 271.232 123.403L273.627 126.6L279.781 117.363C279.889 117.199 280.029 117.059 280.192 116.949C280.355 116.84 280.538 116.764 280.73 116.725C280.923 116.687 281.121 116.686 281.313 116.725C281.506 116.763 281.689 116.838 281.852 116.947C282.015 117.056 282.156 117.196 282.265 117.359C282.374 117.522 282.45 117.706 282.488 117.898C282.527 118.091 282.527 118.289 282.489 118.482C282.45 118.674 282.375 118.857 282.266 119.021L274.942 130.015C274.809 130.214 274.631 130.378 274.422 130.494C274.213 130.61 273.979 130.674 273.741 130.68C273.727 130.681 273.713 130.681 273.699 130.681Z" fill="white"/>
<path d="M282.167 137.891C282.298 137.342 282.307 136.77 282.193 136.217C282.08 135.664 281.846 135.143 281.509 134.69C281.173 134.236 280.741 133.863 280.244 133.595C279.747 133.327 279.198 133.171 278.634 133.139L271.756 109.686L267.104 115.09L274.506 137.049C274.514 138 274.871 138.914 275.508 139.62C276.145 140.325 277.019 140.772 277.963 140.876C278.907 140.979 279.857 140.733 280.632 140.183C281.407 139.633 281.953 138.817 282.167 137.891Z" fill="#FFB8B8"/>
<path d="M277.315 126.45L276.421 123.171L277.446 121.212L277.368 120.985L277.059 120.105L275.455 118.819L276.03 117.179L274 111.41L273.503 110.409L261.853 86.9994L259.06 81.3851L258.412 80.3696L256.398 77.207L253.643 72.8886C253.205 72.1984 252.635 71.6023 251.965 71.1349C251.294 70.6675 250.538 70.3382 249.739 70.1661C249.481 70.1093 249.22 70.0689 248.956 70.0452L248.768 70.0307C248.298 70.0047 247.826 70.0323 247.362 70.1129H247.352C246.534 70.2549 245.755 70.5644 245.062 71.022C244.516 71.3753 244.031 71.8127 243.622 72.318C242.681 73.4858 242.192 74.9536 242.245 76.4526L242.332 78.8124L242.419 80.9595L246.507 88.3583L246.772 88.8418L246.777 88.8563L259.355 111.633L263.148 118.5L263.723 119.544L266.274 121.237L265.593 122.939L265.791 125.589L267.96 127.228L271.106 130.425L271.232 130.686L272.198 130.197L272.29 130.149L272.507 130.086L275.498 129.182L277.315 128.635L277.373 128.616L277.871 128.49L277.315 126.45Z" fill="#F0F4FF"/>
<path d="M126.783 53.0194H125.817V15.7632H195.714V16.7303H126.783V53.0194Z" fill="#3F3D56"/>
<path d="M206.433 26.8675C213.847 26.8675 219.856 20.853 219.856 13.4338C219.856 6.0145 213.847 0 206.433 0C199.02 0 193.01 6.0145 193.01 13.4338C193.01 20.853 199.02 26.8675 206.433 26.8675Z" fill="#244CC0"/>
<path d="M204.602 20.4255C204.37 20.4255 204.141 20.3714 203.934 20.2677C203.727 20.1639 203.546 20.0132 203.407 19.8276L199.745 14.9409C199.628 14.784 199.542 14.6053 199.493 14.4152C199.445 14.2251 199.434 14.0273 199.462 13.833C199.49 13.6388 199.555 13.4519 199.655 13.283C199.755 13.1142 199.887 12.9667 200.044 12.849C200.201 12.7312 200.379 12.6456 200.569 12.5969C200.759 12.5482 200.957 12.5374 201.151 12.5651C201.345 12.5929 201.532 12.6587 201.701 12.7586C201.869 12.8586 202.017 12.9909 202.134 13.1479L204.53 16.3446L210.684 7.10735C210.792 6.94388 210.932 6.80344 211.095 6.69407C211.258 6.5847 211.441 6.50854 211.633 6.46995C211.826 6.43135 212.024 6.43108 212.216 6.46914C212.409 6.5072 212.592 6.58285 212.755 6.69177C212.918 6.80069 213.058 6.94074 213.168 7.10391C213.277 7.26709 213.353 7.45018 213.391 7.64274C213.429 7.8353 213.43 8.03354 213.391 8.22614C213.353 8.41873 213.277 8.6019 213.168 8.76518L205.844 19.76C205.712 19.9588 205.534 20.123 205.325 20.2387C205.116 20.3544 204.882 20.4183 204.643 20.425C204.63 20.4252 204.616 20.4255 204.602 20.4255Z" fill="white"/>
<path d="M79.43 143.47H78.4636V180.726H148.361V179.759H79.43V143.47Z" fill="#3F3D56"/>
<path d="M159.08 194.185C166.493 194.185 172.503 188.17 172.503 180.751C172.503 173.332 166.493 167.317 159.08 167.317C151.666 167.317 145.657 173.332 145.657 180.751C145.657 188.17 151.666 194.185 159.08 194.185Z" fill="#244CC0"/>
<path d="M157.249 187.743C157.017 187.743 156.788 187.689 156.581 187.585C156.374 187.481 156.193 187.331 156.054 187.145L152.392 182.258C152.275 182.101 152.189 181.923 152.14 181.733C152.092 181.543 152.081 181.345 152.109 181.15C152.136 180.956 152.202 180.769 152.302 180.6C152.402 180.432 152.534 180.284 152.691 180.166C152.848 180.049 153.026 179.963 153.216 179.914C153.406 179.866 153.604 179.855 153.798 179.883C153.992 179.91 154.179 179.976 154.348 180.076C154.516 180.176 154.664 180.308 154.781 180.465L157.177 183.662L163.331 174.425C163.439 174.261 163.579 174.121 163.742 174.011C163.905 173.902 164.088 173.826 164.28 173.787C164.473 173.749 164.671 173.748 164.863 173.787C165.056 173.825 165.239 173.9 165.402 174.009C165.565 174.118 165.705 174.258 165.815 174.421C165.924 174.584 166 174.768 166.038 174.96C166.076 175.153 166.077 175.351 166.038 175.544C166 175.736 165.924 175.919 165.815 176.083L158.491 187.077C158.359 187.276 158.181 187.44 157.972 187.556C157.763 187.672 157.529 187.736 157.29 187.742C157.276 187.743 157.263 187.743 157.249 187.743Z" fill="white"/>
<path d="M265.308 144.84C265.322 145.858 265.158 146.871 264.825 147.833L264.752 147.819C256.17 149.304 248.515 149.547 244.973 144.275C240.353 138.388 233.997 138.454 226.908 141.039L226.067 140.13L224.637 138.587L225.951 137.098L224.637 134.226L225.734 130.681L227.135 130.425L226.758 127.373L226.169 125.589L227.899 123.688L229.368 118.945L228.309 109.017C226.861 95.4084 229.667 81.6857 236.34 69.7406L240.356 66.1331L242.023 64.634L244.26 60.4559L246.623 60.7316L253.02 61.4714L253.238 61.9937L254.808 65.7849L263.08 74.6779L262.708 78.4305L262.544 80.0843L262.423 81.2739L261.853 86.9994L259.529 110.39L259.355 111.633L257.485 125.081C260.524 128.021 263.211 133.684 264.501 138.858C264.646 139.434 264.235 140.019 264.341 140.58C264.491 141.373 265.143 142.127 265.216 142.867C265.283 143.522 265.314 144.181 265.308 144.84Z" fill="#F0F4FF"/>
<path d="M248.923 58.9584C255.06 58.9584 260.035 53.9796 260.035 47.838C260.035 41.6963 255.06 36.7175 248.923 36.7175C242.787 36.7175 237.812 41.6963 237.812 47.838C237.812 53.9796 242.787 58.9584 248.923 58.9584Z" fill="#FFB6B6"/>
<path d="M262.318 44.8041C261.661 42.7523 259.857 41.0162 257.715 40.7893C257.878 39.4265 257.663 38.0453 257.095 36.796C256.528 35.5468 255.628 34.4773 254.495 33.7042C253.362 32.9311 252.039 32.4839 250.669 32.4113C249.3 32.3387 247.937 32.6435 246.729 33.2925C246.472 32.9838 246.14 32.7466 245.765 32.6039C245.39 32.4612 244.984 32.4179 244.587 32.4781C243.794 32.609 243.046 32.9369 242.412 33.4318C240.838 34.5841 239.606 36.142 238.846 37.9398C238.086 39.7375 237.828 41.7078 238.098 43.6408C238.093 42.6602 238.527 44.5573 239.772 44.725C240.809 44.9338 241.797 45.3414 242.679 45.9252C243.562 46.509 244.546 46.9219 245.581 47.1424C246.625 47.2953 246.895 51.4849 246.149 54.1833C246.007 54.6947 245.936 55.3809 246.407 55.6245C246.986 55.9247 247.573 55.1701 248.222 55.0965C248.513 55.092 248.794 55.2007 249.007 55.3997C249.219 55.5988 249.346 55.8727 249.361 56.1637C249.362 56.4556 249.293 56.7435 249.16 57.0034C249.027 57.2632 248.834 57.4875 248.596 57.6575C248.12 57.9928 247.592 58.2488 247.033 58.4155L247.22 58.6817C247.384 58.986 247.649 59.2237 247.969 59.3542C248.289 59.4846 248.644 59.4997 248.973 59.3968C249.717 60.2938 257.374 57.8032 257.747 56.166C259.351 54.72 260.683 52.9982 261.68 51.0822C262.676 49.1449 262.904 46.9026 262.318 44.8041Z" fill="#2F2E41"/>
<path d="M271.304 78.6722C271.15 79.9682 269.937 80.9353 268.661 81.2061C268.012 81.331 267.347 81.3425 266.695 81.24C266.057 81.1452 265.427 81.0046 264.81 80.8193C264.047 80.6017 263.291 80.3566 262.544 80.0842C260.409 79.3214 258.351 78.358 256.398 77.207C254.92 76.3439 253.506 75.3776 252.165 74.3152C251.469 73.7639 250.794 73.1884 250.14 72.5888L250.957 72.9757C250.227 71.994 249.498 71.0123 248.768 70.0307C248.063 69.0829 247.359 68.1351 246.656 67.1873C246.613 67.1292 246.579 67.0905 246.565 67.0712V67.0664C246.241 66.636 245.922 66.2056 245.603 65.7752C244.641 64.4841 243.694 62.5884 244.801 61.423C245.037 61.1961 245.323 61.0282 245.637 60.9333C245.95 60.8383 246.281 60.8189 246.603 60.8766C246.95 60.9217 247.286 61.0298 247.594 61.1957C248.439 61.7435 249.156 62.4677 249.696 63.3186C250.449 62.2209 251.914 61.8147 253.238 61.9936C253.31 61.9985 253.378 62.0082 253.445 62.0178C254.822 62.2548 255.417 61.5101 256.61 62.2403C257.166 62.5788 257.504 64.3196 258.06 64.6581C258.374 64.8516 259.538 65.1417 259.857 65.34C260.485 65.7269 260.326 67.1727 260.959 67.5596C261.428 67.8449 262.684 67.076 263.153 67.3613C263.646 67.666 264.332 69.6777 264.825 69.9775C265.805 70.582 266.593 69.4794 267.574 70.079C268.835 70.8576 270.178 71.7232 270.71 73.1062C271.179 74.3248 270.575 75.9932 269.41 76.3414C269.966 76.4078 270.475 76.6882 270.828 77.1232C271.182 77.5581 271.353 78.1136 271.304 78.6722Z" fill="#F0F4FF"/>
<path opacity="0.2" d="M262.544 80.0843L262.423 81.2739C261.054 81.1419 259.706 80.8381 258.412 80.3696C256.71 79.7975 255.232 78.6984 254.194 77.2312C253.537 76.2447 252.851 75.2631 252.165 74.3152C251.024 72.7291 249.894 71.2494 248.956 70.0453C247.811 68.5897 246.951 67.5355 246.656 67.1873C246.613 67.1293 246.579 67.0906 246.565 67.0713L246.55 67.0568L246.565 67.0664C252.306 74.3387 257.729 78.5323 262.708 78.4305C262.708 78.4305 263.293 80.3551 262.544 80.0843Z" fill="black"/>
<path d="M210.003 21.848C209.862 22.3947 209.842 22.9658 209.945 23.521C210.048 24.0763 210.271 24.6021 210.599 25.0617C210.927 25.5212 211.352 25.9031 211.844 26.1806C212.335 26.458 212.881 26.6243 213.444 26.6676L219.867 50.2489L224.624 44.9361L217.647 22.8382C217.657 21.8875 217.318 20.9661 216.695 20.2486C216.072 19.5311 215.207 19.0674 214.265 18.9454C213.322 18.8233 212.368 19.0514 211.583 19.5863C210.797 20.1213 210.235 20.926 210.003 21.848Z" fill="#FFB8B8"/>
<path d="M247.715 82.1491L247.671 80.002L243.622 72.318L243.472 72.0375L243.463 72.023L240.356 66.133L225.363 37.6862L223.753 37.0943L223.834 34.7836L223.753 32.2585L221.819 30.9606L220.994 29.3958L219.825 29.7294H219.82L219.786 29.7391L214.674 31.1753H214.669L213.606 31.7749L212.64 34.6764L212.428 36.05L212.64 38.545L215.056 39.0286L214.255 41.5869L216.684 48.9467C219.723 61.8099 223.874 72.9128 231.04 79.2525L231.629 80.2196L236.292 87.8553C236.928 88.8998 237.859 89.7323 238.968 90.2478C240.076 90.7633 241.312 90.9388 242.52 90.7519H242.525C243.345 90.6245 244.131 90.3316 244.835 89.8912C245.484 89.4904 246.051 88.9703 246.507 88.3582C247.339 87.2516 247.78 85.8989 247.758 84.5138L247.715 82.1491Z" fill="#F0F4FF"/>
<path d="M332.425 267.851L201.116 268C200.964 268 200.817 267.939 200.71 267.831C200.602 267.723 200.541 267.577 200.541 267.424C200.541 267.272 200.602 267.125 200.71 267.017C200.817 266.909 200.964 266.848 201.116 266.848L332.425 266.7C332.577 266.7 332.724 266.76 332.832 266.868C332.939 266.976 333 267.123 333 267.276C333 267.428 332.939 267.575 332.832 267.683C332.724 267.791 332.577 267.851 332.425 267.851Z" fill="#CACACA"/>
<path d="M40.4089 74.3298C40.4009 67.0607 43.1759 60.0648 48.1634 54.7803L31.047 31.2034C30.3424 30.2321 29.437 29.4241 28.3923 28.8345C27.3476 28.2449 26.1882 27.8875 24.9931 27.7867C23.798 27.6859 22.5953 27.844 21.4667 28.2503C20.3382 28.6566 19.3103 29.3015 18.4533 30.1411C12.5899 35.8613 7.935 42.7024 4.76502 50.2581C1.59504 57.8139 -0.0253669 65.9301 5.03015e-05 74.1248C9.80431e-05 77.2194 0.230622 80.3096 0.689696 83.3699C0.869793 84.5798 1.31143 85.7358 1.98383 86.7574C2.65623 87.7789 3.54319 88.6413 4.58286 89.2845C5.6108 89.9213 6.76515 90.3259 7.96542 90.4702C9.16568 90.6145 10.3829 90.4951 11.5323 90.1202L41.0872 80.5095C40.6374 78.4804 40.41 76.4082 40.4089 74.3298Z" fill="#D3DCF6"/>
<path d="M41.9807 83.6719L11.2543 93.6633C10.1172 94.0312 9.07234 94.6394 8.19059 95.4468C7.30885 96.2541 6.61081 97.2417 6.14378 98.3426C5.67675 99.4435 5.45165 100.632 5.48372 101.828C5.51579 103.023 5.80428 104.198 6.32965 105.272C10.7053 114.157 17.1556 121.855 25.1344 127.716C33.1131 133.576 42.3854 137.426 52.1662 138.941C53.3574 139.124 54.5741 139.047 55.7328 138.715C56.8916 138.384 57.9649 137.805 58.8793 137.019C59.7924 136.236 60.5253 135.264 61.0276 134.17C61.5298 133.076 61.7896 131.886 61.7891 130.682V101.962C57.2383 100.78 53.0494 98.4923 49.5939 95.3018C46.1385 92.1113 43.5234 88.1165 41.9807 83.6719Z" fill="#D3DCF7"/>
<path d="M134.383 101.617C133.864 100.384 133.086 99.2775 132.102 98.3725C131.117 97.4675 129.95 96.7852 128.679 96.3721L95.1675 85.4751C93.2113 90.0792 90.0807 94.0882 86.0891 97.1003C82.0975 100.112 77.3852 102.022 72.4241 102.638V137.581C72.4248 138.922 72.7152 140.248 73.2754 141.466C73.8356 142.685 74.6523 143.767 75.6697 144.641C76.6871 145.514 77.8811 146.156 79.1698 146.525C80.4585 146.893 81.8116 146.978 83.1362 146.774C94.0241 145.089 104.346 140.802 113.228 134.278C122.11 127.754 129.29 119.185 134.161 109.295C134.747 108.106 135.07 106.805 135.108 105.48C135.146 104.155 134.899 102.838 134.383 101.617Z" fill="#3F3D56"/>
<path d="M126.057 21.4676C125.103 20.5329 123.959 19.815 122.703 19.3627C121.446 18.9104 120.107 18.7344 118.777 18.8466C117.447 18.9588 116.156 19.3566 114.993 20.013C113.83 20.6693 112.822 21.5688 112.038 22.6501L89.1272 54.2089C91.7629 56.8531 93.8523 59.9909 95.2763 63.4433C96.7002 66.8956 97.4307 70.5949 97.426 74.3298C97.426 75.0247 97.3925 75.7111 97.3436 76.3935L133.762 88.2359C135.049 88.6519 136.412 88.7819 137.755 88.6169C139.098 88.4519 140.389 87.9959 141.538 87.2806C142.687 86.5653 143.666 85.6079 144.408 84.4751C145.149 83.3423 145.635 82.0614 145.831 80.7216C146.343 77.3147 146.599 73.8745 146.599 70.4295C146.627 61.3073 144.823 52.2725 141.295 43.8616C137.766 35.4507 132.584 27.8353 126.057 21.4676Z" fill="#594FFF"/>
<path d="M68.9175 45.7987C73.8223 45.7932 78.6448 47.0605 82.9141 49.477L96.8978 30.2149C97.6106 29.234 98.1022 28.1099 98.3388 26.9203C98.5753 25.7306 98.5511 24.5038 98.2678 23.3245C97.9936 22.1676 97.4718 21.0841 96.7384 20.1487C96.005 19.2132 95.0776 18.4482 94.0201 17.9064C85.3866 13.5122 75.8403 11.215 66.1545 11.2009C56.4687 11.1868 46.9157 13.4561 38.2695 17.8252C37.1791 18.3758 36.2214 19.157 35.4627 20.1148C34.704 21.0726 34.1624 22.1841 33.8755 23.3721C33.5925 24.5433 33.5673 25.7619 33.8018 26.9437C34.0362 28.1255 34.5245 29.2422 35.233 30.2164L51.0964 52.0677C56.1472 48.0028 62.4361 45.7905 68.9175 45.7987Z" fill="#D3DCF6"/>
</g>
<defs>
<clipPath id="clip0_437_2124">
<rect width="333" height="268" fill="white"/>
</clipPath>
</defs>
</svg>
