<svg width="328" height="286" viewBox="0 0 328 286" fill="none" xmlns="http://www.w3.org/2000/svg">
<rect x="0.699219" width="228.787" height="157.548" rx="3" fill="white"/>
<path d="M226.786 0H3.21357C2.36157 0.000944689 1.54473 0.339575 0.942275 0.941602C0.339818 1.54363 0.000945365 2.35988 0 3.21128V154.6C0.000945365 155.451 0.339818 156.268 0.942275 156.87C1.54473 157.472 2.36157 157.81 3.21357 157.811H226.786C227.638 157.81 228.455 157.472 229.058 156.87C229.66 156.268 229.999 155.451 230 154.6V3.21128C229.999 2.35988 229.66 1.54363 229.058 0.941602C228.455 0.339575 227.638 0.000944689 226.786 0ZM229.082 154.6C229.082 155.208 228.84 155.792 228.409 156.222C227.979 156.652 227.395 156.894 226.786 156.894H3.21357C2.60487 156.894 2.02116 156.652 1.59074 156.222C1.16032 155.792 0.918407 155.208 0.918164 154.6V3.21128C0.918407 2.60301 1.16032 2.01972 1.59074 1.58961C2.02116 1.1595 2.60487 0.917751 3.21357 0.917508H226.786C227.395 0.917751 227.979 1.1595 228.409 1.58961C228.84 2.01972 229.082 2.60301 229.082 3.21128V154.6Z" fill="#3F3D56"/>
<path d="M229.541 12.8634H0.459229V13.7809H229.541V12.8634Z" fill="#3F3D56"/>
<path d="M8.26352 9.63407C9.78479 9.63407 11.018 8.40173 11.018 6.88155C11.018 5.36137 9.78479 4.12903 8.26352 4.12903C6.74226 4.12903 5.50903 5.36137 5.50903 6.88155C5.50903 8.40173 6.74226 9.63407 8.26352 9.63407Z" fill="#3F3D56"/>
<path d="M16.1825 9.63407C17.7037 9.63407 18.937 8.40173 18.937 6.88155C18.937 5.36137 17.7037 4.12903 16.1825 4.12903C14.6612 4.12903 13.428 5.36137 13.428 6.88155C13.428 8.40173 14.6612 9.63407 16.1825 9.63407Z" fill="#3F3D56"/>
<path d="M24.1019 9.63407C25.6232 9.63407 26.8564 8.40173 26.8564 6.88155C26.8564 5.36137 25.6232 4.12903 24.1019 4.12903C22.5806 4.12903 21.3474 5.36137 21.3474 6.88155C21.3474 8.40173 22.5806 9.63407 24.1019 9.63407Z" fill="#3F3D56"/>
<path d="M134.281 34.1772H95.7182C94.8659 34.1772 94.0485 33.8389 93.4459 33.2366C92.8432 32.6344 92.5046 31.8176 92.5046 30.9659C92.5046 30.1142 92.8432 29.2974 93.4459 28.6952C94.0485 28.093 94.8659 27.7546 95.7182 27.7546H134.281C135.133 27.7546 135.951 28.093 136.553 28.6952C137.156 29.2974 137.495 30.1142 137.495 30.9659C137.495 31.8176 137.156 32.6344 136.553 33.2366C135.951 33.8389 135.133 34.1772 134.281 34.1772Z" fill="#D3DCF6"/>
<path d="M160.678 49.7747H69.321C68.4687 49.7747 67.6513 49.4364 67.0487 48.8342C66.446 48.2319 66.1074 47.4151 66.1074 46.5634C66.1074 45.7118 66.446 44.895 67.0487 44.2927C67.6513 43.6905 68.4687 43.3522 69.321 43.3522H160.678C161.531 43.3522 162.348 43.6905 162.951 44.2927C163.553 44.895 163.892 45.7118 163.892 46.5634C163.892 47.4151 163.553 48.2319 162.951 48.8342C162.348 49.4364 161.531 49.7747 160.678 49.7747Z" fill="#D3DCF6"/>
<path d="M188.078 145.632C184.615 145.632 181.23 144.606 178.35 142.683C175.471 140.761 173.227 138.028 171.902 134.831C170.577 131.634 170.23 128.117 170.906 124.723C171.581 121.329 173.249 118.211 175.697 115.765C178.146 113.318 181.265 111.651 184.662 110.976C188.058 110.301 191.578 110.648 194.778 111.972C197.977 113.296 200.711 115.539 202.635 118.416C204.559 121.293 205.586 124.676 205.586 128.136C205.581 132.775 203.734 137.222 200.452 140.502C197.17 143.782 192.719 145.627 188.078 145.632ZM188.078 111.847C184.854 111.847 181.702 112.802 179.021 114.592C176.341 116.382 174.251 118.926 173.017 121.902C171.784 124.879 171.461 128.154 172.09 131.314C172.719 134.474 174.271 137.376 176.551 139.654C178.831 141.932 181.735 143.484 184.897 144.112C188.059 144.741 191.337 144.418 194.316 143.185C197.294 141.953 199.84 139.865 201.631 137.186C203.422 134.507 204.378 131.358 204.378 128.136C204.374 123.817 202.655 119.677 199.599 116.623C196.543 113.569 192.399 111.852 188.078 111.847Z" fill="#3F3D56"/>
<path d="M41.2921 98.7736C37.8293 98.7736 34.4442 97.7475 31.565 95.825C28.6857 93.9025 26.4416 91.17 25.1164 87.9731C23.7913 84.7761 23.4446 81.2583 24.1201 77.8644C24.7957 74.4705 26.4632 71.353 28.9118 68.9062C31.3604 66.4593 34.4801 64.793 37.8764 64.1179C41.2727 63.4428 44.7931 63.7893 47.9923 65.1135C51.1916 66.4378 53.926 68.6803 55.8499 71.5575C57.7737 74.4346 58.8006 77.8173 58.8006 81.2777C58.7953 85.9163 56.949 90.3634 53.6667 93.6434C50.3843 96.9234 45.934 98.7683 41.2921 98.7736ZM41.2921 64.9884C38.0681 64.9884 34.9165 65.9437 32.2358 67.7336C29.5551 69.5235 27.4658 72.0675 26.232 75.044C24.9982 78.0205 24.6754 81.2957 25.3044 84.4556C25.9334 87.6154 27.4859 90.5178 29.7656 92.7959C32.0453 95.074 34.9499 96.6254 38.112 97.254C41.274 97.8825 44.5516 97.5599 47.5302 96.327C50.5088 95.0941 53.0547 93.0063 54.8459 90.3275C56.6371 87.6488 57.5931 84.4994 57.5931 81.2777C57.5882 76.959 55.8692 72.8186 52.8132 69.7648C49.7573 66.711 45.6139 64.9933 41.2921 64.9884Z" fill="#3F3D56"/>
<path d="M48.0924 90.5519C47.634 90.552 47.1942 90.3703 46.8698 90.0466C46.5453 89.7229 46.3627 89.2838 46.362 88.8257V79.0091C46.3625 78.5515 46.5447 78.1127 46.8685 77.7891C47.1923 77.4655 47.6314 77.2835 48.0893 77.283H48.0924C48.5504 77.2835 48.9894 77.4655 49.3132 77.7891C49.637 78.1127 49.8192 78.5515 49.8197 79.0091V88.8257C49.8192 89.2834 49.637 89.7221 49.3132 90.0457C48.9894 90.3693 48.5504 90.5513 48.0924 90.5519ZM43.5823 90.5519C43.3536 90.5542 43.1268 90.5113 42.9148 90.4256C42.7028 90.34 42.5098 90.2133 42.347 90.0529C42.1841 89.8925 42.0547 89.7015 41.966 89.4909C41.8773 89.2803 41.8311 89.0542 41.8301 88.8257V83.5378C41.8307 83.0802 42.0128 82.6414 42.3366 82.3179C42.6604 81.9943 43.0995 81.8123 43.5574 81.8118H43.5823C44.0402 81.8123 44.4793 81.9943 44.8031 82.3179C45.1269 82.6414 45.309 83.0802 45.3095 83.5378V88.8257C45.309 89.2834 45.1269 89.7221 44.8031 90.0457C44.4793 90.3693 44.0402 90.5513 43.5823 90.5519ZM39.0286 90.5519C38.5702 90.552 38.1304 90.3703 37.806 90.0466C37.4816 89.7229 37.2989 89.2838 37.2983 88.8257V73.7286C37.2988 73.271 37.4809 72.8322 37.8047 72.5086C38.1285 72.185 38.5676 72.003 39.0255 72.0024H39.0286C39.4866 72.003 39.9256 72.185 40.2494 72.5086C40.5733 72.8322 40.7554 73.271 40.7559 73.7286V88.8257C40.7554 89.2834 40.5733 89.7221 40.2494 90.0457C39.9256 90.3693 39.4866 90.5513 39.0286 90.5519ZM34.4923 90.5519C34.2652 90.5521 34.0402 90.5076 33.8304 90.4209C33.6205 90.3342 33.4298 90.2069 33.2692 90.0465C33.1086 89.886 32.9813 89.6955 32.8944 89.4858C32.8076 89.2761 32.763 89.0514 32.7632 88.8244L32.7651 86.5569C32.7653 86.0992 32.9475 85.6602 33.2715 85.3367C33.5956 85.0132 34.035 84.8315 34.4931 84.8317C34.9512 84.8319 35.3904 85.0139 35.7142 85.3377C36.038 85.6616 36.2197 86.1007 36.2196 86.5584V88.8257C36.219 89.2834 36.0369 89.7221 35.7131 90.0457C35.3893 90.3693 34.9502 90.5513 34.4923 90.5519Z" fill="#594FFF"/>
<path d="M115.694 98.7736C112.231 98.7736 108.846 97.7475 105.967 95.825C103.088 93.9025 100.843 91.17 99.5183 87.9731C98.1931 84.7761 97.8464 81.2583 98.522 77.8644C99.1975 74.4705 100.865 71.353 103.314 68.9062C105.762 66.4593 108.882 64.793 112.278 64.1179C115.675 63.4428 119.195 63.7893 122.394 65.1135C125.593 66.4378 128.328 68.6803 130.252 71.5575C132.176 74.4346 133.202 77.8173 133.202 81.2777C133.197 85.9163 131.351 90.3634 128.069 93.6434C124.786 96.9234 120.336 98.7683 115.694 98.7736ZM115.694 64.9884C112.47 64.9884 109.318 65.9437 106.638 67.7336C103.957 69.5235 101.868 72.0675 100.634 75.044C99.4001 78.0205 99.0773 81.2957 99.7062 84.4556C100.335 87.6154 101.888 90.5178 104.167 92.7959C106.447 95.074 109.352 96.6254 112.514 97.254C115.676 97.8825 118.953 97.5599 121.932 96.327C124.911 95.0941 127.457 93.0063 129.248 90.3275C131.039 87.6488 131.995 84.4994 131.995 81.2777C131.99 76.959 130.271 72.8186 127.215 69.7648C124.159 66.711 120.016 64.9933 115.694 64.9884Z" fill="#3F3D56"/>
<path d="M106.393 87.6196C106.141 87.6195 105.895 87.545 105.686 87.4053C105.476 87.2657 105.313 87.0672 105.217 86.8349C105.12 86.6027 105.095 86.3471 105.144 86.1005C105.193 85.8538 105.314 85.6271 105.491 85.449L111.96 78.9663C112.061 78.8649 112.181 78.7844 112.313 78.7296C112.445 78.6748 112.587 78.6468 112.73 78.6472H112.73C112.873 78.6467 113.015 78.6746 113.147 78.7292C113.278 78.7839 113.398 78.8641 113.499 78.9653L116.499 81.9634C116.56 82.0242 116.632 82.0724 116.711 82.1051C116.79 82.1379 116.875 82.1547 116.961 82.1544C117.046 82.1547 117.132 82.1379 117.211 82.1051C117.29 82.0722 117.362 82.024 117.422 81.9632L121.658 77.7232C121.678 77.703 121.694 77.679 121.705 77.6526C121.716 77.6263 121.722 77.598 121.722 77.5695C121.722 77.5409 121.716 77.5127 121.705 77.4863C121.694 77.46 121.678 77.436 121.658 77.4159L120.287 76.0486C120.196 75.9575 120.134 75.8413 120.109 75.7148C120.083 75.5883 120.096 75.4572 120.145 75.338C120.195 75.2188 120.278 75.1169 120.386 75.0452C120.493 74.9735 120.619 74.9353 120.748 74.9353H125.616C125.789 74.9355 125.955 75.0042 126.077 75.1265C126.2 75.2487 126.268 75.4144 126.269 75.5872V80.4486C126.269 80.5776 126.23 80.7037 126.159 80.8109C126.087 80.9181 125.985 81.0017 125.866 81.0511C125.747 81.1004 125.616 81.1134 125.489 81.0882C125.362 81.0631 125.246 81.001 125.155 80.9098L123.782 79.538C123.762 79.5178 123.738 79.5018 123.712 79.4909C123.685 79.48 123.657 79.4744 123.629 79.4744C123.6 79.4744 123.572 79.48 123.545 79.4909C123.519 79.5018 123.495 79.5178 123.475 79.538L117.739 85.2661C117.638 85.3673 117.518 85.4475 117.386 85.5021C117.254 85.5567 117.113 85.5846 116.97 85.5842C116.827 85.5846 116.686 85.5567 116.554 85.502C116.422 85.4474 116.302 85.3671 116.201 85.2659L113.199 82.2663C113.075 82.1478 112.91 82.0816 112.738 82.0816C112.566 82.0816 112.401 82.1478 112.277 82.2663L107.293 87.2467C107.175 87.3653 107.034 87.4593 106.88 87.5233C106.725 87.5873 106.56 87.62 106.393 87.6196Z" fill="#594FFF"/>
<path d="M115.694 144.649C112.231 144.649 108.846 143.623 105.967 141.7C103.088 139.778 100.843 137.046 99.5183 133.849C98.1931 130.652 97.8464 127.134 98.522 123.74C99.1975 120.346 100.865 117.229 103.314 114.782C105.762 112.335 108.882 110.668 112.278 109.993C115.675 109.318 119.195 109.665 122.394 110.989C125.593 112.313 128.328 114.556 130.252 117.433C132.176 120.31 133.202 123.693 133.202 127.153C133.197 131.792 131.351 136.239 128.069 139.519C124.786 142.799 120.336 144.644 115.694 144.649Z" fill="#D3DCF6"/>
<path d="M188.229 97.3974C184.766 97.3974 181.381 96.3712 178.502 94.4488C175.623 92.5263 173.379 89.7938 172.053 86.5968C170.728 83.3999 170.382 79.882 171.057 76.4882C171.733 73.0943 173.4 69.9768 175.849 67.53C178.297 65.0831 181.417 63.4168 184.813 62.7417C188.21 62.0666 191.73 62.4131 194.929 63.7373C198.129 65.0615 200.863 67.304 202.787 70.1812C204.711 73.0584 205.738 76.4411 205.738 79.9014C205.732 84.54 203.886 88.9872 200.604 92.2671C197.321 95.5471 192.871 97.3921 188.229 97.3974Z" fill="#D3DCF6"/>
<path d="M41.2921 109.657C38.2868 109.661 35.3326 110.435 32.7119 111.905C36.4992 112.239 40.0505 113.886 42.7516 116.56C45.4527 119.234 47.1338 122.767 47.5041 126.548C47.8745 130.329 46.9108 134.121 44.7798 137.267C42.6487 140.414 39.4843 142.717 35.8338 143.779C36.5176 144.006 37.2153 144.188 37.9225 144.325C39.0324 144.543 40.161 144.652 41.2921 144.651C45.9359 144.651 50.3895 142.807 53.6731 139.526C56.9568 136.245 58.8015 131.794 58.8015 127.154C58.8015 122.513 56.9568 118.063 53.6731 114.782C50.3895 111.5 45.9359 109.657 41.2921 109.657Z" fill="#D3DCF6"/>
<path d="M34.6498 110.969C33.5403 110.747 32.4114 110.636 31.28 110.639C26.7781 110.634 22.447 112.36 19.1844 115.46C15.9218 118.56 13.9779 122.796 13.7555 127.289C13.5332 131.782 15.0495 136.188 17.9902 139.595C20.9308 143.001 25.0704 145.146 29.5508 145.585C34.0312 146.024 38.5089 144.724 42.0559 141.954C45.6028 139.183 47.947 135.155 48.6026 130.704C49.2582 126.254 48.1749 121.721 45.5773 118.047C42.9796 114.373 39.0668 111.838 34.6498 110.969ZM35.8342 143.779C33.592 144.431 31.2358 144.594 28.9251 144.256C26.6144 143.919 24.4032 143.09 22.4411 141.825C20.479 140.559 18.8118 138.887 17.5523 136.922C16.2929 134.957 15.4706 132.745 15.1412 130.435C14.8117 128.125 14.9827 125.771 15.6427 123.532C16.3026 121.294 17.4361 119.223 18.9664 117.461C20.4966 115.698 22.388 114.284 24.5124 113.315C26.6369 112.347 28.9448 111.845 31.28 111.845C31.7621 111.845 32.2396 111.868 32.7123 111.905C36.4996 112.239 40.0509 113.886 42.752 116.56C45.4531 119.233 47.1342 122.767 47.5045 126.548C47.8749 130.329 46.9112 134.121 44.7802 137.267C42.6492 140.414 39.4848 142.717 35.8342 143.779Z" fill="#3F3D56"/>
<path d="M41.4746 125.055C40.8959 122.521 39.3343 120.319 37.1326 118.934C34.9309 117.548 32.2692 117.093 29.7316 117.667C29.4837 117.723 29.2271 117.793 29.001 117.863L31.3409 128.137L41.6225 125.803C41.579 125.564 41.5312 125.303 41.4746 125.055Z" fill="#594FFF"/>
<path d="M40.4782 127.607L30.1922 129.941L27.8567 119.666C26.0633 120.221 24.4666 121.277 23.2559 122.711C22.0453 124.145 21.2714 125.895 21.0261 127.755C20.7808 129.615 21.0742 131.506 21.8718 133.204C22.6693 134.903 23.9374 136.337 25.5257 137.337C27.1141 138.337 28.956 138.861 30.8332 138.846C32.7105 138.832 34.5442 138.28 36.117 137.256C37.6899 136.232 38.9359 134.778 39.7073 133.068C40.4788 131.358 40.7433 129.463 40.4695 127.607H40.4782Z" fill="#594FFF"/>
<path d="M194.504 135.476H181.65C181.285 135.476 180.934 135.331 180.676 135.073C180.418 134.815 180.273 134.465 180.273 134.1C180.273 133.735 180.418 133.385 180.676 133.126C180.934 132.868 181.285 132.723 181.65 132.723H194.504C194.87 132.723 195.22 132.868 195.478 133.126C195.736 133.385 195.881 133.735 195.881 134.1C195.881 134.465 195.736 134.815 195.478 135.073C195.22 135.331 194.87 135.476 194.504 135.476Z" fill="#594FFF"/>
<path d="M194.504 129.512H181.65C181.285 129.512 180.934 129.367 180.676 129.109C180.418 128.851 180.273 128.501 180.273 128.136C180.273 127.771 180.418 127.421 180.676 127.163C180.934 126.905 181.285 126.76 181.65 126.76H194.504C194.87 126.76 195.22 126.905 195.478 127.163C195.736 127.421 195.881 127.771 195.881 128.136C195.881 128.501 195.736 128.851 195.478 129.109C195.22 129.367 194.87 129.512 194.504 129.512Z" fill="#594FFF"/>
<path d="M194.504 123.548H181.65C181.285 123.548 180.934 123.403 180.676 123.145C180.418 122.887 180.273 122.537 180.273 122.172C180.273 121.807 180.418 121.457 180.676 121.199C180.934 120.941 181.285 120.796 181.65 120.796H194.504C194.87 120.796 195.22 120.941 195.478 121.199C195.736 121.457 195.881 121.807 195.881 122.172C195.881 122.537 195.736 122.887 195.478 123.145C195.22 123.403 194.87 123.548 194.504 123.548Z" fill="#594FFF"/>
<path d="M305.634 283.146C301.249 283.146 296.961 281.846 293.315 279.409C289.668 276.973 286.826 273.509 285.148 269.458C283.47 265.406 283.03 260.947 283.886 256.646C284.742 252.345 286.854 248.394 289.955 245.293C293.056 242.191 297.007 240.08 301.308 239.224C305.61 238.368 310.068 238.807 314.12 240.486C318.172 242.164 321.635 245.006 324.071 248.653C326.508 252.299 327.808 256.586 327.808 260.972C327.802 266.851 325.463 272.487 321.306 276.644C317.149 280.801 311.513 283.14 305.634 283.146ZM305.634 240.327C301.551 240.327 297.559 241.538 294.164 243.806C290.769 246.075 288.123 249.299 286.561 253.072C284.998 256.844 284.589 260.995 285.386 265C286.183 269.004 288.149 272.683 291.036 275.57C293.923 278.457 297.602 280.424 301.607 281.22C305.611 282.017 309.762 281.608 313.535 280.045C317.307 278.483 320.531 275.837 322.8 272.442C325.068 269.047 326.279 265.055 326.279 260.972C326.273 255.499 324.096 250.251 320.225 246.381C316.355 242.51 311.108 240.333 305.634 240.327Z" fill="#3F3D56"/>
<path d="M311.747 257.123L307.423 263.734C307.771 264.155 307.96 264.685 307.958 265.231C307.957 265.861 307.706 266.465 307.26 266.91C306.814 267.356 306.209 267.606 305.579 267.606C304.949 267.606 304.345 267.356 303.899 266.91C303.453 266.465 303.202 265.861 303.201 265.231C303.202 265.078 303.216 264.925 303.242 264.774L300.389 263.113C300.02 263.469 299.546 263.697 299.037 263.761C298.529 263.825 298.013 263.723 297.568 263.469L294.532 266.313V269.148C294.533 269.708 294.756 270.246 295.152 270.643C295.548 271.039 296.085 271.264 296.645 271.266H314.618C315.179 271.264 315.716 271.04 316.113 270.643C316.51 270.246 316.734 269.709 316.736 269.148V258.634L313.833 256.703C313.541 256.93 313.201 257.086 312.839 257.159C312.477 257.232 312.103 257.219 311.747 257.123Z" fill="#594FFF"/>
<path d="M298.741 259.041C299.372 259.041 299.976 259.291 300.423 259.737C300.869 260.183 301.119 260.788 301.119 261.419V261.725L304.096 263.391C304.52 263.043 305.053 262.852 305.602 262.852C305.775 262.854 305.948 262.872 306.118 262.907L310.45 256.201C310.234 255.897 310.092 255.546 310.037 255.177C309.982 254.808 310.015 254.431 310.133 254.077C310.251 253.723 310.451 253.402 310.717 253.14C310.982 252.878 311.306 252.682 311.662 252.569C312.017 252.456 312.395 252.428 312.763 252.488C313.131 252.549 313.48 252.695 313.781 252.915C314.082 253.136 314.327 253.424 314.495 253.757C314.664 254.09 314.751 254.458 314.75 254.832C314.75 255.021 314.729 255.209 314.686 255.393L316.736 256.763V252.796C316.734 252.235 316.51 251.697 316.113 251.3C315.716 250.904 315.179 250.68 314.618 250.677H296.645C296.085 250.68 295.548 250.904 295.152 251.301C294.756 251.698 294.533 252.235 294.532 252.796V264.158L296.513 262.259C296.381 261.9 296.337 261.514 296.386 261.135C296.434 260.756 296.574 260.393 296.793 260.08C297.012 259.766 297.303 259.51 297.642 259.333C297.981 259.156 298.358 259.063 298.741 259.063V259.041Z" fill="#594FFF"/>
<path d="M198.174 200.12C193.789 200.12 189.501 198.819 185.855 196.383C182.208 193.946 179.366 190.483 177.688 186.431C176.01 182.38 175.57 177.921 176.426 173.62C177.282 169.318 179.394 165.367 182.495 162.266C185.596 159.165 189.547 157.053 193.848 156.198C198.15 155.342 202.608 155.781 206.66 157.46C210.712 159.138 214.175 161.98 216.611 165.626C219.048 169.273 220.348 173.56 220.348 177.946C220.342 183.825 218.003 189.461 213.846 193.618C209.689 197.775 204.053 200.113 198.174 200.12ZM198.174 157.301C194.091 157.301 190.1 158.512 186.704 160.78C183.309 163.049 180.663 166.273 179.101 170.045C177.538 173.818 177.129 177.969 177.926 181.973C178.723 185.978 180.689 189.657 183.576 192.544C186.463 195.431 190.142 197.397 194.147 198.194C198.151 198.991 202.302 198.582 206.075 197.019C209.847 195.457 213.071 192.811 215.34 189.415C217.608 186.02 218.819 182.029 218.819 177.946C218.813 172.472 216.636 167.225 212.765 163.354C208.895 159.484 203.648 157.307 198.174 157.301Z" fill="#3F3D56"/>
<path d="M207.742 186.831C206.93 186.831 206.137 186.591 205.462 186.14C204.787 185.69 204.26 185.049 203.949 184.3C203.638 183.55 203.556 182.725 203.714 181.929C203.872 181.133 204.262 180.401 204.836 179.827C205.409 179.253 206.14 178.861 206.936 178.703C207.732 178.544 208.557 178.624 209.307 178.935C210.057 179.245 210.698 179.77 211.15 180.445C211.601 181.119 211.842 181.912 211.843 182.724C211.843 183.812 211.411 184.856 210.642 185.626C209.873 186.396 208.83 186.829 207.742 186.831ZM198.174 186.831C197.087 186.829 196.045 186.397 195.276 185.628C194.507 184.859 194.075 183.817 194.073 182.73V173.162C194.075 172.075 194.507 171.033 195.276 170.265C196.045 169.497 197.087 169.066 198.174 169.066C199.261 169.066 200.303 169.497 201.072 170.265C201.841 171.033 202.274 172.075 202.275 173.162V182.73C202.274 183.817 201.841 184.859 201.073 185.628C200.304 186.397 199.261 186.829 198.174 186.831ZM188.609 186.831C187.521 186.829 186.478 186.397 185.709 185.627C184.939 184.858 184.507 183.815 184.505 182.727V178.904C184.505 177.816 184.938 176.772 185.707 176.002C186.477 175.233 187.521 174.8 188.609 174.8C189.697 174.8 190.741 175.233 191.511 176.002C192.28 176.772 192.713 177.816 192.713 178.904V182.727C192.712 183.815 192.279 184.858 191.509 185.627C190.74 186.397 189.697 186.829 188.609 186.831Z" fill="#594FFF"/>
<path d="M271.311 207.275C272.048 206.908 272.696 206.384 273.209 205.74C273.722 205.095 274.088 204.346 274.28 203.545C274.472 202.744 274.486 201.911 274.321 201.104C274.156 200.296 273.816 199.535 273.326 198.874L286.455 126.211L274.203 126.049L265.085 197.904C264.029 198.802 263.338 200.056 263.145 201.43C262.951 202.803 263.268 204.199 264.035 205.355C264.803 206.51 265.967 207.343 267.308 207.697C268.649 208.051 270.073 207.901 271.311 207.275Z" fill="#FFB8B8"/>
<path d="M233.284 203.83L228.633 225.924L229.214 275.345H237.936L242.006 227.087L248.401 206.737L233.284 203.83Z" fill="#FFB8B8"/>
<path d="M262.107 205.488L257.456 227.582L258.037 277.003H266.759L270.829 228.745L277.224 208.395L262.107 205.488Z" fill="#FFB8B8"/>
<path d="M225.936 275.579L239.683 275.544L239.705 284.199L217.302 284.256C217.3 283.119 217.521 281.993 217.953 280.942C218.385 279.891 219.021 278.935 219.822 278.129C220.624 277.323 221.577 276.683 222.626 276.246C223.675 275.808 224.8 275.581 225.936 275.579Z" fill="#2F2E41"/>
<path d="M255.007 277.323L268.754 277.289L268.776 285.944L246.374 286C246.371 284.864 246.592 283.737 247.024 282.686C247.456 281.635 248.092 280.679 248.893 279.874C249.695 279.068 250.648 278.428 251.697 277.99C252.746 277.553 253.871 277.326 255.007 277.323Z" fill="#2F2E41"/>
<path d="M254.506 95.4787C262.393 95.4787 268.786 89.0851 268.786 81.1984C268.786 73.3116 262.393 66.9181 254.506 66.9181C246.619 66.9181 240.226 73.3116 240.226 81.1984C240.226 89.0851 246.619 95.4787 254.506 95.4787Z" fill="#FFB8B8"/>
<path d="M286.064 116.519C281.72 109.702 268.078 93.5335 247.78 102.814C246.18 103.554 244.846 104.765 243.955 106.286C243.065 107.806 242.661 109.563 242.798 111.32C243.781 124.285 245.02 157.318 234.447 177.085C234.447 177.085 265.262 186.387 282.123 177.666C282.123 177.666 276.309 138.711 282.123 131.153C284.062 128.737 285.632 126.048 286.782 123.172C287.186 122.083 287.331 120.915 287.207 119.761C287.082 118.606 286.691 117.497 286.064 116.519Z" fill="#3F3D56"/>
<path d="M280.379 116.036L286.085 118.413C286.465 118.571 286.791 118.835 287.027 119.172C287.262 119.51 287.396 119.908 287.413 120.319L287.937 132.897L275.146 131.734L280.379 116.036Z" fill="#3F3D56"/>
<path d="M236.773 175.922C236.773 175.922 223.982 199.76 226.307 221.854L244.331 224.761L257.123 193.946L254.215 225.343L272.821 225.924C272.821 225.924 285.031 180.573 280.961 176.503L236.773 175.922Z" fill="#2F2E41"/>
<path d="M218.606 178.05C219.42 177.925 220.197 177.623 220.882 177.166C221.567 176.709 222.144 176.107 222.571 175.403C222.998 174.698 223.266 173.909 223.355 173.09C223.444 172.271 223.353 171.443 223.087 170.663L249.035 121.748L237.417 117.857L215.536 167.225C214.255 167.758 213.215 168.743 212.612 169.991C212.009 171.24 211.885 172.667 212.263 174.001C212.641 175.335 213.496 176.484 214.665 177.231C215.834 177.977 217.236 178.268 218.606 178.05Z" fill="#FFB8B8"/>
<path d="M252.578 108.507L247.772 106.357C247.772 106.357 243.697 103.83 240.085 109.389C236.473 114.948 232.571 127.129 232.571 127.129L248.252 131.542L252.578 108.507Z" fill="#3F3D56"/>
<path d="M256.794 88.0736C257.306 86.2935 257.158 83.8845 255.432 83.2112C254.533 82.8603 253.53 83.137 252.57 83.2354C250.691 83.4199 248.81 82.9022 247.29 81.7821C245.505 80.455 244.402 78.4264 243.355 76.4638L241.771 73.4952C241.419 72.8764 241.118 72.2294 240.872 71.5609C239.991 68.9402 240.948 65.9062 242.907 63.955C244.954 62.0506 247.648 60.9944 250.444 61C253.218 61.0199 255.958 61.6071 258.497 62.7253C263.009 64.5646 267.096 67.3103 270.505 70.7925C272.733 73.0717 274.761 76.041 274.296 79.194C273.934 81.6484 272.145 83.6138 270.438 85.415L264.249 91.9483C263.153 93.1054 261.982 94.3096 260.452 94.7545C258.921 95.1993 256.949 94.5458 256.532 93.0077C256.532 93.0077 256.281 89.8538 256.794 88.0736Z" fill="#2F2E41"/>
</svg>
