<svg width="308" height="315" viewBox="0 0 308 315" fill="none" xmlns="http://www.w3.org/2000/svg">
<path d="M241.63 229.89V102.514C241.63 101.729 241.258 100.977 240.596 100.422C239.934 99.8672 239.036 99.5555 238.099 99.5555H222.345C221.409 99.5555 220.511 99.8672 219.849 100.422C219.187 100.977 218.815 101.729 218.815 102.514V230.222L241.63 229.89Z" fill="#3F3D56"/>
<path d="M192.889 230.222V128.454C192.889 127.665 192.534 126.909 191.902 126.352C191.27 125.795 190.413 125.481 189.519 125.481H174.481C173.587 125.481 172.73 125.795 172.098 126.352C171.466 126.909 171.111 127.665 171.111 128.454V230.003L192.889 230.222Z" fill="#3F3D56"/>
<path d="M278.871 108.889C279.089 108.889 279.302 108.833 279.485 108.727C279.668 108.621 279.813 108.471 279.902 108.294C279.991 108.117 280.02 107.921 279.986 107.729C279.953 107.537 279.857 107.359 279.711 107.214L230.153 58.0698L181.381 82.419L132.319 7.25928L82.3384 43.8335C82.2237 43.9173 82.1288 44.0204 82.0589 44.1368C81.989 44.2533 81.9456 44.3808 81.9313 44.5121C81.9169 44.6435 81.9317 44.7761 81.975 44.9023C82.0182 45.0285 82.089 45.1459 82.1834 45.2478C82.2777 45.3497 82.3937 45.4341 82.5247 45.4961C82.6557 45.5581 82.7992 45.5966 82.9469 45.6093C83.0947 45.622 83.2438 45.6087 83.3858 45.5701C83.5277 45.5316 83.6597 45.4685 83.7743 45.3846L131.701 10.3136L180.545 85.1402L229.68 60.6099L278.029 108.555C278.135 108.66 278.265 108.744 278.41 108.802C278.555 108.859 278.712 108.889 278.871 108.889Z" fill="#3F3D56"/>
<path d="M279.333 119.556C273.81 119.556 269.333 115.078 269.333 109.556C269.333 104.033 273.81 99.5555 279.333 99.5555C284.856 99.5555 289.333 104.033 289.333 109.556C289.333 115.078 284.856 119.556 279.333 119.556Z" fill="#244CC0"/>
<path d="M230.593 70.8148C225.07 70.8148 220.593 66.3377 220.593 60.8148C220.593 55.292 225.07 50.8148 230.593 50.8148C236.115 50.8148 240.593 55.292 240.593 60.8148C240.593 66.3377 236.115 70.8148 230.593 70.8148Z" fill="#D3DCF6"/>
<path d="M181.852 95.7037C176.329 95.7037 171.852 91.2266 171.852 85.7037C171.852 80.1809 176.329 75.7037 181.852 75.7037C187.375 75.7037 191.852 80.1809 191.852 85.7037C191.852 91.2266 187.375 95.7037 181.852 95.7037Z" fill="#D3DCF6"/>
<path d="M133.111 20C127.588 20 123.111 15.5228 123.111 10C123.111 4.47715 127.588 0 133.111 0C138.634 0 143.111 4.47715 143.111 10C143.111 15.5228 138.634 20 133.111 20Z" fill="#594FFF"/>
<path d="M95.4075 229.838V83.2559C95.4075 81.376 93.8268 79.8518 91.8772 79.8518H76.123C74.1733 79.8518 72.5927 81.3757 72.5927 83.2559V230.222L95.4075 229.838Z" fill="#3F3D56"/>
<path d="M290.37 230.035V158.259C290.37 157.339 288.79 156.593 286.84 156.593H271.086C269.136 156.593 267.556 157.34 267.556 158.259V230.222L290.37 230.035Z" fill="#3F3D56"/>
<path d="M0.374695 231.259H307.625C307.724 231.259 307.82 231.205 307.89 231.107C307.96 231.01 308 230.878 308 230.741C308 230.603 307.96 230.471 307.89 230.374C307.82 230.277 307.724 230.222 307.625 230.222H0.375061C0.275604 230.222 0.180206 230.277 0.109863 230.374C0.0395203 230.471 0 230.603 0 230.741C0 230.878 0.0395203 231.01 0.109863 231.107C0.180206 231.205 0.275604 231.259 0.375061 231.259H0.374695Z" fill="#E6E6E6"/>
<path d="M144.148 229.787V62.9846C144.148 60.8454 142.568 59.1111 140.618 59.1111H124.864C122.914 59.1111 121.333 60.8454 121.333 62.9846V230.222L144.148 229.787Z" fill="#594FFF"/>
<path d="M18.799 307.629L25.578 307.628L28.8027 281.487H18.7979L18.799 307.629Z" fill="#FFB8B8"/>
<path d="M17.0702 314.198L38.9282 314.197V313.921C38.9281 311.665 38.0317 309.502 36.4362 307.907C34.8407 306.311 32.6768 305.415 30.4205 305.415L17.0699 305.416L17.0702 314.198Z" fill="#2F2E41"/>
<path d="M44.787 307.629L51.566 307.628L54.7908 281.487H44.786L44.787 307.629Z" fill="#FFB8B8"/>
<path d="M43.0578 314.198L64.9158 314.197V313.921C64.9156 311.665 64.0192 309.502 62.4237 307.907C60.8283 306.311 58.6644 305.415 56.408 305.415L43.0574 305.416L43.0578 314.198Z" fill="#2F2E41"/>
<path d="M39.9006 80.9583C31.35 80.9583 24.4184 74.028 24.4184 65.4791C24.4184 56.9302 31.35 50 39.9006 50C48.4512 50 55.3828 56.9302 55.3828 65.4791C55.3828 74.028 48.4512 80.9583 39.9006 80.9583Z" fill="#594FFF"/>
<path d="M65.0857 120.939C67.4098 116.189 70.2486 111.708 73.5511 107.578C74.2412 106.771 74.8696 105.913 75.4311 105.012C76.6199 102.95 76.9738 100.529 77.7258 98.2735C79.827 91.9492 85.0688 86.8688 86.3461 80.3288C86.8105 77.9517 90.734 84.8608 89.7024 87.8086C87.8611 93.1433 87.6234 98.7932 85.2789 103.946C82.9345 109.098 80.1808 114.04 78.1571 119.309C77.007 122.299 76.0891 125.39 74.4026 128.154C72.7162 130.918 70.0842 133.234 66.9048 133.649C66.9264 131.645 66.6219 129.651 66.0035 127.745C65.3124 125.567 64.0849 123.001 65.0857 120.939Z" fill="#FFB8B8"/>
<path d="M30.3013 124.522C30.4434 120.613 29.8334 116.713 28.5043 113.034C27.9956 111.624 27.3984 110.192 27.4481 108.694C27.52 107.301 28.1835 106.024 28.7862 104.764C30.8653 100.424 32.325 95.8244 33.7627 91.2359L36.5273 82.5842C37.4287 81.9234 32.1647 81.6942 31.0422 83.2476C27.3707 88.3447 24.5895 94.1991 21.681 99.766C20.9391 101.093 20.3067 102.477 19.79 103.907C19.0796 106.223 18.7436 108.638 18.7947 111.06C18.7947 115.588 19.3918 120.099 20.0111 124.588C20.4037 127.402 20.9179 130.464 23.0467 132.327C25.2586 129.497 27.4813 126.733 30.3013 124.522Z" fill="#FFB8B8"/>
<path d="M44.9204 120.042C38.5838 120.042 33.447 114.907 33.447 108.571C33.447 102.236 38.5838 97.1002 44.9204 97.1002C51.257 97.1002 56.3938 102.236 56.3938 108.571C56.3938 114.907 51.257 120.042 44.9204 120.042Z" fill="#FFB8B8"/>
<path d="M54.248 97.1266C54.3769 96.7785 54.4058 96.4012 54.3316 96.0375C54.2574 95.6738 54.083 95.3381 53.828 95.0682C53.5415 94.8425 53.1611 94.7583 52.854 94.5429C52.4173 94.1759 52.06 93.7239 51.8036 93.2144C51.0199 92.1178 49.8729 91.3342 48.5663 91.0026C47.2597 90.671 45.8778 90.8128 44.6658 91.4029C42.7697 92.3952 41.6249 94.3819 39.9385 95.7196C39.0825 96.4128 38.0895 96.9273 37.2283 97.6204C35.5031 99.1103 34.2768 101.094 33.7146 103.302C33.1554 105.496 32.8289 107.743 32.7405 110.005C32.6507 110.684 32.6773 111.373 32.819 112.043C32.9935 112.605 33.2539 113.136 33.5909 113.618C35.3242 116.244 37.6087 118.628 40.4714 119.983C43.3341 121.338 46.8162 121.558 49.6394 120.141C49.9237 120.026 50.1682 119.83 50.3431 119.579C50.5035 119.195 50.542 118.772 50.4531 118.366C50.3 116.761 50.6175 115.146 51.367 113.719C51.8925 112.668 52.6803 111.765 53.1004 110.678C53.4911 109.462 53.6585 108.184 53.5943 106.908C53.6441 103.601 53.4195 100.309 54.248 97.1266Z" fill="#2D293D"/>
<path d="M90.0236 86.3929C87.2752 86.3929 85.0472 84.1653 85.0472 81.4174C85.0472 78.6696 87.2752 76.442 90.0236 76.442C92.772 76.442 95 78.6696 95 81.4174C95 84.1653 92.772 86.3929 90.0236 86.3929Z" fill="#FFB8B8"/>
<path d="M34.7299 84.1813C31.9815 84.1813 29.7535 81.9538 29.7535 79.2059C29.7535 76.458 31.9815 74.2305 34.7299 74.2305C37.4783 74.2305 39.7063 76.458 39.7063 79.2059C39.7063 81.9538 37.4783 84.1813 34.7299 84.1813Z" fill="#FFB8B8"/>
<path d="M45.8173 187.087C40.0226 187.784 25.2044 182.499 24.4013 190.54C16.7742 212.987 17.0005 299.035 17.0005 299.035L28.6122 299.588C28.6122 299.588 37.891 231.218 42.2784 216.591C44.4802 234.369 44.0944 302.352 44.0944 302.352L54.6002 302.905C54.6002 302.905 64.0239 245.015 64.0777 228.023C65.223 215.577 62.4141 197.133 63.6162 185.102C57.8705 186.922 51.823 187.597 45.8173 187.087Z" fill="#2F2E41"/>
<path d="M22.637 140.797C22.1514 140.352 18.1927 117.206 18.2158 116.684C18.277 113.832 26.9798 110.575 28.7216 111.709C30.3648 112.778 33.2262 125.045 35.0676 127.279L37.0156 123.871H52.4978L53.4362 125.613C55.4677 124.389 57.2952 123.261 57.947 122.888C58.171 122.736 58.415 122.616 58.6719 122.531C60.2811 122.172 61.7914 121.462 63.0954 120.453C64.3671 119.474 70.2692 109.226 71.8506 109.497C73.6366 109.796 79.6606 115.003 79.5917 120.001C78.8333 119.985 68.9677 139.708 68.8293 140.443C68.0718 143.55 65.5704 188.859 64.7631 190.971C61.044 190.612 63.9801 189.971 60.3805 190.971C56.5044 192.049 52.4127 190.883 48.4149 190.452C46.7503 190.287 45.078 190.213 43.4053 190.23C37.3231 190.258 28.642 190.595 22.7532 192.105C22.72 188.246 26.1095 179.898 27.3647 176.255C27.5291 175.166 27.5235 174.058 27.3481 172.971C27.1877 171.639 23.95 142.27 22.637 140.797Z" fill="#F0F4FF"/>
</svg>
