<svg width="495" height="463" viewBox="0 0 495 463" fill="none" xmlns="http://www.w3.org/2000/svg">
<path d="M239.984 397.606H112.984V461.606H239.984V397.606Z" fill="white"/>
<path d="M224.979 413.989H127.989V417.277H224.979V413.989Z" fill="#3F3D56"/>
<path d="M224.979 427.962H127.989V431.25H224.979V427.962Z" fill="#3F3D56"/>
<path d="M224.979 441.936H127.989V445.223H224.979V441.936Z" fill="#3F3D56"/>
<path d="M240.984 462.606H111.984V396.606H240.984V462.606ZM113.984 460.606H238.984V398.606H113.984V460.606Z" fill="#3F3D56"/>
<path d="M148.721 318.115C121.834 318.137 95.4746 310.654 72.6096 296.508L72.0288 296.148L72.3879 295.567L148.34 172.645H293.507V173.329C293.507 253.164 228.556 318.115 148.721 318.115Z" fill="#244CC0"/>
<path d="M55.5845 265.922L55.1178 265.633C29.4918 249.788 11.0179 224.614 3.58939 195.415C-3.83913 166.216 0.357944 135.274 15.2961 109.109L15.5685 108.633L116.969 166.576L55.5845 265.922Z" fill="#4E73DF" fill-opacity="0.5"/>
<path d="M293.507 153.252H147.87L179.266 11.0195L179.933 11.1661C212.134 18.2833 240.942 36.177 261.593 61.8886C282.245 87.6002 293.503 119.59 293.507 152.568V153.252Z" fill="#4E73DF"/>
<path d="M124.673 130.85L25.9956 74.4632L26.2608 74.0002C38.2239 53.1024 56.5476 36.5706 78.5621 26.8137C100.577 17.0568 125.132 14.5845 148.649 19.7572L149.17 19.8718L124.673 130.85Z" fill="#4E73DF" fill-opacity="0.5"/>
<path d="M493.988 1H366.988V65H493.988V1Z" fill="white"/>
<path d="M478.983 17.3828H381.993V20.6706H478.983V17.3828Z" fill="#3F3D56"/>
<path d="M478.983 31.3564H381.993V34.6443H478.983V31.3564Z" fill="#3F3D56"/>
<path d="M478.983 45.3291H381.993V48.6169H478.983V45.3291Z" fill="#3F3D56"/>
<path d="M494.988 66H365.988V0H494.988V66ZM367.988 64H492.988V2H367.988V64Z" fill="#3F3D56"/>
<path d="M177.755 231.969H175.755V396.606H177.755V231.969Z" fill="#3F3D56"/>
<path d="M366.494 34.0745L216.353 101.984L217.177 103.806L367.318 35.8968L366.494 34.0745Z" fill="#3F3D56"/>
</svg>
