<svg width="24" height="25" viewBox="0 0 24 25" fill="none" xmlns="http://www.w3.org/2000/svg">
<g id="ant-design:setting-outlined">
<path id="Vector" d="M21.6748 15.1648L20.1397 13.8523C20.2123 13.407 20.2498 12.9523 20.2498 12.4976C20.2498 12.0429 20.2123 11.5883 20.1397 11.1429L21.6748 9.83044C21.7906 9.73132 21.8735 9.59929 21.9124 9.45193C21.9513 9.30456 21.9445 9.14883 21.8928 9.00544L21.8717 8.94451C21.4491 7.76332 20.8162 6.66834 20.0037 5.71248L19.9615 5.66326C19.863 5.54736 19.7316 5.46405 19.5847 5.42431C19.4379 5.38456 19.2824 5.39024 19.1389 5.4406L17.2334 6.11794C16.5303 5.54138 15.7451 5.08669 14.8967 4.76794L14.5287 2.77576C14.501 2.62586 14.4282 2.48795 14.3202 2.38036C14.2122 2.27277 14.074 2.20059 13.924 2.17341L13.8607 2.16169C12.6397 1.94138 11.3553 1.94138 10.1342 2.16169L10.0709 2.17341C9.9209 2.20059 9.78271 2.27277 9.6747 2.38036C9.56669 2.48795 9.49398 2.62586 9.46622 2.77576L9.0959 4.77732C8.25424 5.09614 7.47043 5.55058 6.77559 6.12263L4.85606 5.4406C4.71254 5.38984 4.55698 5.38395 4.41003 5.42372C4.26309 5.4635 4.13173 5.54704 4.0334 5.66326L3.99122 5.71248C3.17968 6.66902 2.54694 7.76381 2.12325 8.94451L2.10215 9.00544C1.99668 9.29841 2.0834 9.62654 2.32012 9.83044L3.87403 11.157C3.80137 11.5976 3.76622 12.0476 3.76622 12.4953C3.76622 12.9453 3.80137 13.3953 3.87403 13.8336L2.32012 15.1601C2.20433 15.2593 2.12146 15.3913 2.08252 15.5387C2.04359 15.686 2.05043 15.8418 2.10215 15.9851L2.12325 16.0461C2.54747 17.2273 3.17559 18.3172 3.99122 19.2781L4.0334 19.3273C4.13197 19.4432 4.26333 19.5265 4.41019 19.5663C4.55704 19.606 4.7125 19.6003 4.85606 19.55L6.77559 18.8679C7.47403 19.4422 8.2545 19.8969 9.0959 20.2133L9.46622 22.2148C9.49398 22.3647 9.56669 22.5026 9.6747 22.6102C9.78271 22.7178 9.9209 22.79 10.0709 22.8172L10.1342 22.8289C11.3665 23.0504 12.6284 23.0504 13.8607 22.8289L13.924 22.8172C14.074 22.79 14.2122 22.7178 14.3202 22.6102C14.4282 22.5026 14.501 22.3647 14.5287 22.2148L14.8967 20.2226C15.7448 19.9047 16.5344 19.4485 17.2334 18.8726L19.1389 19.55C19.2824 19.6007 19.438 19.6066 19.5849 19.5669C19.7318 19.5271 19.8632 19.4435 19.9615 19.3273L20.0037 19.2781C20.8193 18.3148 21.4475 17.2273 21.8717 16.0461L21.8928 15.9851C21.9982 15.6969 21.9115 15.3687 21.6748 15.1648ZM18.4756 11.4195C18.5342 11.7734 18.5647 12.1367 18.5647 12.5C18.5647 12.8633 18.5342 13.2265 18.4756 13.5804L18.3209 14.5203L20.0717 16.0179C19.8063 16.6294 19.4712 17.2082 19.0732 17.7429L16.8982 16.9719L16.1623 17.5765C15.6022 18.0359 14.9787 18.3969 14.3037 18.65L13.4107 18.9851L12.9912 21.2586C12.3293 21.3336 11.661 21.3336 10.999 21.2586L10.5795 18.9804L9.69356 18.6406C9.02559 18.3875 8.4045 18.0265 7.84903 17.5695L7.11309 16.9625L4.92403 17.7406C4.52559 17.2039 4.19278 16.625 3.92559 16.0156L5.69512 14.5039L5.54278 13.5664C5.48653 13.2172 5.45606 12.8562 5.45606 12.5C5.45606 12.1414 5.48418 11.7828 5.54278 11.4336L5.69512 10.4961L3.92559 8.98435C4.19043 8.37263 4.52559 7.79607 4.92403 7.25935L7.11309 8.03748L7.84903 7.43044C8.4045 6.97341 9.02559 6.61248 9.69356 6.35935L10.5818 6.02419L11.0014 3.74607C11.66 3.67107 12.3326 3.67107 12.9936 3.74607L13.4131 6.01951L14.3061 6.35466C14.9787 6.60779 15.6045 6.96873 16.1647 7.4281L16.9006 8.03279L19.0756 7.26169C19.474 7.79841 19.8068 8.37732 20.074 8.98669L18.3232 10.4844L18.4756 11.4195ZM11.9998 8.1406C9.72168 8.1406 7.87481 9.98748 7.87481 12.2656C7.87481 14.5437 9.72168 16.3906 11.9998 16.3906C14.2779 16.3906 16.1248 14.5437 16.1248 12.2656C16.1248 9.98748 14.2779 8.1406 11.9998 8.1406ZM13.8561 14.1219C13.6126 14.366 13.3233 14.5596 13.0047 14.6916C12.6861 14.8235 12.3446 14.8911 11.9998 14.8906C11.299 14.8906 10.6404 14.6164 10.1436 14.1219C9.8994 13.8784 9.70578 13.589 9.57385 13.2705C9.44192 12.9519 9.37427 12.6104 9.37481 12.2656C9.37481 11.5648 9.64903 10.9062 10.1436 10.4094C10.6404 9.91248 11.299 9.6406 11.9998 9.6406C12.7006 9.6406 13.3592 9.91248 13.8561 10.4094C14.1002 10.6528 14.2938 10.9422 14.4258 11.2607C14.5577 11.5793 14.6253 11.9208 14.6248 12.2656C14.6248 12.9664 14.3506 13.625 13.8561 14.1219Z" fill="#545454"/>
</g>
</svg>
