<svg width="198" height="259" viewBox="0 0 198 259" fill="none" xmlns="http://www.w3.org/2000/svg">
<g filter="url(#filter0_d_482_1577)">
<g clip-path="url(#clip0_482_1577)">
<path d="M15.6082 37.0014C8.61253 43.383 20.9553 90.6475 34.6204 103.583L86.9992 56.8176C74.0071 44.5856 22.2428 31.1353 15.6082 37.0014Z" fill="#EAF0FF"/>
<path d="M31.9652 52.7485C28.9448 55.3965 35.2691 86.8515 43.8102 95.178L77.3441 65.3319C69.3721 57.3021 34.8051 50.3583 31.9652 52.7485Z" fill="black"/>
<path d="M143.509 6.92845C152.792 9.48261 164.669 56.8564 159.033 74.3297L90.0222 56.107C95.4013 39.5554 134.795 4.6711 143.509 6.92845Z" fill="#EAF0FF"/>
<path d="M136.611 28.1432C140.567 29.1508 150.147 59.8403 146.596 71.01L102.227 59.4812C105.649 48.7722 132.94 27.284 136.611 28.1432Z" fill="black"/>
<path d="M84.7589 44.2106C21.7386 59.0285 30.9967 102.887 36.714 125.226C39.0528 134.365 72.9659 156.117 111.104 147.149C149.241 138.182 172.373 103.018 170.034 93.879C164.317 71.5395 147.779 29.3928 84.7589 44.2106Z" fill="#EAF0FF"/>
<path d="M80.9415 97.3655C80.9415 97.3655 76.8326 90.4235 62.9166 92.6255C49.0006 94.8274 44.804 103.073 44.804 103.073C44.804 103.073 47.2503 91.1687 61.1663 88.9667C75.3024 86.676 80.9415 97.3655 80.9415 97.3655Z" fill="black"/>
<path d="M113.49 89.1397C113.49 89.1397 116.297 80.6065 129.83 76.7772C143.362 72.9479 148.626 79.1858 148.626 79.1858C148.626 79.1858 141.085 69.4764 127.552 73.3057C113.782 77.1469 113.49 89.1397 113.49 89.1397Z" fill="black"/>
<path d="M110.375 99.5095C107.995 97.9161 102.129 99.0799 100.501 99.4627C98.8732 99.8454 93.1115 101.415 91.7709 103.884C90.7394 105.633 92.8377 109.016 97.1055 111.242C99.9508 112.726 102.2 112.843 103.827 112.46C105.455 112.077 107.625 110.921 109.198 108.398C111.855 104.329 112.134 100.603 110.375 99.5095Z" fill="black"/>
</g>
<path d="M118.624 247.781C158.386 247.781 190.619 216.885 190.619 178.773C190.619 140.661 158.386 109.765 118.624 109.765C78.8615 109.765 46.6279 140.661 46.6279 178.773C46.6279 216.885 78.8615 247.781 118.624 247.781Z" fill="#4E73DF"/>
<path d="M118.623 250.645C98.594 250.645 79.7642 243.169 65.6015 229.594C51.4388 216.02 43.6396 197.971 43.6396 178.773C43.6396 159.576 51.4391 141.527 65.6015 127.952C79.7639 114.377 98.594 106.901 118.623 106.901C138.651 106.901 157.481 114.377 171.644 127.952C185.807 141.527 193.606 159.576 193.606 178.773C193.606 197.971 185.806 216.019 171.644 229.594C157.482 243.169 138.651 250.645 118.623 250.645ZM118.623 112.628C80.5715 112.628 49.6143 142.301 49.6143 178.773C49.6143 215.245 80.5715 244.918 118.623 244.918C156.674 244.918 187.631 215.245 187.631 178.773C187.631 142.301 156.674 112.628 118.623 112.628Z" fill="#4D4D4D"/>
<path d="M176.726 201.967C176.386 201.967 176.041 201.911 175.704 201.793C174.154 201.252 173.355 199.608 173.92 198.123C176.774 190.612 177.943 182.413 177.299 174.411C177.172 172.834 178.403 171.458 180.048 171.336C181.695 171.21 183.129 172.394 183.256 173.971C183.965 182.781 182.677 191.81 179.533 200.083C179.092 201.245 177.946 201.967 176.726 201.967Z" fill="#4D4D4D"/>
<path d="M178.249 165.889C176.937 165.889 175.734 165.054 175.37 163.783C175.135 162.964 174.878 162.139 174.604 161.33C174.096 159.826 174.956 158.211 176.525 157.723C178.094 157.236 179.779 158.06 180.288 159.565C180.589 160.455 180.873 161.364 181.131 162.266C181.568 163.791 180.633 165.367 179.042 165.786C178.776 165.855 178.51 165.889 178.249 165.889Z" fill="#4D4D4D"/>
<path d="M175.2 131.542C173.356 133.896 170.988 135.499 168.67 136.202C166.351 136.906 164.124 136.702 162.478 135.517C160.832 134.333 160.006 132.34 160.063 130.009C160.121 127.679 161.066 125.052 162.91 122.698C164.753 120.344 167.121 118.741 169.44 118.038C171.759 117.334 173.986 117.538 175.632 118.722C177.278 119.907 178.104 121.9 178.046 124.231C177.989 126.561 177.044 129.188 175.2 131.542Z" fill="#EAF0FF" stroke="#4D4D4D"/>
<path d="M147.914 115.905C146.976 118.704 145.287 120.959 143.338 122.349C141.389 123.74 139.211 124.249 137.245 123.643C135.278 123.038 133.817 121.409 133.077 119.19C132.337 116.972 132.333 114.196 133.271 111.397C134.209 108.598 135.898 106.343 137.847 104.953C139.797 103.562 141.974 103.054 143.941 103.659C145.907 104.264 147.369 105.893 148.109 108.112C148.849 110.33 148.852 113.106 147.914 115.905Z" fill="#EAF0FF" stroke="#4D4D4D"/>
<path d="M158.385 117.269C157.059 119.921 155.067 121.937 152.938 123.062C150.809 124.187 148.581 124.407 146.721 123.553C144.86 122.698 143.642 120.896 143.223 118.601C142.803 116.307 143.192 113.555 144.517 110.903C145.843 108.25 147.836 106.235 149.964 105.11C152.093 103.985 154.321 103.765 156.182 104.619C158.042 105.473 159.26 107.275 159.68 109.57C160.1 111.865 159.71 114.616 158.385 117.269Z" fill="#E4EAF8" stroke="#4D4D4D"/>
<path d="M170.208 122.696C168.883 125.349 166.89 127.364 164.761 128.489C162.633 129.614 160.405 129.834 158.544 128.98C156.683 128.126 155.466 126.324 155.046 124.029C154.626 121.734 155.015 118.982 156.341 116.33C157.666 113.677 159.659 111.662 161.787 110.537C163.916 109.412 166.144 109.192 168.005 110.046C169.866 110.9 171.083 112.702 171.503 114.997C171.923 117.292 171.534 120.043 170.208 122.696Z" fill="#EAF0FF" stroke="#4D4D4D"/>
<g clip-path="url(#clip1_482_1577)">
<path d="M119.107 231.705C124.238 231.705 128.398 227.545 128.398 222.414C128.398 217.283 124.238 213.124 119.107 213.124C113.976 213.124 109.816 217.283 109.816 222.414C109.816 227.545 113.976 231.705 119.107 231.705Z" fill="#EAF0FF"/>
<path d="M113.863 202.76H124.352C126.586 202.76 128.397 200.949 128.397 198.714V152.142C128.397 149.908 126.586 148.097 124.352 148.097H113.863C111.629 148.097 109.817 149.908 109.817 152.142V198.715C109.817 200.949 111.629 202.76 113.863 202.76Z" fill="#EAF0FF"/>
<path d="M119.107 233.439C113.028 233.439 108.083 228.494 108.083 222.415C108.083 216.336 113.028 211.39 119.107 211.39C125.186 211.39 130.131 216.336 130.131 222.415C130.131 228.494 125.186 233.439 119.107 233.439ZM119.107 214.86C114.941 214.86 111.552 218.249 111.552 222.415C111.552 226.581 114.941 229.97 119.107 229.97C123.273 229.97 126.662 226.581 126.662 222.415C126.662 218.249 123.273 214.86 119.107 214.86Z" fill="#4D4D4D"/>
<path d="M124.351 204.495H113.863C110.675 204.495 108.083 201.902 108.083 198.714V152.142C108.083 148.955 110.676 146.362 113.863 146.362H124.352C127.539 146.362 130.132 148.955 130.132 152.142V198.714C130.132 201.902 127.538 204.495 124.351 204.495ZM113.863 149.831C112.589 149.831 111.552 150.868 111.552 152.142V198.714C111.552 199.988 112.589 201.025 113.863 201.025H124.352C125.626 201.025 126.662 199.988 126.662 198.714V152.142C126.662 150.868 125.626 149.831 124.352 149.831L113.863 149.831Z" fill="#4D4D4D"/>
<path d="M115.291 198.921C114.333 198.921 113.557 198.144 113.557 197.186V175.33C113.557 174.372 114.333 173.595 115.291 173.595C116.249 173.595 117.026 174.372 117.026 175.33V197.186C117.026 198.144 116.249 198.921 115.291 198.921Z" fill="#4D4D4D"/>
<path d="M115.291 171.861C114.333 171.861 113.557 171.084 113.557 170.126V168.738C113.557 167.781 114.333 167.004 115.291 167.004C116.249 167.004 117.026 167.781 117.026 168.738V170.126C117.026 171.084 116.249 171.861 115.291 171.861Z" fill="#4D4D4D"/>
</g>
<path d="M77.5426 124.128C79.1426 126.613 79.8161 129.302 79.6333 131.628C79.4505 133.955 78.4193 135.878 76.6528 136.934C74.8863 137.99 72.6396 138.025 70.3942 137.149C68.1497 136.274 65.948 134.498 64.3479 132.013C62.7478 129.528 62.0744 126.839 62.2571 124.513C62.4399 122.186 63.4712 120.263 65.2377 119.207C67.0041 118.151 69.2508 118.116 71.4962 118.992C73.7407 119.867 75.9425 121.643 77.5426 124.128Z" fill="#EAF0FF" stroke="#4D4D4D"/>
<path d="M52.4259 142.824C54.7934 144.664 56.3515 146.987 56.9733 149.235C57.5955 151.485 57.274 153.617 55.9621 155.162C54.6503 156.706 52.5343 157.444 50.105 157.322C47.6768 157.2 44.9811 156.217 42.6136 154.377C40.2461 152.537 38.688 150.214 38.0662 147.966C37.444 145.716 37.7655 143.584 39.0774 142.04C40.3892 140.495 42.5052 139.758 44.9346 139.879C47.3627 140.001 50.0584 140.985 52.4259 142.824Z" fill="#EAF0FF" stroke="#4D4D4D"/>
<path d="M57.5541 133.968C59.6363 136.101 60.8497 138.607 61.1473 140.918C61.4451 143.23 60.826 145.304 59.3089 146.667C57.7919 148.029 55.5935 148.486 53.2073 148.049C50.8222 147.613 48.2942 146.287 46.212 144.155C44.1298 142.022 42.9163 139.516 42.6187 137.204C42.321 134.892 42.9401 132.818 44.4571 131.456C45.9742 130.093 48.1726 129.637 50.5588 130.073C52.9438 130.51 55.4718 131.835 57.5541 133.968Z" fill="#E4EAF8" stroke="#4D4D4D"/>
<path d="M67.1219 125.379C69.2042 127.511 70.4176 130.018 70.7152 132.329C71.013 134.641 70.3938 136.715 68.8768 138.078C67.3598 139.44 65.1613 139.897 62.7751 139.46C60.3901 139.024 57.8621 137.698 55.7799 135.565C53.6976 133.433 52.4842 130.926 52.1866 128.615C51.8888 126.303 52.5079 124.229 54.025 122.866C55.542 121.504 57.7405 121.047 60.1266 121.484C62.5117 121.92 65.0397 123.246 67.1219 125.379Z" fill="#EAF0FF" stroke="#4D4D4D"/>
</g>
<defs>
<filter id="filter0_d_482_1577" x="0" y="0" width="197.606" height="258.645" filterUnits="userSpaceOnUse" color-interpolation-filters="sRGB">
<feFlood flood-opacity="0" result="BackgroundImageFix"/>
<feColorMatrix in="SourceAlpha" type="matrix" values="0 0 0 0 0 0 0 0 0 0 0 0 0 0 0 0 0 0 127 0" result="hardAlpha"/>
<feOffset dy="4"/>
<feGaussianBlur stdDeviation="2"/>
<feComposite in2="hardAlpha" operator="out"/>
<feColorMatrix type="matrix" values="0 0 0 0 0 0 0 0 0 0 0 0 0 0 0 0 0 0 0.25 0"/>
<feBlend mode="normal" in2="BackgroundImageFix" result="effect1_dropShadow_482_1577"/>
<feBlend mode="normal" in="SourceGraphic" in2="effect1_dropShadow_482_1577" result="shape"/>
</filter>
<clipPath id="clip0_482_1577">
<rect width="152.889" height="134.164" fill="white" transform="matrix(0.973453 -0.228886 0.247935 0.968777 4 34.9941)"/>
</clipPath>
<clipPath id="clip1_482_1577">
<rect width="87.0771" height="87.0771" fill="white" transform="translate(75.5684 146.362)"/>
</clipPath>
</defs>
</svg>
