<svg width="237" height="214" viewBox="0 0 237 214" fill="none" xmlns="http://www.w3.org/2000/svg">
<g id="undraw_hiring_re_yk5n 1" clip-path="url(#clip0_146_968)">
<path id="Vector" d="M103.396 176.615H4.92501C3.68529 176.614 2.49675 176.122 1.62013 175.248C0.743515 174.373 0.250419 173.187 0.249023 171.951V38.5946C0.250419 37.3579 0.743515 36.1722 1.62013 35.2977C2.49675 34.4232 3.68529 33.9313 4.92501 33.9299H103.396C104.636 33.9313 105.824 34.4232 106.701 35.2977C107.577 36.1722 108.07 37.3579 108.072 38.5946V171.951C108.07 173.187 107.577 174.373 106.701 175.248C105.824 176.122 104.636 176.614 103.396 176.615Z" fill="white"/>
<path id="Vector_2" d="M49.7215 68.6362C49.7215 72.4876 48.5002 76.2404 46.2323 79.3573C43.9643 82.4742 40.7661 84.7955 37.0954 85.9889C36.9856 86.0237 36.8759 86.0586 36.7645 86.0917C36.289 86.2377 35.8068 86.3621 35.3163 86.4682C34.4286 86.6604 33.5277 86.7851 32.6211 86.8414C32.2272 86.868 31.8309 86.8812 31.4324 86.8812C29.3733 86.8833 27.3288 86.5378 25.3853 85.8595C25.3288 85.8396 25.2723 85.8197 25.2174 85.7998C22.0685 84.6653 19.2921 82.6903 17.1908 80.0901C15.0895 77.4899 13.7439 74.3643 13.3007 71.0538C12.8574 67.7432 13.3335 64.3748 14.677 61.3156C16.0205 58.2564 18.18 55.6238 20.92 53.7045C23.6601 51.7853 26.8756 50.6531 30.2162 50.4314C33.5568 50.2096 36.8944 50.9068 39.8651 52.447C42.8359 53.9871 45.326 56.3112 47.064 59.1658C48.802 62.0205 49.7212 65.2962 49.7215 68.6362Z" fill="white"/>
<path id="Vector_3" d="M30.9941 80.7243C35.9085 80.7243 39.8924 76.75 39.8924 71.8474C39.8924 66.9448 35.9085 62.9705 30.9941 62.9705C26.0796 62.9705 22.0957 66.9448 22.0957 71.8474C22.0957 76.75 26.0796 80.7243 30.9941 80.7243Z" fill="#A0616A"/>
<path id="Vector_4" d="M33.5222 84.2573C33.5458 84.1483 33.5581 84.0371 33.5588 83.9256C33.5581 83.5079 33.3915 83.1075 33.0955 82.8121C32.7994 82.5167 32.398 82.3505 31.9793 82.3499H29.6516C29.2328 82.3502 28.8312 82.5164 28.5351 82.8118C28.239 83.1072 28.0724 83.5078 28.0721 83.9256C28.072 84.0377 28.0842 84.1495 28.1086 84.259C27.2299 84.5352 26.3993 84.9453 25.6463 85.4747C25.4999 85.5759 25.3553 85.6854 25.2173 85.7998C25.2722 85.8197 25.3287 85.8396 25.3852 85.8595C27.3287 86.5378 29.3732 86.8833 31.4323 86.8813C31.8313 86.8813 32.2275 86.868 32.621 86.8414C33.5276 86.7851 34.4285 86.6604 35.3162 86.4683C35.8067 86.3621 36.2889 86.2377 36.7643 86.0917C35.8236 85.2615 34.7193 84.6367 33.5222 84.2573Z" fill="#2F2E41"/>
<path id="Vector_5" d="M33.223 86.6308C33.0072 86.6467 32.7995 86.7194 32.6211 86.8415C33.5276 86.7852 34.4286 86.6604 35.3162 86.4683L33.223 86.6308Z" fill="#2F2E41"/>
<path id="Vector_6" d="M39.0643 69.7385L23.606 64.097C23.4404 64.0366 23.3056 63.9129 23.2313 63.7533C23.157 63.5938 23.1493 63.4113 23.2099 63.246L23.2622 62.9994C24.4695 59.7072 28.471 57.6354 31.771 58.8397L36.5279 60.5757C39.828 61.7801 41.2622 65.6784 40.055 68.9705L39.9174 69.3434C39.8568 69.5086 39.7328 69.6431 39.5729 69.7172C39.4129 69.7913 39.23 69.7989 39.0643 69.7385Z" fill="#2F2E41"/>
<path id="Vector_7" d="M39.8969 70.0516C18.3511 70.8447 16.4684 68.1441 23.0333 63.8973L24.426 61.3408L40.3874 67.1461L39.8969 70.0516Z" fill="#2F2E41"/>
<path id="Vector_8" d="M35.6722 60.1709C35.7912 59.7761 35.2817 59.2744 34.5342 59.0502C33.7867 58.8261 33.0843 58.9644 32.9654 59.3592C32.8464 59.7539 33.356 60.2557 34.1034 60.4798C34.8509 60.704 35.5533 60.5657 35.6722 60.1709Z" fill="#2F2E41"/>
<path id="Vector_9" d="M31.4323 87.3787C29.3171 87.381 27.2167 87.0261 25.2203 86.329L25.0467 86.2673C20.8648 84.7597 17.3545 81.8212 15.14 77.9746C12.9255 74.1279 12.1504 69.6224 12.9526 65.2593C13.7547 60.8962 16.0821 56.9583 19.5208 54.146C22.9595 51.3336 27.2867 49.8292 31.7327 49.9001C36.1788 49.971 40.4555 51.6128 43.8023 54.5334C47.1491 57.454 49.3491 61.4641 50.0109 65.8506C50.6728 70.237 49.7537 74.7155 47.417 78.4896C45.0803 82.2636 41.4776 85.0885 37.2495 86.462C37.1313 86.4995 37.0201 86.5347 36.9071 86.5684C36.4348 86.7134 35.9338 86.8436 35.4219 86.9543C34.5095 87.1517 33.5835 87.2799 32.6517 87.3379C32.2514 87.365 31.8401 87.3787 31.4323 87.3787ZM31.4323 50.8886C27.2459 50.8892 23.1938 52.3623 19.9887 55.0489C16.7835 57.7355 14.6306 61.4634 13.9086 65.5771C13.1865 69.6908 13.9416 73.9267 16.041 77.5399C18.1404 81.1531 21.4496 83.9121 25.3867 85.3317L25.5514 85.3902C27.4415 86.05 29.4299 86.3859 31.4323 86.3835C31.8178 86.3835 32.2064 86.3705 32.5874 86.3448C33.4698 86.2899 34.3467 86.1686 35.2108 85.9818C35.6949 85.877 36.1684 85.7539 36.6177 85.6161C36.729 85.5829 36.8346 85.5494 36.9402 85.5158C40.9672 84.2074 44.3943 81.5088 46.6054 77.9053C48.8165 74.3017 49.6666 70.0296 49.0028 65.8568C48.3391 61.684 46.205 57.8842 42.9843 55.1405C39.7636 52.3968 35.6675 50.8892 31.4323 50.8886Z" fill="#2F2E41"/>
<path id="Vector_10" d="M103.396 176.615H4.92501C3.68529 176.614 2.49675 176.122 1.62013 175.248C0.743515 174.373 0.250419 173.187 0.249023 171.951V38.5946C0.250419 37.3579 0.743515 36.1722 1.62013 35.2977C2.49675 34.4232 3.68529 33.9313 4.92501 33.9299H103.396C104.636 33.9313 105.824 34.4232 106.701 35.2977C107.577 36.1722 108.07 37.3579 108.072 38.5946V171.951C108.07 173.187 107.577 174.373 106.701 175.248C105.824 176.122 104.636 176.614 103.396 176.615ZM4.92501 34.4787C3.83114 34.48 2.78244 34.914 2.00895 35.6856C1.23547 36.4572 0.80038 37.5034 0.79914 38.5946V171.951C0.800379 173.042 1.23546 174.088 2.00894 174.86C2.78243 175.631 3.83114 176.065 4.92501 176.067H103.396C104.49 176.065 105.538 175.631 106.312 174.86C107.085 174.088 107.52 173.042 107.522 171.951V38.5946C107.52 37.5034 107.085 36.4572 106.312 35.6856C105.538 34.914 104.49 34.48 103.396 34.4787H4.92501Z" fill="#3F3D56"/>
<path id="Vector_11" d="M84.3331 68.5651H56.4692C55.885 68.5643 55.3251 68.3323 54.9123 67.92C54.4995 67.5077 54.2676 66.9488 54.2676 66.366C54.2676 65.7833 54.4995 65.2244 54.9123 64.812C55.3251 64.3997 55.885 64.1677 56.4692 64.167H84.3331C84.6228 64.1666 84.9097 64.2232 85.1775 64.3336C85.4452 64.444 85.6885 64.6059 85.8935 64.8101C86.0985 65.0143 86.2611 65.2569 86.3721 65.5239C86.483 65.7908 86.5401 66.077 86.5401 66.366C86.5401 66.655 86.483 66.9412 86.3721 67.2082C86.2611 67.4752 86.0985 67.7177 85.8935 67.9219C85.6885 68.1262 85.4452 68.2881 85.1775 68.3985C84.9097 68.5088 84.6228 68.5654 84.3331 68.5651Z" fill="#3F3D56"/>
<path id="Vector_12" d="M93.426 75.9869H56.4692C55.885 75.9862 55.3251 75.7542 54.9123 75.3419C54.4995 74.9296 54.2676 74.3707 54.2676 73.7879C54.2676 73.2052 54.4995 72.6462 54.9123 72.2339C55.3251 71.8216 55.885 71.5896 56.4692 71.5889H93.426C94.0101 71.5896 94.5701 71.8216 94.9829 72.2339C95.3957 72.6462 95.6276 73.2052 95.6276 73.7879C95.6276 74.3707 95.3957 74.9296 94.9829 75.3419C94.5701 75.7542 94.0101 75.9862 93.426 75.9869Z" fill="#E6E6E6"/>
<path id="Vector_13" d="M84.2925 104.452H14.8948C14.6051 104.453 14.3182 104.396 14.0504 104.286C13.7827 104.175 13.5393 104.013 13.3343 103.809C13.1294 103.605 12.9667 103.362 12.8558 103.095C12.7448 102.828 12.6877 102.542 12.6877 102.253C12.6877 101.964 12.7448 101.678 12.8558 101.411C12.9667 101.144 13.1294 100.902 13.3343 100.697C13.5393 100.493 13.7827 100.331 14.0504 100.221C14.3182 100.11 14.6051 100.054 14.8948 100.054H84.2925C84.8766 100.055 85.4366 100.287 85.8494 100.699C86.2622 101.112 86.4941 101.67 86.4941 102.253C86.4941 102.836 86.2622 103.395 85.8494 103.807C85.4366 104.22 84.8766 104.452 84.2925 104.452Z" fill="#E6E6E6"/>
<path id="Vector_14" d="M93.3854 111.874H14.8948C14.6051 111.875 14.3182 111.818 14.0504 111.708C13.7827 111.597 13.5393 111.435 13.3343 111.231C13.1294 111.027 12.9667 110.784 12.8558 110.517C12.7448 110.25 12.6877 109.964 12.6877 109.675C12.6877 109.386 12.7448 109.1 12.8558 108.833C12.9667 108.566 13.1294 108.323 13.3343 108.119C13.5393 107.915 13.7827 107.753 14.0504 107.643C14.3182 107.532 14.6051 107.476 14.8948 107.476H93.3854C93.6751 107.476 93.962 107.532 94.2298 107.643C94.4976 107.753 94.7409 107.915 94.9459 108.119C95.1509 108.323 95.3135 108.566 95.4244 108.833C95.5354 109.1 95.5925 109.386 95.5925 109.675C95.5925 109.964 95.5354 110.25 95.4244 110.517C95.3135 110.784 95.1509 111.027 94.9459 111.231C94.7409 111.435 94.4976 111.597 94.2298 111.708C93.962 111.818 93.6751 111.875 93.3854 111.874Z" fill="#E6E6E6"/>
<path id="Vector_15" d="M84.2924 128.932H14.8948C14.3101 128.932 13.7495 128.7 13.3361 128.288C12.9227 127.876 12.6904 127.316 12.6904 126.733C12.6904 126.15 12.9227 125.59 13.3361 125.178C13.7495 124.766 14.3101 124.534 14.8948 124.534H84.2924C84.877 124.534 85.4377 124.766 85.8511 125.178C86.2645 125.59 86.4968 126.15 86.4968 126.733C86.4968 127.316 86.2645 127.876 85.8511 128.288C85.4377 128.7 84.877 128.932 84.2924 128.932Z" fill="#E6E6E6"/>
<path id="Vector_16" d="M93.3853 136.354H14.8948C14.3101 136.354 13.7495 136.122 13.3361 135.71C12.9227 135.297 12.6904 134.738 12.6904 134.155C12.6904 133.572 12.9227 133.012 13.3361 132.6C13.7495 132.188 14.3101 131.956 14.8948 131.956H93.3853C93.97 131.956 94.5307 132.188 94.9441 132.6C95.3575 133.012 95.5897 133.572 95.5897 134.155C95.5897 134.738 95.3575 135.297 94.9441 135.71C94.5307 136.122 93.97 136.354 93.3853 136.354Z" fill="#E6E6E6"/>
<path id="Vector_17" d="M84.2924 153.412H14.8948C14.3101 153.412 13.7495 153.18 13.3361 152.768C12.9227 152.355 12.6904 151.796 12.6904 151.213C12.6904 150.629 12.9227 150.07 13.3361 149.658C13.7495 149.245 14.3101 149.014 14.8948 149.014H84.2924C84.877 149.014 85.4377 149.245 85.8511 149.658C86.2645 150.07 86.4968 150.629 86.4968 151.213C86.4968 151.796 86.2645 152.355 85.8511 152.768C85.4377 153.18 84.877 153.412 84.2924 153.412Z" fill="#E6E6E6"/>
<path id="Vector_18" d="M93.3853 160.834H14.8948C14.3101 160.834 13.7495 160.602 13.3361 160.19C12.9227 159.777 12.6904 159.218 12.6904 158.635C12.6904 158.051 12.9227 157.492 13.3361 157.08C13.7495 156.667 14.3101 156.436 14.8948 156.436H93.3853C93.97 156.436 94.5307 156.667 94.9441 157.08C95.3575 157.492 95.5897 158.051 95.5897 158.635C95.5897 159.218 95.3575 159.777 94.9441 160.19C94.5307 160.602 93.97 160.834 93.3853 160.834Z" fill="#E6E6E6"/>
<path id="Vector_19" d="M231.573 143.139L133.102 143.139C131.863 143.138 130.674 142.646 129.797 141.771C128.921 140.897 128.428 139.711 128.426 138.474L128.426 5.11841C128.428 3.88168 128.921 2.696 129.797 1.8215C130.674 0.946994 131.863 0.455083 133.102 0.45369L231.573 0.453613C232.813 0.455004 234.001 0.946908 234.878 1.82141C235.755 2.69591 236.248 3.88159 236.249 5.11833L236.249 138.474C236.248 139.711 235.755 140.897 234.878 141.771C234.001 142.646 232.813 143.138 231.573 143.139Z" fill="white"/>
<path id="Vector_20" d="M231.573 143.139L133.102 143.139C131.863 143.138 130.674 142.646 129.797 141.771C128.921 140.897 128.428 139.711 128.426 138.474L128.426 5.11841C128.428 3.88168 128.921 2.696 129.797 1.8215C130.674 0.946994 131.863 0.455083 133.102 0.45369L231.573 0.453613C232.813 0.455004 234.001 0.946908 234.878 1.82141C235.755 2.69591 236.248 3.88159 236.249 5.11833L236.249 138.474C236.248 139.711 235.755 140.897 234.878 141.771C234.001 142.646 232.813 143.138 231.573 143.139ZM133.102 1.00248C132.008 1.00372 130.96 1.43776 130.186 2.20938C129.413 2.981 128.978 4.02718 128.976 5.11841L128.976 138.474C128.978 139.566 129.413 140.612 130.186 141.383C130.96 142.155 132.008 142.589 133.102 142.59L231.573 142.59C232.667 142.589 233.716 142.155 234.489 141.383C235.263 140.612 235.698 139.566 235.699 138.474L235.699 5.11833C235.698 4.0271 235.263 2.98091 234.489 2.2093C233.716 1.43768 232.667 1.00364 231.573 1.0024L133.102 1.00248Z" fill="#3F3D56"/>
<path id="Vector_21" d="M177.945 34.9782C177.945 38.5867 176.872 42.1142 174.862 45.1146C172.853 48.115 169.996 50.4535 166.654 51.8345C163.312 53.2154 159.635 53.5767 156.087 52.8727C152.54 52.1687 149.281 50.4311 146.723 47.8794C144.165 45.3278 142.423 42.0769 141.718 38.5377C141.012 34.9985 141.374 31.33 142.758 27.9962C144.143 24.6623 146.487 21.8128 149.494 19.808C152.502 17.8032 156.038 16.7332 159.655 16.7332C164.505 16.7347 169.157 18.6574 172.586 22.0787C176.016 25.5 177.943 30.1398 177.945 34.9782Z" fill="white"/>
<path id="Vector_22" d="M168.108 38.1C167.908 49.7687 150.51 49.7669 150.312 38.0996C150.511 26.4313 167.91 26.4331 168.108 38.1Z" fill="#A0616A"/>
<path id="Vector_23" d="M162.095 50.5113C162.444 48.161 159.685 48.6254 158.226 48.6022C157.99 48.6029 157.758 48.656 157.546 48.7576C157.334 48.8592 157.147 49.0067 156.999 49.1895C156.851 49.3722 156.746 49.5855 156.691 49.8139C156.637 50.0423 156.634 50.28 156.683 50.5096C155.553 50.858 154.506 51.4338 153.608 52.2014C157.393 53.518 161.506 53.5634 165.318 52.3308C164.389 51.4981 163.289 50.8772 162.095 50.5113Z" fill="#2F2E41"/>
<path id="Vector_24" d="M159.656 53.7209C154.933 53.7169 150.385 51.9371 146.919 48.7363C143.453 45.5355 141.324 41.149 140.956 36.4517C140.589 31.7543 142.01 27.0914 144.935 23.3927C147.861 19.6941 152.077 17.2317 156.743 16.4965C161.408 15.7613 166.179 16.8075 170.105 19.4263C174.032 22.0451 176.824 26.0441 177.926 30.6258C179.028 35.2074 178.358 40.035 176.049 44.1457C173.741 48.2564 169.965 51.3481 165.473 52.8042C163.594 53.4137 161.631 53.7231 159.656 53.7209ZM159.656 17.2308C156.136 17.2303 152.696 18.2709 149.77 20.2211C146.843 22.1713 144.562 24.9435 143.215 28.187C141.868 31.4305 141.516 34.9996 142.202 38.443C142.889 41.8864 144.583 45.0494 147.072 47.5319C149.56 50.0144 152.731 51.705 156.183 52.3898C159.634 53.0746 163.212 52.7229 166.463 51.3791C169.715 50.0354 172.494 47.7599 174.449 44.8405C176.403 41.9212 177.447 38.4891 177.446 34.9782C177.441 30.2729 175.565 25.7619 172.23 22.4347C168.894 19.1076 164.372 17.2361 159.656 17.2308Z" fill="#2F2E41"/>
<path id="Vector_25" d="M212.51 35.089L184.646 35.089C184.062 35.089 183.501 34.8573 183.088 34.4449C182.674 34.0325 182.442 33.4732 182.442 32.89C182.442 32.3068 182.674 31.7474 183.088 31.335C183.501 30.9226 184.062 30.6909 184.646 30.6909L212.51 30.6909C213.095 30.6909 213.655 30.9226 214.069 31.335C214.482 31.7474 214.714 32.3067 214.714 32.89C214.714 33.4732 214.482 34.0325 214.069 34.4449C213.655 34.8573 213.095 35.089 212.51 35.089Z" fill="#3F3D56"/>
<path id="Vector_26" d="M221.603 42.5106L184.647 42.5107C184.357 42.511 184.07 42.4544 183.802 42.344C183.534 42.2337 183.291 42.0718 183.086 41.8675C182.881 41.6633 182.718 41.4208 182.608 41.1538C182.497 40.8868 182.439 40.6006 182.439 40.3116C182.439 40.0226 182.497 39.7364 182.608 39.4694C182.718 39.2025 182.881 38.9599 183.086 38.7557C183.291 38.5515 183.534 38.3895 183.802 38.2792C184.07 38.1688 184.357 38.1122 184.647 38.1126L221.603 38.1125C222.188 38.1125 222.749 38.3442 223.162 38.7566C223.575 39.169 223.808 39.7284 223.808 40.3116C223.808 40.8948 223.575 41.4541 223.162 41.8665C222.749 42.2789 222.188 42.5106 221.603 42.5106Z" fill="#E6E6E6"/>
<path id="Vector_27" d="M212.469 70.976L143.072 70.976C142.488 70.9753 141.928 70.7433 141.515 70.331C141.102 69.9186 140.87 69.3597 140.87 68.777C140.87 68.1942 141.102 67.6353 141.515 67.223C141.928 66.8107 142.488 66.5787 143.072 66.5779L212.469 66.5779C213.054 66.5779 213.615 66.8096 214.028 67.222C214.441 67.6344 214.674 68.1937 214.674 68.7769C214.674 69.3601 214.441 69.9195 214.028 70.3319C213.615 70.7443 213.054 70.976 212.469 70.976Z" fill="#E6E6E6"/>
<path id="Vector_28" d="M221.562 78.3978L143.072 78.3979C142.782 78.3983 142.495 78.3416 142.227 78.2313C141.96 78.1209 141.716 77.959 141.511 77.7548C141.306 77.5505 141.144 77.308 141.033 77.041C140.922 76.774 140.865 76.4879 140.865 76.1989C140.865 75.9098 140.922 75.6237 141.033 75.3567C141.144 75.0897 141.306 74.8472 141.511 74.6429C141.716 74.4387 141.96 74.2768 142.227 74.1664C142.495 74.0561 142.782 73.9995 143.072 73.9998L221.562 73.9998C222.147 73.9998 222.708 74.2314 223.121 74.6438C223.535 75.0562 223.767 75.6156 223.767 76.1988C223.767 76.782 223.535 77.3413 223.121 77.7537C222.708 78.1661 222.147 78.3978 221.562 78.3978Z" fill="#E6E6E6"/>
<path id="Vector_29" d="M212.47 95.4559L143.072 95.456C142.488 95.4553 141.928 95.2233 141.515 94.8109C141.102 94.3986 140.871 93.8397 140.871 93.257C140.871 92.6742 141.102 92.1153 141.515 91.703C141.928 91.2906 142.488 91.0586 143.072 91.0579L212.47 91.0579C213.055 91.0579 213.615 91.2895 214.029 91.7019C214.442 92.1143 214.674 92.6737 214.674 93.2569C214.674 93.8401 214.442 94.3994 214.029 94.8118C213.615 95.2242 213.055 95.4559 212.47 95.4559Z" fill="#E6E6E6"/>
<path id="Vector_30" d="M221.562 102.878L143.072 102.878C142.782 102.878 142.495 102.821 142.227 102.711C141.96 102.601 141.716 102.439 141.511 102.235C141.306 102.03 141.144 101.788 141.033 101.521C140.922 101.254 140.865 100.968 140.865 100.679C140.865 100.39 140.922 100.103 141.033 99.8364C141.144 99.5694 141.306 99.3269 141.511 99.1227C141.716 98.9184 141.96 98.7565 142.227 98.6462C142.495 98.5358 142.782 98.4792 143.072 98.4796L221.562 98.4795C222.147 98.4795 222.708 98.7112 223.121 99.1236C223.535 99.536 223.767 100.095 223.767 100.679C223.767 101.262 223.535 101.821 223.121 102.233C222.708 102.646 222.147 102.878 221.562 102.878Z" fill="#E6E6E6"/>
<path id="Vector_31" d="M212.47 119.936L143.072 119.936C142.487 119.936 141.927 119.704 141.513 119.292C141.1 118.879 140.868 118.32 140.868 117.737C140.868 117.153 141.1 116.594 141.513 116.182C141.927 115.769 142.487 115.538 143.072 115.538L212.47 115.538C213.054 115.538 213.615 115.769 214.028 116.182C214.442 116.594 214.674 117.153 214.674 117.737C214.674 118.32 214.442 118.879 214.028 119.292C213.615 119.704 213.054 119.936 212.47 119.936Z" fill="#E6E6E6"/>
<path id="Vector_32" d="M221.563 127.357L143.072 127.357C142.487 127.357 141.927 127.126 141.513 126.713C141.1 126.301 140.868 125.742 140.868 125.158C140.868 124.575 141.1 124.016 141.513 123.603C141.927 123.191 142.487 122.959 143.072 122.959L221.563 122.959C222.147 122.959 222.708 123.191 223.121 123.603C223.535 124.016 223.767 124.575 223.767 125.158C223.767 125.741 223.535 126.301 223.121 126.713C222.708 127.126 222.147 127.357 221.563 127.357Z" fill="#E6E6E6"/>
<path id="Vector_33" d="M172.16 200.488H73.6897C72.4499 200.486 71.2614 199.994 70.3848 199.12C69.5082 198.245 69.0151 197.06 69.0137 195.823V62.467C69.0151 61.2302 69.5082 60.0445 70.3848 59.17C71.2614 58.2955 72.4499 57.8036 73.6897 57.8022H172.16C173.4 57.8036 174.589 58.2955 175.465 59.17C176.342 60.0445 176.835 61.2302 176.836 62.467V195.823C176.835 197.06 176.342 198.245 175.465 199.12C174.589 199.994 173.4 200.486 172.16 200.488Z" fill="white"/>
<path id="Vector_34" d="M81.9024 92.1335C81.8992 94.5349 82.3727 96.9132 83.2955 99.1311C84.2184 101.349 85.5724 103.363 87.2793 105.056C87.4224 105.197 87.5687 105.338 87.7166 105.476C88.608 106.306 89.5805 107.046 90.6197 107.683C90.8191 107.806 91.0187 107.924 91.2232 108.038C92.2741 108.629 93.3813 109.114 94.5285 109.486C94.7264 109.551 94.9275 109.612 95.1287 109.669C98.7754 110.712 102.656 110.603 106.239 109.357C106.308 109.332 106.378 109.307 106.446 109.282C109.591 108.141 112.361 106.161 114.456 103.558C116.551 100.955 117.89 97.8285 118.327 94.5191C118.764 91.2096 118.283 87.8439 116.936 84.7883C115.588 81.7328 113.427 79.1045 110.686 77.1895C107.945 75.2745 104.73 74.1463 101.391 73.9276C98.0524 73.7089 94.7172 74.4082 91.749 75.9493C88.7808 77.4903 86.2932 79.8141 84.557 82.6677C82.8209 85.5214 81.9026 88.7954 81.9024 92.1335Z" fill="white"/>
<path id="Vector_35" d="M101.2 104.239C106.114 104.239 110.098 100.265 110.098 95.3625C110.098 90.4599 106.114 86.4856 101.2 86.4856C96.2852 86.4856 92.3013 90.4599 92.3013 95.3625C92.3013 100.265 96.2852 104.239 101.2 104.239Z" fill="#A0616A"/>
<path id="Vector_36" d="M95.1287 109.669C98.7753 110.712 102.656 110.603 106.239 109.357C106.308 109.332 106.378 109.307 106.446 109.282C105.602 108.633 104.648 108.14 103.628 107.829C103.7 107.574 103.699 107.304 103.625 107.05C103.524 106.727 103.321 106.446 103.047 106.247C102.773 106.049 102.442 105.944 102.104 105.948H99.9354C99.5974 105.944 99.2669 106.048 98.9933 106.247C98.7197 106.445 98.5177 106.726 98.4175 107.048C98.3432 107.303 98.342 107.574 98.4141 107.829C97.5162 108.104 96.6676 108.518 95.9002 109.058C95.7455 109.166 95.5959 109.279 95.4513 109.397C95.3415 109.485 95.2335 109.576 95.1287 109.669Z" fill="#2F2E41"/>
<path id="Vector_37" d="M108.17 94.4206C108.17 95.9167 108.909 97.1574 109.868 97.373C109.966 97.3948 110.065 97.406 110.166 97.4062C111.265 97.4062 112.161 96.0676 112.161 94.4206C112.186 93.5715 111.914 92.7402 111.393 92.0687C111.23 91.8728 111.031 91.711 110.806 91.5926C110.608 91.4897 110.389 91.4357 110.166 91.4351C109.859 91.4388 109.562 91.5386 109.316 91.7203C108.639 92.198 108.17 93.228 108.17 94.4206Z" fill="#3F3D56"/>
<path id="Vector_38" d="M90.3802 94.4206C90.3802 95.7077 90.9255 96.8057 91.6903 97.2254C91.8997 97.3424 92.1354 97.4046 92.3754 97.4062C92.4287 97.4062 92.482 97.4028 92.535 97.3962C93.5591 97.2751 94.3705 95.988 94.3705 94.4206C94.3705 93.165 93.8501 92.0886 93.1152 91.649C92.8929 91.5114 92.637 91.4373 92.3754 91.4351C92.1524 91.4357 91.9329 91.4897 91.7352 91.5926C91.5094 91.7116 91.3093 91.8739 91.1466 92.0703C90.6267 92.7419 90.3559 93.5724 90.3802 94.4206Z" fill="#3F3D56"/>
<path id="Vector_39" d="M91.8146 96.9394C91.8542 96.9393 91.8932 96.9299 91.9285 96.9118C91.9637 96.8938 91.9941 96.8677 92.0172 96.8356C92.0403 96.8035 92.0554 96.7664 92.0612 96.7273C92.0671 96.6883 92.0636 96.6484 92.051 96.6109C91.5743 95.1969 91.4309 93.6923 91.632 92.214C91.833 90.7357 92.373 89.3236 93.21 88.0873C94.0471 86.8511 95.1586 85.824 96.4582 85.086C97.7578 84.348 99.2105 83.9188 100.703 83.8319C102.196 83.7451 103.689 84.0027 105.066 84.585C106.443 85.1673 107.667 86.0584 108.642 87.1891C109.618 88.3199 110.319 89.6598 110.691 91.1047C111.063 92.5497 111.096 94.0607 110.787 95.5204C110.773 95.5849 110.786 95.6522 110.822 95.7073C110.858 95.7625 110.915 95.8012 110.98 95.8148C111.044 95.8284 111.112 95.8158 111.167 95.7799C111.222 95.744 111.261 95.6876 111.275 95.6231C111.6 94.0884 111.565 92.4997 111.174 90.9804C110.783 89.4612 110.046 88.0523 109.021 86.8634C107.995 85.6744 106.709 84.7374 105.261 84.1252C103.813 83.513 102.244 83.2421 100.674 83.3335C99.1044 83.4249 97.577 83.8762 96.2107 84.6522C94.8443 85.4283 93.6757 86.5082 92.7957 87.8081C91.9158 89.108 91.3482 90.5928 91.1371 92.1471C90.9259 93.7014 91.0769 95.2834 91.5783 96.77C91.595 96.8193 91.6268 96.8622 91.6692 96.8926C91.7116 96.923 91.7624 96.9393 91.8146 96.9394Z" fill="#3F3D56"/>
<path id="Vector_40" d="M100.191 110.876C98.4319 110.877 96.6811 110.632 94.9903 110.147C94.7916 110.091 94.5828 110.028 94.3731 109.959C93.195 109.576 92.0579 109.078 90.9783 108.472C90.7759 108.358 90.5726 108.239 90.3577 108.107C89.2905 107.452 88.2916 106.692 87.3758 105.839C87.2248 105.698 87.0751 105.554 86.9287 105.41C84.0489 102.546 82.1785 98.8264 81.5985 94.811C81.0186 90.7956 81.7604 86.7009 83.7125 83.1421C85.6646 79.5832 88.7216 76.7523 92.4243 75.0747C96.1269 73.3971 100.275 72.9633 104.246 73.8386C108.217 74.7139 111.796 76.851 114.445 79.9287C117.095 83.0065 118.671 86.8588 118.939 90.9068C119.206 94.9549 118.149 98.9802 115.927 102.378C113.705 105.776 110.438 108.363 106.617 109.75C106.548 109.775 106.477 109.8 106.406 109.825C104.409 110.523 102.308 110.878 100.191 110.876ZM100.191 74.3859C96.6703 74.3861 93.2285 75.4285 90.3017 77.3812C87.3749 79.3339 85.0947 82.109 83.7498 85.3553C82.405 88.6015 82.0559 92.1728 82.7469 95.6171C83.4379 99.0613 85.1377 102.224 87.6313 104.704C87.7693 104.839 87.9122 104.977 88.0567 105.112C88.924 105.92 89.87 106.639 90.8808 107.259C91.0844 107.385 91.276 107.497 91.467 107.604C92.4894 108.179 93.5665 108.651 94.6824 109.013C94.8798 109.077 95.0749 109.137 95.2634 109.189C98.8115 110.205 102.588 110.1 106.073 108.887L106.275 108.815C110.206 107.387 113.506 104.624 115.598 101.011C117.689 97.3969 118.438 93.1637 117.712 89.0543C116.985 84.9449 114.831 81.222 111.627 78.5396C108.423 75.8571 104.374 74.3864 100.191 74.3859Z" fill="#2F2E41"/>
<path id="Vector_41" d="M172.16 200.488H73.6897C72.4499 200.486 71.2614 199.994 70.3848 199.12C69.5082 198.245 69.0151 197.06 69.0137 195.823V62.467C69.0151 61.2302 69.5082 60.0445 70.3848 59.17C71.2614 58.2955 72.4499 57.8036 73.6897 57.8022H172.16C173.4 57.8036 174.589 58.2955 175.465 59.17C176.342 60.0445 176.835 61.2302 176.836 62.467V195.823C176.835 197.06 176.342 198.245 175.465 199.12C174.589 199.994 173.4 200.486 172.16 200.488ZM73.6897 58.351C72.5958 58.3523 71.5471 58.7863 70.7736 59.5579C70.0001 60.3295 69.565 61.3757 69.5638 62.467V195.823C69.565 196.914 70.0001 197.96 70.7736 198.732C71.5471 199.504 72.5958 199.938 73.6897 199.939H172.16C173.254 199.938 174.303 199.504 175.077 198.732C175.85 197.96 176.285 196.914 176.286 195.823V62.467C176.285 61.3757 175.85 60.3295 175.077 59.5579C174.303 58.7863 173.254 58.3523 172.16 58.351H73.6897Z" fill="#3F3D56"/>
<path id="Vector_42" d="M153.097 92.4376H125.234C124.649 92.4376 124.088 92.2059 123.675 91.7935C123.262 91.3811 123.029 90.8218 123.029 90.2386C123.029 89.6554 123.262 89.096 123.675 88.6836C124.088 88.2712 124.649 88.0396 125.234 88.0396H153.097C153.682 88.0396 154.243 88.2712 154.656 88.6836C155.07 89.096 155.302 89.6554 155.302 90.2386C155.302 90.8218 155.07 91.3811 154.656 91.7935C154.243 92.2059 153.682 92.4376 153.097 92.4376Z" fill="#AD3CC5"/>
<path id="Vector_43" d="M162.19 99.8592H125.234C124.649 99.8592 124.088 99.6276 123.675 99.2152C123.262 98.8028 123.029 98.2434 123.029 97.6602C123.029 97.077 123.262 96.5177 123.675 96.1053C124.088 95.6929 124.649 95.4612 125.234 95.4612H162.19C162.775 95.4612 163.336 95.6929 163.749 96.1053C164.163 96.5177 164.395 97.077 164.395 97.6602C164.395 98.2434 164.163 98.8028 163.749 99.2152C163.336 99.6276 162.775 99.8592 162.19 99.8592Z" fill="#AD3CC5"/>
<path id="Vector_44" d="M153.057 128.325H83.6594C83.0748 128.325 82.5141 128.093 82.1007 127.68C81.6873 127.268 81.4551 126.709 81.4551 126.126C81.4551 125.542 81.6873 124.983 82.1007 124.571C82.5141 124.158 83.0748 123.927 83.6594 123.927H153.057C153.642 123.927 154.202 124.158 154.616 124.571C155.029 124.983 155.261 125.542 155.261 126.126C155.261 126.709 155.029 127.268 154.616 127.68C154.202 128.093 153.642 128.325 153.057 128.325Z" fill="#CCCCCC"/>
<path id="Vector_45" d="M162.15 135.746H83.6594C83.0748 135.746 82.5141 135.515 82.1007 135.102C81.6873 134.69 81.4551 134.131 81.4551 133.547C81.4551 132.964 81.6873 132.405 82.1007 131.992C82.5141 131.58 83.0748 131.348 83.6594 131.348H162.15C162.735 131.348 163.295 131.58 163.709 131.992C164.122 132.405 164.354 132.964 164.354 133.547C164.354 134.131 164.122 134.69 163.709 135.102C163.295 135.515 162.735 135.746 162.15 135.746Z" fill="#CCCCCC"/>
<path id="Vector_46" d="M153.057 152.804H83.6594C83.0752 152.804 82.5152 152.572 82.1024 152.159C81.6896 151.747 81.4578 151.188 81.4578 150.605C81.4578 150.023 81.6896 149.464 82.1024 149.051C82.5152 148.639 83.0752 148.407 83.6594 148.406H153.057C153.642 148.406 154.202 148.638 154.616 149.05C155.029 149.463 155.261 150.022 155.261 150.605C155.261 151.189 155.029 151.748 154.616 152.16C154.202 152.573 153.642 152.804 153.057 152.804Z" fill="#CCCCCC"/>
<path id="Vector_47" d="M162.15 160.226H83.6594C83.0752 160.225 82.5152 159.993 82.1024 159.581C81.6896 159.169 81.4578 158.61 81.4578 158.027C81.4578 157.444 81.6896 156.885 82.1024 156.473C82.5152 156.061 83.0752 155.829 83.6594 155.828H162.15C162.735 155.828 163.295 156.06 163.709 156.472C164.122 156.885 164.354 157.444 164.354 158.027C164.354 158.61 164.122 159.17 163.709 159.582C163.295 159.995 162.735 160.226 162.15 160.226Z" fill="#CCCCCC"/>
<path id="Vector_48" d="M153.057 177.284H83.6594C83.0748 177.284 82.5141 177.053 82.1007 176.64C81.6873 176.228 81.4551 175.668 81.4551 175.085C81.4551 174.502 81.6873 173.943 82.1007 173.53C82.5141 173.118 83.0748 172.886 83.6594 172.886H153.057C153.642 172.886 154.202 173.118 154.616 173.53C155.029 173.943 155.261 174.502 155.261 175.085C155.261 175.668 155.029 176.228 154.616 176.64C154.202 177.053 153.642 177.284 153.057 177.284Z" fill="#CCCCCC"/>
<path id="Vector_49" d="M162.15 184.706H83.6594C83.0748 184.706 82.5141 184.474 82.1007 184.062C81.6873 183.649 81.4551 183.09 81.4551 182.507C81.4551 181.924 81.6873 181.364 82.1007 180.952C82.5141 180.54 83.0748 180.308 83.6594 180.308H162.15C162.735 180.308 163.295 180.54 163.709 180.952C164.122 181.364 164.354 181.924 164.354 182.507C164.354 183.09 164.122 183.649 163.709 184.062C163.295 184.474 162.735 184.706 162.15 184.706Z" fill="#CCCCCC"/>
<path id="Vector_50" d="M171.018 170.121C168.163 170.118 165.337 170.676 162.699 171.764C160.061 172.851 157.664 174.446 155.645 176.459C153.625 178.471 152.023 180.86 150.93 183.491C149.837 186.121 149.275 188.94 149.275 191.787C149.275 194.635 149.837 197.454 150.93 200.084C152.023 202.714 153.625 205.104 155.645 207.116C157.664 209.128 160.061 210.724 162.699 211.811C165.337 212.899 168.163 213.457 171.017 213.453C176.771 213.443 182.285 211.156 186.35 207.094C190.415 203.032 192.698 197.527 192.698 191.787C192.698 186.048 190.415 180.543 186.35 176.481C182.285 172.419 176.771 170.131 171.018 170.121Z" fill="#AD3CC5"/>
<path id="f276b720-7c73-4755-84a7-b208d54eb1fc" d="M168.957 200.786C168.385 200.786 167.829 200.602 167.371 200.26L167.343 200.239L161.37 195.681C160.813 195.253 160.448 194.622 160.356 193.926C160.264 193.231 160.453 192.527 160.881 191.97C161.309 191.413 161.941 191.048 162.638 190.956C163.336 190.864 164.041 191.052 164.6 191.478L168.469 194.438L177.61 182.54C177.822 182.264 178.087 182.033 178.388 181.859C178.69 181.685 179.023 181.572 179.368 181.526C179.714 181.481 180.065 181.504 180.401 181.594C180.738 181.683 181.054 181.838 181.33 182.05L181.331 182.05L181.274 182.129L181.332 182.05C181.89 182.478 182.255 183.109 182.347 183.805C182.439 184.501 182.251 185.205 181.823 185.762L171.071 199.75C170.822 200.072 170.502 200.333 170.136 200.512C169.77 200.691 169.367 200.784 168.96 200.782L168.957 200.786Z" fill="white"/>
</g>
<defs>
<clipPath id="clip0_146_968">
<rect width="236" height="213" fill="white" transform="translate(0.249023 0.453613)"/>
</clipPath>
</defs>
</svg>
