<svg width="221" height="176" viewBox="0 0 221 176" fill="none" xmlns="http://www.w3.org/2000/svg">
<g id="Ilustracion dinero">
<path id="Vector" d="M139.686 173.836L134.979 171.865L131.75 148.402H88.75L85.25 171.77L81.0388 173.863C80.8374 173.963 80.6758 174.128 80.5803 174.331C80.4849 174.534 80.4611 174.763 80.5128 174.981C80.5646 175.199 80.6889 175.393 80.8655 175.532C81.0422 175.671 81.2608 175.747 81.4861 175.747H139.298C139.529 175.747 139.753 175.668 139.931 175.522C140.11 175.377 140.233 175.174 140.278 174.949C140.324 174.724 140.29 174.491 140.182 174.288C140.074 174.085 139.899 173.925 139.686 173.836Z" fill="#E6DCF8"/>
<path id="Vector_2" d="M216.1 151.524H4.87221C3.76396 151.522 2.70195 151.082 1.91917 150.302C1.13639 149.522 0.696785 148.465 0.696777 147.363V117.746H220.275V147.363C220.275 148.465 219.836 149.522 219.053 150.302C218.27 151.082 217.208 151.522 216.1 151.524Z" fill="#E6DCF8"/>
<path id="Vector_3" d="M220.496 131.743H0.503906V5.01618C0.505453 3.68624 1.03748 2.41122 1.98325 1.47084C2.92902 0.530447 4.2113 0.00148352 5.5488 0H215.451C216.788 0.00149645 218.071 0.530465 219.017 1.47085C219.962 2.41124 220.494 3.68625 220.496 5.01618V131.743Z" fill="#3F3D56"/>
<path id="Vector_4" d="M207.357 122.545H13.6431C12.612 122.544 11.6234 122.137 10.8943 121.412C10.1652 120.687 9.75506 119.704 9.75391 118.678V13.0649C9.75506 12.0396 10.1652 11.0566 10.8943 10.3315C11.6234 9.60652 12.612 9.19869 13.6431 9.19751H207.357C208.388 9.19869 209.376 9.60652 210.105 10.3315C210.835 11.0566 211.245 12.0396 211.246 13.0649V118.678C211.245 119.704 210.835 120.687 210.105 121.412C209.376 122.137 208.388 122.544 207.357 122.545Z" fill="white"/>
<path id="Vector_5" d="M205.533 175.992H17.9562C17.8256 175.992 17.7004 175.94 17.6081 175.849C17.5157 175.757 17.4639 175.632 17.4639 175.502C17.4639 175.373 17.5157 175.248 17.6081 175.156C17.7004 175.065 17.8256 175.013 17.9562 175.013H205.533C205.664 175.013 205.789 175.065 205.881 175.156C205.974 175.248 206.026 175.373 206.026 175.502C206.026 175.632 205.974 175.757 205.881 175.849C205.789 175.94 205.664 175.992 205.533 175.992Z" fill="#3F3D56"/>
<path id="Vector_6" d="M189.158 109.423H31.8417C31.7111 109.423 31.5859 109.372 31.4936 109.28C31.4012 109.188 31.3494 109.064 31.3494 108.934V33.9581C31.3494 33.8282 31.4012 33.7037 31.4936 33.6119C31.5859 33.5201 31.7111 33.4685 31.8417 33.4685C31.9723 33.4685 32.0975 33.5201 32.1898 33.6119C32.2821 33.7037 32.334 33.8282 32.334 33.9581V108.444H189.158C189.289 108.444 189.414 108.496 189.506 108.588C189.598 108.679 189.65 108.804 189.65 108.934C189.65 109.064 189.598 109.188 189.506 109.28C189.414 109.372 189.289 109.423 189.158 109.423Z" fill="#3F3D56"/>
<path id="Vector_7" d="M65.4534 104.038H51.1448C50.7574 104.038 50.3859 103.885 50.1119 103.612C49.8379 103.34 49.6838 102.97 49.6833 102.585V82.9721C49.6838 82.5869 49.8379 82.2175 50.1119 81.9451C50.3859 81.6727 50.7574 81.5195 51.1448 81.519H65.4534C65.8408 81.5195 66.2123 81.6727 66.4863 81.9451C66.7602 82.2175 66.9144 82.5869 66.9148 82.9721V102.585C66.9144 102.97 66.7602 103.34 66.4863 103.612C66.2123 103.885 65.8408 104.038 65.4534 104.038Z" fill="#AD3CC5"/>
<path id="Vector_8" d="M91.5469 104.038H77.2383C76.8509 104.038 76.4794 103.885 76.2054 103.612C75.9315 103.34 75.7773 102.97 75.7769 102.585V64.3694C75.7773 63.9841 75.9315 63.6147 76.2054 63.3423C76.4794 63.0699 76.8509 62.9167 77.2383 62.9163H91.5469C91.9343 62.9167 92.3058 63.0699 92.5798 63.3423C92.8537 63.6147 93.0079 63.9841 93.0083 64.3694V102.585C93.0079 102.97 92.8537 103.34 92.5798 103.612C92.3058 103.885 91.9343 104.038 91.5469 104.038Z" fill="#AD3CC5"/>
<path id="Vector_9" d="M117.64 104.038H103.332C102.944 104.038 102.573 103.885 102.299 103.612C102.025 103.34 101.871 102.97 101.87 102.585V82.9721C101.871 82.5869 102.025 82.2175 102.299 81.9451C102.573 81.6727 102.944 81.5195 103.332 81.519H117.64C118.028 81.5195 118.399 81.6727 118.673 81.9451C118.947 82.2175 119.101 82.5869 119.102 82.9721V102.585C119.101 102.97 118.947 103.34 118.673 103.612C118.399 103.885 118.028 104.038 117.64 104.038Z" fill="#AD3CC5"/>
<path id="Vector_10" d="M143.734 104.038H129.425C129.046 104.046 128.68 103.905 128.406 103.645C128.132 103.385 127.973 103.027 127.964 102.651V56.9604C127.973 56.5839 128.132 56.2265 128.406 55.9665C128.68 55.7064 129.046 55.565 129.425 55.5731H143.734C144.112 55.565 144.479 55.7064 144.753 55.9665C145.027 56.2265 145.186 56.5839 145.195 56.9604V102.651C145.186 103.027 145.027 103.385 144.753 103.645C144.479 103.905 144.112 104.046 143.734 104.038Z" fill="#AD3CC5"/>
<path id="Vector_11" d="M169.827 104.038H155.518C155.131 104.038 154.759 103.884 154.485 103.612C154.211 103.34 154.057 102.97 154.057 102.585V43.8083C154.057 43.4231 154.211 43.0537 154.485 42.7813C154.759 42.5089 155.131 42.3557 155.518 42.3552H169.827C170.214 42.3557 170.586 42.5089 170.86 42.7813C171.134 43.0537 171.288 43.4231 171.288 43.8083V102.585C171.288 102.97 171.134 103.34 170.86 103.612C170.586 103.884 170.214 104.038 169.827 104.038Z" fill="#AD3CC5"/>
<path id="Vector_12" d="M58.2992 75.6446C59.9306 75.6446 61.2532 74.3295 61.2532 72.7073C61.2532 71.0851 59.9306 69.77 58.2992 69.77C56.6678 69.77 55.3452 71.0851 55.3452 72.7073C55.3452 74.3295 56.6678 75.6446 58.2992 75.6446Z" fill="#3F3D56"/>
<path id="Vector_13" d="M84.3924 56.5523C86.0239 56.5523 87.3464 55.2372 87.3464 53.615C87.3464 51.9928 86.0239 50.6777 84.3924 50.6777C82.761 50.6777 81.4385 51.9928 81.4385 53.615C81.4385 55.2372 82.761 56.5523 84.3924 56.5523Z" fill="#3F3D56"/>
<path id="Vector_14" d="M110.486 75.6446C112.117 75.6446 113.44 74.3295 113.44 72.7073C113.44 71.0851 112.117 69.77 110.486 69.77C108.855 69.77 107.532 71.0851 107.532 72.7073C107.532 74.3295 108.855 75.6446 110.486 75.6446Z" fill="#3F3D56"/>
<path id="Vector_15" d="M136.579 47.2508C138.211 47.2508 139.533 45.9357 139.533 44.3135C139.533 42.6913 138.211 41.3762 136.579 41.3762C134.948 41.3762 133.625 42.6913 133.625 44.3135C133.625 45.9357 134.948 47.2508 136.579 47.2508Z" fill="#3F3D56"/>
<path id="Vector_16" d="M162.673 36.4808C164.304 36.4808 165.627 35.1657 165.627 33.5435C165.627 31.9213 164.304 30.6062 162.673 30.6062C161.041 30.6062 159.719 31.9213 159.719 33.5435C159.719 35.1657 161.041 36.4808 162.673 36.4808Z" fill="#3F3D56"/>
<path id="Vector_17" d="M110.548 73.3652L84.3925 53.8852L58.5945 73.0989L58.0037 72.3157L84.3925 52.6618L110.424 72.0494L136.291 43.9014L136.395 43.8593L162.489 33.4055L162.857 34.3136L136.867 44.7258L110.548 73.3652Z" fill="#3F3D56"/>
</g>
</svg>
