<svg width="221" height="176" viewBox="0 0 221 176" fill="none" xmlns="http://www.w3.org/2000/svg">
<g id="Ilustracion dinero">
<path id="Vector" d="M139.686 173.836L134.979 171.866L131.75 148.402H88.75L85.25 171.77L81.0388 173.863C80.8373 173.963 80.6758 174.128 80.5803 174.331C80.4848 174.534 80.4611 174.763 80.5128 174.981C80.5646 175.199 80.6889 175.393 80.8655 175.532C81.0421 175.671 81.2608 175.747 81.4861 175.747H139.298C139.529 175.747 139.753 175.668 139.931 175.522C140.11 175.377 140.233 175.175 140.278 174.949C140.324 174.724 140.29 174.491 140.182 174.288C140.074 174.085 139.899 173.925 139.686 173.836Z" fill="#E6E6E6"/>
<path id="Vector_2" d="M216.1 151.524H4.87221C3.76396 151.522 2.70195 151.082 1.91917 150.302C1.13639 149.522 0.696785 148.465 0.696777 147.363V117.745H220.275V147.363C220.275 148.465 219.836 149.522 219.053 150.302C218.27 151.082 217.208 151.522 216.1 151.524Z" fill="#CCCCCC"/>
<path id="Vector_3" d="M220.496 131.743H0.503998V5.01618C0.505545 3.68624 1.03757 2.41122 1.98334 1.47084C2.92911 0.530447 4.2114 0.00148352 5.54889 0H215.451C216.789 0.00149645 218.071 0.530465 219.017 1.47085C219.962 2.41124 220.494 3.68625 220.496 5.01618V131.743Z" fill="#3F3D56"/>
<path id="Vector_4" d="M207.357 122.546H13.6433C12.6121 122.544 11.6236 122.137 10.8944 121.412C10.1653 120.687 9.75519 119.704 9.75403 118.678V13.065C9.75518 12.0397 10.1653 11.0567 10.8944 10.3317C11.6235 9.60664 12.6121 9.19881 13.6433 9.19763H207.357C208.388 9.19881 209.376 9.60664 210.106 10.3317C210.835 11.0567 211.245 12.0397 211.246 13.065V118.678C211.245 119.704 210.835 120.687 210.106 121.412C209.376 122.137 208.388 122.544 207.357 122.546Z" fill="white"/>
<path id="Vector_5" d="M205.533 175.992H17.9563C17.8257 175.992 17.7005 175.94 17.6082 175.849C17.5158 175.757 17.464 175.632 17.464 175.502C17.464 175.373 17.5158 175.248 17.6082 175.156C17.7005 175.065 17.8257 175.013 17.9563 175.013H205.533C205.664 175.013 205.789 175.065 205.882 175.156C205.974 175.248 206.026 175.373 206.026 175.502C206.026 175.632 205.974 175.757 205.882 175.849C205.789 175.94 205.664 175.992 205.533 175.992Z" fill="#CCCCCC"/>
<path id="Vector_6" d="M189.158 109.423H31.8419C31.7113 109.423 31.5861 109.372 31.4937 109.28C31.4014 109.188 31.3495 109.064 31.3495 108.934V33.958C31.3495 33.8282 31.4014 33.7036 31.4937 33.6118C31.5861 33.52 31.7113 33.4684 31.8419 33.4684C31.9724 33.4684 32.0977 33.52 32.19 33.6118C32.2823 33.7036 32.3342 33.8282 32.3342 33.958V108.444H189.158C189.289 108.444 189.414 108.496 189.506 108.588C189.599 108.679 189.651 108.804 189.651 108.934C189.651 109.064 189.599 109.188 189.506 109.28C189.414 109.372 189.289 109.423 189.158 109.423Z" fill="#3F3D56"/>
<path id="Vector_7" d="M65.4535 104.038H51.145C50.7575 104.038 50.386 103.885 50.1121 103.612C49.8381 103.34 49.6839 102.97 49.6835 102.585V82.9722C49.6839 82.5869 49.8381 82.2176 50.1121 81.9452C50.386 81.6728 50.7575 81.5195 51.145 81.5191H65.4535C65.8409 81.5195 66.2124 81.6728 66.4864 81.9452C66.7604 82.2176 66.9145 82.5869 66.915 82.9722V102.585C66.9145 102.97 66.7604 103.34 66.4864 103.612C66.2124 103.885 65.8409 104.038 65.4535 104.038Z" fill="#6C63FF"/>
<path id="Vector_8" d="M91.5469 104.038H77.2384C76.8509 104.038 76.4794 103.885 76.2055 103.612C75.9315 103.34 75.7773 102.97 75.7769 102.585V64.3694C75.7773 63.9842 75.9315 63.6148 76.2055 63.3424C76.4794 63.07 76.8509 62.9167 77.2384 62.9163H91.5469C91.9344 62.9167 92.3058 63.07 92.5798 63.3424C92.8538 63.6148 93.0079 63.9842 93.0084 64.3694V102.585C93.0079 102.97 92.8538 103.34 92.5798 103.612C92.3058 103.885 91.9344 104.038 91.5469 104.038Z" fill="#6C63FF"/>
<path id="Vector_9" d="M117.64 104.038H103.332C102.944 104.038 102.573 103.885 102.299 103.612C102.025 103.34 101.871 102.97 101.87 102.585V82.9722C101.871 82.5869 102.025 82.2176 102.299 81.9452C102.573 81.6728 102.944 81.5195 103.332 81.5191H117.64C118.028 81.5195 118.399 81.6728 118.673 81.9452C118.947 82.2176 119.101 82.5869 119.102 82.9722V102.585C119.101 102.97 118.947 103.34 118.673 103.612C118.399 103.885 118.028 104.038 117.64 104.038Z" fill="#6C63FF"/>
<path id="Vector_10" d="M143.734 104.038H129.425C129.046 104.046 128.68 103.905 128.406 103.645C128.132 103.385 127.973 103.027 127.964 102.651V56.9602C127.973 56.5838 128.132 56.2264 128.406 55.9663C128.68 55.7063 129.046 55.5649 129.425 55.573H143.734C144.112 55.5649 144.479 55.7063 144.753 55.9663C145.027 56.2264 145.186 56.5838 145.195 56.9602V102.651C145.186 103.027 145.027 103.385 144.753 103.645C144.479 103.905 144.112 104.046 143.734 104.038Z" fill="#6C63FF"/>
<path id="Vector_11" d="M169.827 104.038H155.519C155.131 104.038 154.76 103.885 154.486 103.612C154.212 103.34 154.058 102.97 154.057 102.585V43.8084C154.058 43.4232 154.212 43.0538 154.486 42.7814C154.76 42.509 155.131 42.3558 155.519 42.3553H169.827C170.215 42.3558 170.586 42.509 170.86 42.7814C171.134 43.0538 171.288 43.4232 171.289 43.8084V102.585C171.288 102.97 171.134 103.34 170.86 103.612C170.586 103.885 170.215 104.038 169.827 104.038Z" fill="#6C63FF"/>
<path id="Vector_12" d="M58.2992 75.6446C59.9306 75.6446 61.2532 74.3295 61.2532 72.7073C61.2532 71.0851 59.9306 69.77 58.2992 69.77C56.6678 69.77 55.3452 71.0851 55.3452 72.7073C55.3452 74.3295 56.6678 75.6446 58.2992 75.6446Z" fill="#3F3D56"/>
<path id="Vector_13" d="M84.3926 56.5522C86.024 56.5522 87.3466 55.2371 87.3466 53.6149C87.3466 51.9927 86.024 50.6776 84.3926 50.6776C82.7612 50.6776 81.4386 51.9927 81.4386 53.6149C81.4386 55.2371 82.7612 56.5522 84.3926 56.5522Z" fill="#3F3D56"/>
<path id="Vector_14" d="M110.486 75.6446C112.117 75.6446 113.44 74.3295 113.44 72.7073C113.44 71.0851 112.117 69.77 110.486 69.77C108.855 69.77 107.532 71.0851 107.532 72.7073C107.532 74.3295 108.855 75.6446 110.486 75.6446Z" fill="#3F3D56"/>
<path id="Vector_15" d="M136.579 47.2508C138.211 47.2508 139.533 45.9357 139.533 44.3135C139.533 42.6913 138.211 41.3762 136.579 41.3762C134.948 41.3762 133.625 42.6913 133.625 44.3135C133.625 45.9357 134.948 47.2508 136.579 47.2508Z" fill="#3F3D56"/>
<path id="Vector_16" d="M162.673 36.4808C164.304 36.4808 165.627 35.1658 165.627 33.5435C165.627 31.9213 164.304 30.6063 162.673 30.6063C161.041 30.6063 159.719 31.9213 159.719 33.5435C159.719 35.1658 161.041 36.4808 162.673 36.4808Z" fill="#3F3D56"/>
<path id="Vector_17" d="M110.548 73.3652L84.3926 53.8851L58.5946 73.0989L58.0038 72.3156L84.3926 52.6618L110.424 72.0493L136.291 43.9013L136.395 43.8592L162.489 33.4055L162.857 34.3136L136.867 44.7257L110.548 73.3652Z" fill="#3F3D56"/>
</g>
</svg>
