<svg width="32" height="33" viewBox="0 0 32 33" fill="none" xmlns="http://www.w3.org/2000/svg">
<g id="uil:money-withdraw">
<path id="Vector" d="M15.9998 16.5C16.791 16.5 17.5643 16.2654 18.2221 15.8259C18.8799 15.3864 19.3926 14.7616 19.6954 14.0307C19.9981 13.2998 20.0773 12.4956 19.923 11.7196C19.7686 10.9437 19.3877 10.231 18.8283 9.67158C18.2689 9.11217 17.5561 8.73121 16.7802 8.57687C16.0043 8.42253 15.2 8.50174 14.4691 8.80449C13.7382 9.10724 13.1135 9.61993 12.674 10.2777C12.2344 10.9355 11.9998 11.7089 11.9998 12.5C11.9998 13.5609 12.4213 14.5783 13.1714 15.3284C13.9216 16.0786 14.939 16.5 15.9998 16.5ZM15.9998 11.1667C16.2635 11.1667 16.5213 11.2449 16.7406 11.3914C16.9599 11.5379 17.1308 11.7461 17.2317 11.9898C17.3326 12.2334 17.359 12.5015 17.3076 12.7601C17.2561 13.0188 17.1291 13.2563 16.9426 13.4428C16.7562 13.6293 16.5186 13.7563 16.26 13.8077C16.0013 13.8592 15.7332 13.8328 15.4896 13.7318C15.246 13.6309 15.0377 13.46 14.8912 13.2408C14.7447 13.0215 14.6665 12.7637 14.6665 12.5C14.6665 12.1464 14.807 11.8072 15.057 11.5572C15.3071 11.3072 15.6462 11.1667 15.9998 11.1667ZM16.9465 19.5533C16.8197 19.432 16.6702 19.3368 16.5065 19.2733C16.3469 19.2028 16.1743 19.1664 15.9998 19.1664C15.8253 19.1664 15.6528 19.2028 15.4932 19.2733C15.3295 19.3368 15.18 19.432 15.0532 19.5533L11.9998 22.5533C11.7417 22.8115 11.5967 23.1616 11.5967 23.5267C11.5967 23.8917 11.7417 24.2419 11.9998 24.5C12.258 24.7582 12.6081 24.9032 12.9732 24.9032C13.3382 24.9032 13.6884 24.7582 13.9465 24.5L14.6665 23.7133V28.5C14.6665 28.8536 14.807 29.1928 15.057 29.4428C15.3071 29.6929 15.6462 29.8333 15.9998 29.8333C16.3535 29.8333 16.6926 29.6929 16.9426 29.4428C17.1927 29.1928 17.3332 28.8536 17.3332 28.5V23.7133L18.0532 24.5C18.3113 24.7582 18.6614 24.9032 19.0265 24.9032C19.3916 24.9032 19.7417 24.7582 19.9998 24.5C20.258 24.2419 20.403 23.8917 20.403 23.5267C20.403 23.1616 20.258 22.8115 19.9998 22.5533L16.9465 19.5533ZM6.6665 12.5C6.6665 12.7637 6.7447 13.0215 6.89121 13.2408C7.03772 13.46 7.24596 13.6309 7.48959 13.7318C7.73323 13.8328 8.00132 13.8592 8.25996 13.8077C8.5186 13.7563 8.75618 13.6293 8.94265 13.4428C9.12912 13.2563 9.2561 13.0188 9.30755 12.7601C9.359 12.5015 9.33259 12.2334 9.23168 11.9898C9.13076 11.7461 8.95986 11.5379 8.7406 11.3914C8.52133 11.2449 8.26354 11.1667 7.99984 11.1667C7.64621 11.1667 7.30707 11.3072 7.05703 11.5572C6.80698 11.8072 6.6665 12.1464 6.6665 12.5ZM5.33317 21.8333H9.33317C9.68679 21.8333 10.0259 21.6929 10.276 21.4428C10.526 21.1928 10.6665 20.8536 10.6665 20.5C10.6665 20.1464 10.526 19.8073 10.276 19.5572C10.0259 19.3072 9.68679 19.1667 9.33317 19.1667H5.33317C4.97955 19.1667 4.64041 19.0262 4.39036 18.7762C4.14031 18.5261 3.99984 18.187 3.99984 17.8333L3.99984 7.16668C3.99984 6.81305 4.14031 6.47391 4.39036 6.22387C4.64041 5.97382 4.97955 5.83334 5.33317 5.83334L26.6665 5.83334C27.0201 5.83334 27.3593 5.97382 27.6093 6.22387C27.8594 6.47391 27.9998 6.81305 27.9998 7.16668L27.9998 17.8333C27.9998 18.187 27.8594 18.5261 27.6093 18.7762C27.3593 19.0262 27.0201 19.1667 26.6665 19.1667H22.6665C22.3129 19.1667 21.9737 19.3072 21.7237 19.5572C21.4736 19.8073 21.3332 20.1464 21.3332 20.5C21.3332 20.8536 21.4736 21.1928 21.7237 21.4428C21.9737 21.6929 22.3129 21.8333 22.6665 21.8333H26.6665C27.7274 21.8333 28.7448 21.4119 29.4949 20.6618C30.2451 19.9116 30.6665 18.8942 30.6665 17.8333L30.6665 7.16668C30.6665 6.10581 30.2451 5.08839 29.4949 4.33825C28.7448 3.5881 27.7274 3.16668 26.6665 3.16668L5.33317 3.16668C4.2723 3.16668 3.25489 3.5881 2.50474 4.33825C1.7546 5.08839 1.33317 6.10581 1.33317 7.16668L1.33317 17.8333C1.33317 18.8942 1.7546 19.9116 2.50474 20.6618C3.25489 21.4119 4.2723 21.8333 5.33317 21.8333ZM25.3332 12.5C25.3332 12.2363 25.255 11.9785 25.1085 11.7592C24.962 11.54 24.7537 11.3691 24.5101 11.2682C24.2664 11.1673 23.9984 11.1408 23.7397 11.1923C23.4811 11.2437 23.2435 11.3707 23.057 11.5572C22.8706 11.7437 22.7436 11.9812 22.6921 12.2399C22.6407 12.4985 22.6671 12.7666 22.768 13.0103C22.8689 13.2539 23.0398 13.4621 23.2591 13.6086C23.4783 13.7551 23.7361 13.8333 23.9998 13.8333C24.3535 13.8333 24.6926 13.6929 24.9426 13.4428C25.1927 13.1928 25.3332 12.8536 25.3332 12.5Z" fill="#545454"/>
</g>
</svg>
