<svg width="258" height="146" viewBox="0 0 258 146" fill="none" xmlns="http://www.w3.org/2000/svg">
<path d="M251.712 109.403H20.3181C18.8859 109.401 17.5128 108.679 16.5001 107.396C15.4873 106.113 14.9177 104.373 14.916 102.558V41.8343C14.9177 40.0195 15.4873 38.2796 16.5001 36.9963C17.5128 35.713 18.8859 34.9911 20.3181 34.989H251.712C253.144 34.9911 254.517 35.713 255.53 36.9963C256.543 38.2796 257.112 40.0195 257.114 41.8343V102.558C257.112 104.373 256.543 106.113 255.53 107.396C254.517 108.679 253.144 109.401 251.712 109.403Z" fill="#363232"/>
<path d="M236.095 104.786H23.9628C22.5306 104.784 21.1576 104.062 20.1448 102.778C19.1321 101.495 18.5625 99.7553 18.5608 97.9404V46.4552C18.5625 44.6403 19.1321 42.9004 20.1448 41.6171C21.1576 40.3338 22.5306 39.612 23.9628 39.6099H248.069C249.501 39.612 250.874 40.3338 251.887 41.6171C252.899 42.9004 253.469 44.6403 253.471 46.4552V82.7675C253.465 88.6051 251.633 94.2017 248.376 98.3295C245.118 102.457 240.701 104.779 236.095 104.786Z" fill="white"/>
<path d="M208.119 62.9508H143.515C143.145 62.9508 142.791 62.7648 142.53 62.4337C142.268 62.1026 142.122 61.6535 142.122 61.1853C142.122 60.7171 142.268 60.2681 142.53 59.937C142.791 59.6059 143.145 59.4199 143.515 59.4199H208.119C208.489 59.4199 208.843 59.6059 209.104 59.937C209.365 60.2681 209.512 60.7171 209.512 61.1853C209.512 61.6535 209.365 62.1026 209.104 62.4337C208.843 62.7648 208.489 62.9508 208.119 62.9508Z" fill="#2F2E41"/>
<path d="M224.471 73.4293H127.163C126.793 73.4293 126.439 73.2433 126.178 72.9122C125.916 72.5811 125.77 72.1321 125.77 71.6638C125.77 71.1956 125.916 70.7466 126.178 70.4155C126.439 70.0844 126.793 69.8984 127.163 69.8984H224.471C224.84 69.8984 225.195 70.0844 225.456 70.4155C225.717 70.7466 225.864 71.1956 225.864 71.6638C225.864 72.1321 225.717 72.5811 225.456 72.9122C225.195 73.2433 224.84 73.4293 224.471 73.4293Z" fill="#E6DCF8"/>
<path d="M224.471 84.9759H127.163C126.793 84.9759 126.439 84.7899 126.178 84.4588C125.916 84.1277 125.77 83.6787 125.77 83.2105C125.77 82.7423 125.916 82.2932 126.178 81.9621C126.439 81.6311 126.793 81.4451 127.163 81.4451H224.471C224.84 81.4451 225.195 81.6311 225.456 81.9621C225.717 82.2932 225.864 82.7423 225.864 83.2105C225.864 83.6787 225.717 84.1277 225.456 84.4588C225.195 84.7899 224.84 84.9759 224.471 84.9759Z" fill="#E6DCF8"/>
<path d="M142.656 45.116H141.862V6.36353H199.283V7.36952H142.656V45.116Z" fill="#3F3D56"/>
<path d="M223.565 0H202.527C201.158 0 199.846 0.688929 198.878 1.91523C197.91 3.14152 197.367 4.80474 197.367 6.53898C197.367 8.27323 197.91 9.93644 198.878 11.1627C199.846 12.389 201.158 13.078 202.527 13.078H223.565C224.934 13.078 226.246 12.389 227.214 11.1627C228.182 9.93644 228.725 8.27323 228.725 6.53898C228.725 4.80474 228.182 3.14152 227.214 1.91523C226.246 0.688929 224.934 0 223.565 0Z" fill="#4A9DFF"/>
<path d="M141.798 51.6982C144.417 51.6982 146.54 49.008 146.54 45.6894C146.54 42.3709 144.417 39.6807 141.798 39.6807C139.179 39.6807 137.056 42.3709 137.056 45.6894C137.056 49.008 139.179 51.6982 141.798 51.6982Z" fill="#4A9DFF"/>
<path d="M171.236 99.7476H170.442V138.5H227.863V137.494H171.236V99.7476Z" fill="#3F3D56"/>
<path d="M257.306 138.325C257.304 136.591 256.76 134.929 255.793 133.703C254.825 132.477 253.513 131.787 252.145 131.786H231.107C229.738 131.786 228.426 132.475 227.458 133.701C226.49 134.927 225.947 136.59 225.947 138.325C225.947 140.059 226.49 141.722 227.458 142.948C228.426 144.175 229.738 144.864 231.107 144.864H252.145C253.513 144.862 254.825 144.172 255.793 142.947C256.76 141.721 257.304 140.058 257.306 138.325Z" fill="#01579B"/>
<path d="M171.172 103.507C173.791 103.507 175.914 100.817 175.914 97.4985C175.914 94.18 173.791 91.4897 171.172 91.4897C168.553 91.4897 166.43 94.18 166.43 97.4985C166.43 100.817 168.553 103.507 171.172 103.507Z" fill="#01579B"/>
<path d="M86.0698 100.251H86.8637V139.003H29.4426V137.997H86.0698V100.251Z" fill="#3F3D56"/>
<path d="M5.1603 145.367H26.1984C27.567 145.367 28.8796 144.678 29.8473 143.451C30.8151 142.225 31.3587 140.562 31.3587 138.828C31.3587 137.093 30.8151 135.43 29.8473 134.204C28.8796 132.978 27.567 132.289 26.1984 132.289H5.1603C3.7917 132.289 2.47916 132.978 1.51142 134.204C0.543675 135.43 0 137.093 0 138.828C0 140.562 0.543675 142.225 1.51142 143.451C2.47916 144.678 3.7917 145.367 5.1603 145.367Z" fill="#AD3CC5"/>
<path d="M87.0197 103.171C89.6386 103.171 91.7616 100.481 91.7616 97.1621C91.7616 93.8435 89.6386 91.1533 87.0197 91.1533C84.4008 91.1533 82.2778 93.8435 82.2778 97.1621C82.2778 100.481 84.4008 103.171 87.0197 103.171Z" fill="#AD3CC5"/>
<path d="M41.3247 90.211C49.2169 90.211 55.6148 82.1038 55.6148 72.1031C55.6148 62.1023 49.2169 53.9951 41.3247 53.9951C33.4325 53.9951 27.0347 62.1023 27.0347 72.1031C27.0347 82.1038 33.4325 90.211 41.3247 90.211Z" fill="#E6DCF8"/>
<path d="M95.4684 62.8558H86.0397C85.6702 62.8558 85.3158 62.6698 85.0545 62.3387C84.7933 62.0076 84.6465 61.5586 84.6465 61.0904C84.6465 60.6222 84.7933 60.1731 85.0545 59.842C85.3158 59.5109 85.6702 59.325 86.0397 59.325H95.4684C95.8379 59.325 96.1923 59.5109 96.4536 59.842C96.7148 60.1731 96.8616 60.6222 96.8616 61.0904C96.8616 61.5586 96.7148 62.0076 96.4536 62.3387C96.1923 62.6698 95.8379 62.8558 95.4684 62.8558Z" fill="#2F2E41"/>
<path d="M111.82 73.3345H69.6876C69.3181 73.3345 68.9638 73.1485 68.7025 72.8175C68.4412 72.4864 68.2944 72.0373 68.2944 71.5691C68.2944 71.1009 68.4412 70.6519 68.7025 70.3208C68.9638 69.9897 69.3181 69.8037 69.6876 69.8037H111.82C112.19 69.8037 112.544 69.9897 112.805 70.3208C113.067 70.6519 113.213 71.1009 113.213 71.5691C113.213 72.0373 113.067 72.4864 112.805 72.8175C112.544 73.1485 112.19 73.3345 111.82 73.3345Z" fill="#E6DCF8"/>
<path d="M111.82 84.8814H69.6876C69.3181 84.8814 68.9638 84.6954 68.7025 84.3643C68.4412 84.0332 68.2944 83.5842 68.2944 83.116C68.2944 82.6478 68.4412 82.1987 68.7025 81.8677C68.9638 81.5366 69.3181 81.3506 69.6876 81.3506H111.82C112.19 81.3506 112.544 81.5366 112.805 81.8677C113.067 82.1987 113.213 82.6478 113.213 83.116C113.213 83.5842 113.067 84.0332 112.805 84.3643C112.544 84.6954 112.19 84.8814 111.82 84.8814Z" fill="#E6DCF8"/>
</svg>
