<svg width="258" height="146" viewBox="0 0 258 146" fill="none" xmlns="http://www.w3.org/2000/svg">
<path d="M251.712 109.403H20.3182C18.886 109.401 17.5129 108.679 16.5002 107.396C15.4875 106.112 14.9178 104.373 14.9161 102.558V41.8343C14.9178 40.0194 15.4875 38.2795 16.5002 36.9962C17.5129 35.7129 18.886 34.9911 20.3182 34.989H251.712C253.144 34.9911 254.517 35.7129 255.53 36.9962C256.543 38.2795 257.113 40.0194 257.114 41.8343V102.558C257.113 104.373 256.543 106.112 255.53 107.396C254.517 108.679 253.144 109.401 251.712 109.403Z" fill="#363232"/>
<path d="M236.095 104.786H23.9628C22.5306 104.784 21.1575 104.062 20.1448 102.779C19.1321 101.495 18.5624 99.7554 18.5607 97.9406V46.4553C18.5624 44.6405 19.1321 42.9005 20.1448 41.6173C21.1575 40.334 22.5306 39.6121 23.9628 39.61H248.068C249.501 39.6121 250.874 40.334 251.886 41.6173C252.899 42.9005 253.469 44.6405 253.471 46.4553V82.7676C253.465 88.6052 251.633 94.2018 248.375 98.3296C245.118 102.457 240.701 104.779 236.095 104.786Z" fill="white"/>
<path d="M208.119 62.9507H143.515C143.145 62.9507 142.791 62.7647 142.53 62.4336C142.268 62.1025 142.121 61.6535 142.121 61.1853C142.121 60.7171 142.268 60.268 142.53 59.9369C142.791 59.6059 143.145 59.4199 143.515 59.4199H208.119C208.488 59.4199 208.843 59.6059 209.104 59.9369C209.365 60.268 209.512 60.7171 209.512 61.1853C209.512 61.6535 209.365 62.1025 209.104 62.4336C208.843 62.7647 208.488 62.9507 208.119 62.9507Z" fill="#2F2E41"/>
<path d="M224.471 73.4293H127.163C126.793 73.4293 126.439 73.2433 126.178 72.9123C125.916 72.5812 125.77 72.1321 125.77 71.6639C125.77 71.1957 125.916 70.7467 126.178 70.4156C126.439 70.0845 126.793 69.8985 127.163 69.8985H224.471C224.84 69.8985 225.195 70.0845 225.456 70.4156C225.717 70.7467 225.864 71.1957 225.864 71.6639C225.864 72.1321 225.717 72.5812 225.456 72.9123C225.195 73.2433 224.84 73.4293 224.471 73.4293Z" fill="#E6DCF8"/>
<path d="M224.471 84.976H127.163C126.793 84.976 126.439 84.79 126.178 84.4589C125.916 84.1278 125.77 83.6788 125.77 83.2106C125.77 82.7423 125.916 82.2933 126.178 81.9622C126.439 81.6311 126.793 81.4451 127.163 81.4451H224.471C224.84 81.4451 225.195 81.6311 225.456 81.9622C225.717 82.2933 225.864 82.7423 225.864 83.2106C225.864 83.6788 225.717 84.1278 225.456 84.4589C225.195 84.79 224.84 84.976 224.471 84.976Z" fill="#E6DCF8"/>
<path d="M142.656 45.1159H141.862V6.3634H199.283V7.3694H142.656V45.1159Z" fill="#3F3D56"/>
<path d="M223.565 0H202.527C201.158 0 199.846 0.688929 198.878 1.91523C197.91 3.14152 197.367 4.80474 197.367 6.53898C197.367 8.27323 197.91 9.93644 198.878 11.1627C199.846 12.389 201.158 13.078 202.527 13.078H223.565C224.934 13.078 226.246 12.389 227.214 11.1627C228.182 9.93644 228.726 8.27323 228.726 6.53898C228.726 4.80474 228.182 3.14152 227.214 1.91523C226.246 0.688929 224.934 0 223.565 0Z" fill="#4A9DFF"/>
<path d="M141.798 51.6983C144.417 51.6983 146.54 49.008 146.54 45.6895C146.54 42.3709 144.417 39.6807 141.798 39.6807C139.179 39.6807 137.056 42.3709 137.056 45.6895C137.056 49.008 139.179 51.6983 141.798 51.6983Z" fill="#4A9DFF"/>
<path d="M171.236 99.7477H170.442V138.5H227.863V137.494H171.236V99.7477Z" fill="#3F3D56"/>
<path d="M257.306 138.325C257.304 136.591 256.76 134.929 255.793 133.703C254.825 132.477 253.514 131.787 252.145 131.786H231.107C229.739 131.786 228.426 132.475 227.458 133.701C226.491 134.927 225.947 136.59 225.947 138.325C225.947 140.059 226.491 141.722 227.458 142.948C228.426 144.175 229.739 144.864 231.107 144.864H252.145C253.514 144.862 254.825 144.173 255.793 142.947C256.76 141.721 257.304 140.058 257.306 138.325Z" fill="#594FFF"/>
<path d="M171.172 103.507C173.791 103.507 175.914 100.817 175.914 97.4985C175.914 94.18 173.791 91.4897 171.172 91.4897C168.553 91.4897 166.43 94.18 166.43 97.4985C166.43 100.817 168.553 103.507 171.172 103.507Z" fill="#594FFF"/>
<path d="M86.0698 100.251H86.8637V139.003H29.4426V137.997H86.0698V100.251Z" fill="#3F3D56"/>
<path d="M5.1603 145.367H26.1984C27.567 145.367 28.8796 144.678 29.8473 143.451C30.8151 142.225 31.3587 140.562 31.3587 138.828C31.3587 137.093 30.8151 135.43 29.8473 134.204C28.8796 132.978 27.567 132.289 26.1984 132.289H5.1603C3.7917 132.289 2.47916 132.978 1.51142 134.204C0.543675 135.43 0 137.093 0 138.828C0 140.562 0.543675 142.225 1.51142 143.451C2.47916 144.678 3.7917 145.367 5.1603 145.367Z" fill="#4C46AA" fill-opacity="0.89"/>
<path d="M87.0197 103.171C89.6385 103.171 91.7615 100.481 91.7615 97.162C91.7615 93.8435 89.6385 91.1533 87.0197 91.1533C84.4008 91.1533 82.2778 93.8435 82.2778 97.162C82.2778 100.481 84.4008 103.171 87.0197 103.171Z" fill="#4C46AA" fill-opacity="0.89"/>
<path d="M41.3247 90.2111C49.2169 90.2111 55.6147 82.1039 55.6147 72.1031C55.6147 62.1024 49.2169 53.9952 41.3247 53.9952C33.4325 53.9952 27.0346 62.1024 27.0346 72.1031C27.0346 82.1039 33.4325 90.2111 41.3247 90.2111Z" fill="#E6DCF8"/>
<path d="M95.4684 62.8558H86.0397C85.6702 62.8558 85.3158 62.6698 85.0545 62.3387C84.7933 62.0076 84.6465 61.5586 84.6465 61.0904C84.6465 60.6222 84.7933 60.1731 85.0545 59.842C85.3158 59.5109 85.6702 59.325 86.0397 59.325H95.4684C95.8379 59.325 96.1923 59.5109 96.4536 59.842C96.7148 60.1731 96.8616 60.6222 96.8616 61.0904C96.8616 61.5586 96.7148 62.0076 96.4536 62.3387C96.1923 62.6698 95.8379 62.8558 95.4684 62.8558Z" fill="#2F2E41"/>
<path d="M111.82 73.3345H69.6878C69.3183 73.3345 68.9639 73.1485 68.7026 72.8175C68.4413 72.4864 68.2946 72.0373 68.2946 71.5691C68.2946 71.1009 68.4413 70.6519 68.7026 70.3208C68.9639 69.9897 69.3183 69.8037 69.6878 69.8037H111.82C112.19 69.8037 112.544 69.9897 112.805 70.3208C113.067 70.6519 113.214 71.1009 113.214 71.5691C113.214 72.0373 113.067 72.4864 112.805 72.8175C112.544 73.1485 112.19 73.3345 111.82 73.3345Z" fill="#E6DCF8"/>
<path d="M111.82 84.8813H69.6878C69.3183 84.8813 68.9639 84.6953 68.7026 84.3643C68.4413 84.0332 68.2946 83.5841 68.2946 83.1159C68.2946 82.6477 68.4413 82.1987 68.7026 81.8676C68.9639 81.5365 69.3183 81.3505 69.6878 81.3505H111.82C112.19 81.3505 112.544 81.5365 112.805 81.8676C113.067 82.1987 113.214 82.6477 113.214 83.1159C113.214 83.5841 113.067 84.0332 112.805 84.3643C112.544 84.6953 112.19 84.8813 111.82 84.8813Z" fill="#E6DCF8"/>
</svg>
