<svg width="200" height="200" viewBox="0 0 200 200" fill="none" xmlns="http://www.w3.org/2000/svg">
<path d="M37.5 68.75H12.5C11.6712 68.75 10.8763 69.0792 10.2903 69.6653C9.70424 70.2513 9.375 71.0462 9.375 71.875V146.875C9.375 147.704 9.70424 148.499 10.2903 149.085C10.8763 149.671 11.6712 150 12.5 150H37.5C38.3288 150 39.1237 149.671 39.7097 149.085C40.2958 148.499 40.625 147.704 40.625 146.875V71.875C40.625 71.0462 40.2958 70.2513 39.7097 69.6653C39.1237 69.0792 38.3288 68.75 37.5 68.75ZM34.375 143.75H15.625V75H34.375V143.75Z" fill="#595A66"/>
<path d="M81.25 50H56.25C55.4212 50 54.6263 50.3292 54.0403 50.9153C53.4542 51.5013 53.125 52.2962 53.125 53.125V146.875C53.125 147.704 53.4542 148.499 54.0403 149.085C54.6263 149.671 55.4212 150 56.25 150H81.25C82.0788 150 82.8737 149.671 83.4597 149.085C84.0458 148.499 84.375 147.704 84.375 146.875V53.125C84.375 52.2962 84.0458 51.5013 83.4597 50.9153C82.8737 50.3292 82.0788 50 81.25 50ZM78.125 143.75H59.375V56.25H78.125V143.75Z" fill="#595A66"/>
<path d="M128.125 96.875V84.375C128.125 83.5462 127.796 82.7513 127.21 82.1653C126.624 81.5792 125.829 81.25 125 81.25H100C99.1712 81.25 98.3763 81.5792 97.7903 82.1653C97.2042 82.7513 96.875 83.5462 96.875 84.375V146.875C96.875 147.704 97.2042 148.499 97.7903 149.085C98.3763 149.671 99.1712 150 100 150H119.531V143.75H103.125V87.5H121.875V96.875H128.125Z" fill="#545454"/>
<path d="M146.875 40.625H165.625V92.5H171.875V37.5C171.875 36.6712 171.546 35.8763 170.96 35.2903C170.374 34.7042 169.579 34.375 168.75 34.375H143.75C142.921 34.375 142.126 34.7042 141.54 35.2903C140.954 35.8763 140.625 36.6712 140.625 37.5V88.0312H146.875V40.625Z" fill="#595A66"/>
<path d="M159.375 103.125C153.194 103.125 147.152 104.958 142.013 108.392C136.874 111.825 132.869 116.706 130.504 122.416C128.139 128.126 127.52 134.41 128.725 140.472C129.931 146.533 132.908 152.102 137.278 156.472C141.648 160.842 147.217 163.819 153.278 165.025C159.34 166.23 165.624 165.611 171.334 163.246C177.044 160.881 181.925 156.876 185.358 151.737C188.792 146.598 190.625 140.556 190.625 134.375C190.625 126.087 187.333 118.138 181.472 112.278C175.612 106.417 167.663 103.125 159.375 103.125ZM169.656 149.094L157.156 136.594C156.867 136.302 156.638 135.955 156.482 135.575C156.326 135.194 156.248 134.786 156.25 134.375V115.625H162.5V133.094L174.094 144.656L169.656 149.094Z" fill="#2D3648"/>
</svg>
