<svg width="244" height="129" viewBox="0 0 244 129" fill="none" xmlns="http://www.w3.org/2000/svg">
<path d="M238.696 96.609H19.2675C17.9093 96.6071 16.6073 95.9696 15.6469 94.8364C14.6866 93.7032 14.1464 92.1668 14.1448 90.5642V36.9421C14.1464 35.3395 14.6866 33.803 15.6469 32.6698C16.6073 31.5366 17.9093 30.8991 19.2675 30.8973H238.696C240.054 30.8991 241.356 31.5366 242.316 32.6698C243.277 33.803 243.817 35.3395 243.818 36.9421V90.5642C243.817 92.1668 243.277 93.7032 242.316 94.8364C241.356 95.9696 240.054 96.6071 238.696 96.609Z" fill="#595A66"/>
<path d="M223.886 92.5316H22.7236C21.3655 92.5298 20.0634 91.8923 19.1031 90.7591C18.1427 89.6259 17.6025 88.0895 17.601 86.4869V41.0226C17.6025 39.42 18.1427 37.8835 19.1031 36.7503C20.0634 35.6171 21.3655 34.9796 22.7236 34.9778H235.241C236.599 34.9796 237.901 35.6171 238.861 36.7503C239.821 37.8835 240.362 39.42 240.363 41.0226V73.0883C240.358 78.2432 238.621 83.1853 235.532 86.8304C232.443 90.4755 228.254 92.5258 223.886 92.5316Z" fill="white"/>
<path d="M197.357 55.5888H136.093C135.743 55.5888 135.407 55.4246 135.159 55.1322C134.911 54.8398 134.772 54.4433 134.772 54.0298C134.772 53.6164 134.911 53.2199 135.159 52.9275C135.407 52.6351 135.743 52.4709 136.093 52.4709H197.357C197.707 52.4709 198.043 52.6351 198.291 52.9275C198.539 53.2199 198.678 53.6164 198.678 54.0298C198.678 54.4433 198.539 54.8398 198.291 55.1322C198.043 55.4246 197.707 55.5888 197.357 55.5888Z" fill="#2F2E41"/>
<path d="M212.863 64.8422H120.587C120.237 64.8422 119.901 64.6779 119.653 64.3856C119.405 64.0932 119.266 63.6967 119.266 63.2832C119.266 62.8697 119.405 62.4732 119.653 62.1808C119.901 61.8885 120.237 61.7242 120.587 61.7242H212.863C213.214 61.7242 213.55 61.8885 213.797 62.1808C214.045 62.4732 214.184 62.8697 214.184 63.2832C214.184 63.6967 214.045 64.0932 213.797 64.3856C213.55 64.6779 213.214 64.8422 212.863 64.8422Z" fill="#E6E6E6"/>
<path d="M212.863 75.0384H120.587C120.237 75.0384 119.901 74.8742 119.653 74.5818C119.405 74.2895 119.266 73.893 119.266 73.4795C119.266 73.066 119.405 72.6695 119.653 72.3771C119.901 72.0848 120.237 71.9205 120.587 71.9205H212.863C213.214 71.9205 213.55 72.0848 213.797 72.3771C214.045 72.6695 214.184 73.066 214.184 73.4795C214.184 73.893 214.045 74.2895 213.797 74.5818C213.55 74.8742 213.214 75.0384 212.863 75.0384Z" fill="#E6E6E6"/>
<path d="M135.279 39.8398H134.526V5.6192H188.978V6.50755H135.279V39.8398Z" fill="#3F3D56"/>
<path d="M212.004 0H192.054C190.756 0 189.512 0.608362 188.594 1.69125C187.676 2.77414 187.161 4.24284 187.161 5.77428C187.161 7.30571 187.676 8.77442 188.594 9.8573C189.512 10.9402 190.756 11.5486 192.054 11.5486H212.004C213.302 11.5486 214.547 10.9402 215.465 9.8573C216.382 8.77442 216.898 7.30571 216.898 5.77428C216.898 4.24284 216.382 2.77414 215.465 1.69125C214.547 0.608362 213.302 0 212.004 0Z" fill="#2F2E41"/>
<path d="M134.466 45.6524C136.949 45.6524 138.962 43.2768 138.962 40.3464C138.962 37.4159 136.949 35.0403 134.466 35.0403C131.982 35.0403 129.969 37.4159 129.969 40.3464C129.969 43.2768 131.982 45.6524 134.466 45.6524Z" fill="#E6E6E6"/>
<path d="M162.381 88.0826H161.628V122.303H216.08V121.415H162.381V88.0826Z" fill="#3F3D56"/>
<path d="M244 122.148C243.999 120.617 243.483 119.149 242.565 118.067C241.648 116.984 240.404 116.375 239.107 116.374H219.156C217.858 116.374 216.614 116.982 215.696 118.065C214.778 119.148 214.263 120.617 214.263 122.148C214.263 123.68 214.778 125.148 215.696 126.231C216.614 127.314 217.858 127.922 219.156 127.922H239.107C240.404 127.921 241.648 127.312 242.565 126.23C243.483 125.147 243.999 123.679 244 122.148Z" fill="#2F2E41"/>
<path d="M162.321 91.4025C164.804 91.4025 166.817 89.0269 166.817 86.0965C166.817 83.166 164.804 80.7904 162.321 80.7904C159.837 80.7904 157.824 83.166 157.824 86.0965C157.824 89.0269 159.837 91.4025 162.321 91.4025Z" fill="#E6E6E6"/>
<path d="M81.619 88.5269H82.3718V122.747H27.9201V121.859H81.619V88.5269Z" fill="#3F3D56"/>
<path d="M4.89345 128.367H24.8437C26.1415 128.367 27.3862 127.758 28.3039 126.675C29.2216 125.592 29.7371 124.124 29.7371 122.592C29.7371 121.061 29.2216 119.592 28.3039 118.509C27.3862 117.426 26.1415 116.818 24.8437 116.818H4.89345C3.59563 116.818 2.35096 117.426 1.43326 118.509C0.515561 119.592 0 121.061 0 122.592C0 124.124 0.515561 125.592 1.43326 126.675C2.35096 127.758 3.59563 128.367 4.89345 128.367Z" fill="#2F2E41"/>
<path d="M82.5197 91.1054C85.0032 91.1054 87.0164 88.7298 87.0164 85.7994C87.0164 82.8689 85.0032 80.4933 82.5197 80.4933C80.0363 80.4933 78.023 82.8689 78.023 85.7994C78.023 88.7298 80.0363 91.1054 82.5197 91.1054Z" fill="#E6E6E6"/>
<path d="M39.1877 79.6612C46.6718 79.6612 52.7388 72.5021 52.7388 63.6709C52.7388 54.8397 46.6718 47.6806 39.1877 47.6806C31.7036 47.6806 25.6366 54.8397 25.6366 63.6709C25.6366 72.5021 31.7036 79.6612 39.1877 79.6612Z" fill="#F2F2F2"/>
<path d="M90.5316 55.5051H81.5904C81.2401 55.5051 80.904 55.3409 80.6562 55.0485C80.4085 54.7562 80.2693 54.3596 80.2693 53.9462C80.2693 53.5327 80.4085 53.1362 80.6562 52.8438C80.904 52.5515 81.2401 52.3872 81.5904 52.3872H90.5316C90.882 52.3872 91.218 52.5515 91.4658 52.8438C91.7136 53.1362 91.8528 53.5327 91.8528 53.9462C91.8528 54.3596 91.7136 54.7562 91.4658 55.0485C91.218 55.3409 90.882 55.5051 90.5316 55.5051Z" fill="#2F2E41"/>
<path d="M106.038 64.7585H66.0841C65.7337 64.7585 65.3976 64.5942 65.1499 64.3019C64.9021 64.0095 64.7629 63.613 64.7629 63.1995C64.7629 62.7861 64.9021 62.3895 65.1499 62.0972C65.3976 61.8048 65.7337 61.6406 66.0841 61.6406H106.038C106.388 61.6406 106.724 61.8048 106.972 62.0972C107.22 62.3895 107.359 62.7861 107.359 63.1995C107.359 63.613 107.22 64.0095 106.972 64.3019C106.724 64.5942 106.388 64.7585 106.038 64.7585Z" fill="#E6E6E6"/>
<path d="M106.038 74.9548H66.0841C65.7337 74.9548 65.3976 74.7905 65.1499 74.4981C64.9021 74.2058 64.7629 73.8093 64.7629 73.3958C64.7629 72.9823 64.9021 72.5858 65.1499 72.2935C65.3976 72.0011 65.7337 71.8369 66.0841 71.8369H106.038C106.388 71.8369 106.724 72.0011 106.972 72.2935C107.22 72.5858 107.359 72.9823 107.359 73.3958C107.359 73.8093 107.22 74.2058 106.972 74.4981C106.724 74.7905 106.388 74.9548 106.038 74.9548Z" fill="#E6E6E6"/>
</svg>
