<svg width="180" height="186" viewBox="0 0 180 186" fill="none" xmlns="http://www.w3.org/2000/svg">
<path d="M123.416 160.683C121.492 158.101 118.888 156.211 115.614 155.504C112.76 154.888 109.825 154.993 106.923 155.014L70.2318 155.285C67.0895 155.309 64.0767 157.918 64.2226 161.046C64.3675 164.147 66.8636 166.831 70.2318 166.807C80.9798 166.727 91.7277 166.648 102.475 166.568C105.009 166.55 107.545 166.506 110.079 166.514C110.648 166.515 111.214 166.544 111.783 166.55C111.921 166.552 112.02 166.551 112.09 166.548C112.108 166.553 112.123 166.558 112.146 166.564C112.442 166.642 112.746 166.696 113.045 166.77C112.94 166.773 113.238 166.951 113.388 167.011C113.408 167.05 113.452 167.119 113.525 167.226C113.628 167.409 113.93 167.967 113.942 167.949C114.397 169.05 114.772 170.18 115.064 171.331C115.763 173.868 115.916 174.399 116.017 176.779C116.144 179.786 118.69 182.683 122.026 182.539C125.173 182.404 128.171 180.004 128.035 176.779C127.805 171.345 126.81 165.24 123.416 160.683Z" fill="#E6E6E6"/>
<path d="M72.3887 173.682C71.6996 169.679 71.0236 165.673 70.3211 161.671C69.6082 157.612 68.1523 153.895 64.8572 151.231C63.9768 150.52 63.0639 149.855 62.1471 149.193C61.8247 148.96 61.5029 148.726 61.1844 148.488C61.1653 148.474 61.1532 148.465 61.1367 148.453C61.1016 148.424 61.0596 148.39 61.0032 148.344C59.6298 147.23 58.3028 146.066 57.0387 144.829C55.9162 143.73 54.8427 142.585 53.8182 141.392C53.5622 141.095 53.3095 140.794 53.0601 140.491C53.0172 140.439 52.7861 140.153 52.6339 139.966C52.4923 139.779 52.2336 139.441 52.1901 139.382C51.8987 138.987 51.6125 138.589 51.3315 138.186C49.4175 135.437 47.7602 132.532 46.3788 129.504C46.2418 129.204 46.1081 128.901 45.9775 128.598C45.9425 128.505 45.8972 128.386 45.8371 128.227C45.5587 127.493 45.2808 126.76 45.0263 126.018C44.4855 124.441 44.0206 122.84 43.6315 121.216C43.4391 120.415 43.2659 119.609 43.1119 118.799C43.0325 118.382 42.9583 117.965 42.8891 117.547C42.8778 117.477 42.8103 117.026 42.7705 116.771C42.7411 116.515 42.6865 116.061 42.6791 115.991C42.6351 115.57 42.5961 115.148 42.562 114.725C42.4851 113.775 42.4332 112.823 42.4061 111.869C42.3599 110.174 42.3916 108.479 42.5011 106.785C42.5634 105.832 42.6522 104.883 42.7615 103.935C42.7681 103.877 42.7732 103.83 42.778 103.788C42.7846 103.746 42.7923 103.698 42.8015 103.638C42.8824 103.114 42.9675 102.591 43.0626 102.07C43.4231 100.09 43.8918 98.1292 44.467 96.1963C44.7393 95.2822 45.0351 94.3755 45.3544 93.4761C45.4967 93.0769 45.6436 92.6792 45.7949 92.2831C45.785 92.3086 46.2389 91.1973 46.2449 91.16C48.0458 87.0811 50.9914 83.3627 50.9954 78.7293C50.9981 75.5922 48.2296 72.5871 44.9862 72.7321C43.3691 72.7904 41.8388 73.4483 40.7178 74.5671C39.5968 75.6858 38.9727 77.1781 38.977 78.7293C38.977 78.7997 38.9766 78.8599 38.9764 78.9182C38.9461 79.0159 38.9208 79.0973 38.8981 79.1694C38.5469 79.901 38.1167 80.5962 37.7312 81.3096C36.6756 83.2622 35.7746 85.2789 34.9188 87.3252C33.5177 90.6575 32.4452 94.1083 31.7154 97.6323C30.1291 105.354 30.006 113.286 31.3519 121.049C33.6818 134.663 41.3654 147.695 52.0473 156.454C52.9743 157.215 53.9239 157.949 54.8825 158.669C55.2791 158.967 55.6791 159.259 56.0811 159.549C56.2711 159.687 57.0582 160.282 56.7119 159.993C57.4565 160.603 57.7699 160.909 57.9612 161.358C57.9888 161.461 58.0266 161.602 58.0778 161.794C58.2126 162.3 58.3406 162.805 58.4469 163.318C59.3767 167.801 60.023 172.359 60.7996 176.871C61.3335 179.971 65.3148 181.988 68.1918 181.059C71.5404 179.978 72.9607 177.004 72.3887 173.682Z" fill="#E6E6E6"/>
<path d="M124.023 185.309C121.499 185.316 119.076 184.362 117.285 182.658C115.494 180.953 114.481 178.638 114.468 176.218V169.647C107.292 170.417 82.7161 170.239 75.6715 169.154V175.956C75.6526 178.373 74.6376 180.685 72.8478 182.388C71.058 184.091 68.6385 185.047 66.1168 185.047C63.5951 185.047 61.1756 184.091 59.3858 182.388C57.596 180.685 56.581 178.373 56.5621 175.956V162.601C47.0208 157.52 39.0669 150.09 33.521 141.079C27.9752 132.067 25.0383 121.8 25.0137 111.337C25.0137 93.3963 33.4953 76.6604 48.2839 65.4204C57.8993 58.0875 69.5819 53.6775 81.8313 52.7569C83.494 52.6319 85.1668 52.5686 86.8035 52.5686C92.5695 52.5686 118.584 53.4224 125.111 55.2226L139.995 41.0655C140.214 40.8545 140.493 40.7108 140.797 40.6527C141.102 40.5945 141.417 40.6246 141.704 40.739C141.992 40.8491 142.239 41.0402 142.413 41.2874C142.586 41.5346 142.677 41.8262 142.674 42.1239V44.3749L145.572 41.6235C145.791 41.4123 146.07 41.2684 146.374 41.2101C146.678 41.1519 146.994 41.1819 147.28 41.2965C147.569 41.4065 147.816 41.5977 147.99 41.845C148.163 42.0922 148.254 42.384 148.252 42.6819V67.8356C155.72 74.2897 161.412 82.4101 164.823 91.4773C168.235 100.544 169.261 110.278 167.809 119.816C166.358 129.354 162.475 138.402 156.504 146.157C150.533 153.913 142.658 160.136 133.578 164.276V176.218C133.565 178.638 132.553 180.953 130.761 182.658C128.97 184.362 126.547 185.316 124.023 185.309ZM115.22 168.831V176.218C115.239 178.445 116.174 180.574 117.823 182.141C119.472 183.709 121.701 184.589 124.023 184.589C126.346 184.589 128.574 183.709 130.223 182.141C131.872 180.574 132.808 178.445 132.827 176.218V163.822L133.041 163.724C143.23 159.089 151.879 151.839 158.028 142.777C165.865 131.213 169.124 117.342 167.216 103.674C165.307 90.0067 158.358 77.4455 147.625 68.2641L147.5 68.1567V42.6819C147.503 42.5271 147.456 42.3753 147.366 42.2468C147.276 42.1184 147.147 42.0194 146.997 41.9634C146.847 41.9021 146.681 41.8855 146.522 41.9159C146.362 41.9463 146.216 42.0223 146.102 42.1338L141.923 46.1015V42.1239C141.926 41.9692 141.879 41.8173 141.789 41.6888C141.699 41.5604 141.57 41.4615 141.419 41.4054C141.269 41.3442 141.103 41.3278 140.944 41.3584C140.784 41.3891 140.637 41.4652 140.523 41.577L125.321 56.0373L125.105 55.9724C119.038 54.1518 92.6132 53.2887 86.8034 53.2887C85.1862 53.2887 83.5332 53.3512 81.8903 53.4748C69.7898 54.3842 58.2491 58.7407 48.7507 65.9846C34.1428 77.0872 25.7648 93.6175 25.7648 111.337C25.7897 121.707 28.7108 131.882 34.2246 140.804C39.7384 149.727 47.6438 157.071 57.1195 162.074L57.3132 162.177V175.956C57.3326 178.182 58.2686 180.31 59.9175 181.878C61.5664 183.445 63.7946 184.325 66.1168 184.325C68.439 184.325 70.6672 183.445 72.3161 181.878C73.965 180.31 74.901 178.182 74.9204 175.956V168.292L75.3654 168.372C81.696 169.514 108.353 169.694 114.795 168.884L115.22 168.831Z" fill="#3F3D56"/>
<path d="M97.1922 0C90.3601 0.00253269 83.7971 2.55342 78.8923 7.11276C73.9875 11.6721 71.1258 17.882 70.913 24.4283C70.9055 24.6839 70.9019 24.9431 70.9019 25.2023C70.9019 30.1869 72.4437 35.0595 75.3326 39.204C78.2214 43.3485 82.3274 46.5787 87.1313 48.4862C91.9352 50.3938 97.2214 50.8929 102.321 49.9204C107.421 48.948 112.106 46.5477 115.782 43.0231C119.459 39.4985 121.963 35.0078 122.977 30.1191C123.992 25.2303 123.471 20.1629 121.481 15.5578C119.491 10.9527 116.122 7.01663 111.798 4.24736C107.475 1.47809 102.392 0 97.1922 0ZM97.1922 49.6846C90.4209 49.6778 83.929 47.0963 79.1411 42.5064C74.3531 37.9166 71.6601 31.6934 71.653 25.2023C71.653 24.8675 71.6605 24.5363 71.6756 24.2086C71.8789 19.4129 73.5484 14.7803 76.4763 10.8868C79.4042 6.99337 83.4614 4.01082 88.1434 2.31005C92.8254 0.609284 97.9256 0.265336 102.81 1.32098C107.694 2.37663 112.147 4.78529 115.615 8.24746C119.082 11.7096 121.412 16.0726 122.314 20.7938C123.216 25.5149 122.65 30.3861 120.687 34.8015C118.724 39.2169 115.45 42.9817 111.273 45.6279C107.096 48.274 102.199 49.6847 97.1922 49.6846Z" fill="#3F3D56"/>
<path d="M119.351 25.2023C119.351 30.8361 117.017 36.239 112.861 40.2227C108.705 44.2063 103.069 46.4443 97.1922 46.4443C91.3153 46.4443 85.679 44.2063 81.5234 40.2227C77.3678 36.239 75.0332 30.8361 75.0332 25.2023C75.0332 24.5291 75.0669 23.8666 75.1308 23.2114C75.6648 17.7742 78.3627 12.7431 82.6645 9.16271C86.9662 5.58229 92.5412 3.72764 98.2318 3.98386C103.922 4.24008 109.292 6.58748 113.224 10.5386C117.157 14.4898 119.351 19.7412 119.351 25.2023Z" fill="#E6E6E6"/>
<path d="M103.791 26.6138C103.254 25.9368 102.547 25.4006 101.737 25.0548C100.737 24.6509 99.7044 24.3258 98.6494 24.0827V18.3006C100.271 18.535 101.792 19.1997 103.04 20.2196L104.264 17.7173C103.56 17.1159 102.752 16.6371 101.876 16.3024C100.904 15.9255 99.8851 15.6748 98.8447 15.5571V12.6265H96.0092V15.5859C94.9142 15.7038 93.858 16.0438 92.9107 16.5832C92.0549 17.0688 91.3345 17.7457 90.8111 18.5562C90.3115 19.3472 90.0527 20.2563 90.0638 21.1809C90.015 22.1828 90.3178 23.1715 90.9238 23.9891C91.4817 24.697 92.2184 25.2571 93.0645 25.6165C94.0803 26.0323 95.1306 26.3659 96.2045 26.6138V32.1547C94.2909 32.0163 92.4675 31.3189 90.9802 30.1565L89.7559 32.6623C90.5875 33.3214 91.5332 33.8356 92.5501 34.1817C93.6644 34.5639 94.8284 34.7965 96.0092 34.8729V37.7784H98.8447V34.8189C100.42 34.6539 101.897 34.0047 103.055 32.9683C103.565 32.4994 103.968 31.9341 104.238 31.3082C104.508 30.6822 104.64 30.0093 104.625 29.332C104.672 28.362 104.378 27.4049 103.791 26.6138ZM96.2045 23.4707C95.5137 23.2699 94.8715 22.9394 94.3152 22.4986C94.0948 22.3106 93.9206 22.0782 93.805 21.818C93.6894 21.5577 93.6354 21.2762 93.6468 20.9936C93.6263 20.3524 93.8721 19.7296 94.3303 19.2619C94.8382 18.7712 95.4936 18.4452 96.2045 18.3294V23.4707ZM100.43 31.1322C99.9505 31.6032 99.3267 31.9149 98.6494 32.0215V27.2546C99.2968 27.4211 99.9023 27.7114 100.43 28.1079C100.63 28.2716 100.788 28.4763 100.894 28.707C101 28.9376 101.051 29.1882 101.042 29.44C101.068 30.0579 100.849 30.6624 100.43 31.1322Z" fill="#6C63FF"/>
<path d="M27.6055 93.3389C22.3653 92.5967 17.3537 90.7802 12.9121 88.0132C10.7117 86.6434 8.67468 85.0463 6.83758 83.2506C5.02435 81.4776 3.28971 79.4626 2.39159 77.1015C1.52748 74.917 1.57202 72.4978 2.51599 70.3439C3.4471 68.2032 5.22571 66.5038 7.46187 65.6183C9.71142 64.7583 12.4293 64.6663 14.6186 65.6081C15.6619 66.0465 16.5647 66.7431 17.2343 67.6264C17.5455 68.0337 17.776 68.4923 17.9142 68.9795C18.0424 69.4209 18.0541 69.886 17.9481 70.3329C17.8197 70.779 17.5933 71.1936 17.2841 71.549C16.9749 71.9044 16.59 72.1923 16.1552 72.3934C15.1982 72.864 14.1614 73.1671 13.0934 73.2885C12.0192 73.4289 10.4761 73.5567 9.61257 72.7301C9.43481 72.5666 9.29499 72.3689 9.20222 72.1501C9.13731 71.9826 9.1151 71.8026 9.13747 71.6252C9.12488 71.7034 9.18957 71.4551 9.18589 71.465C9.17223 71.5017 9.11308 71.5912 9.19715 71.4537C9.22342 71.4084 9.25267 71.3648 9.28471 71.323C9.25617 71.3584 9.19348 71.4175 9.30542 71.3162C9.39792 71.2191 9.51685 71.1487 9.6488 71.113C9.70078 71.0984 9.75352 71.0869 9.80565 71.0732C9.93815 71.0385 9.67359 71.0751 9.80914 71.071C9.86145 71.0694 9.91438 71.0706 9.96651 71.0683C10.0995 71.0626 9.83534 71.0336 9.96276 71.0643C10.0122 71.0762 10.0612 71.0879 10.11 71.1026C10.2159 71.1346 10.035 71.0281 10.1068 71.1078C10.1909 71.2012 10.0184 71.0169 10.114 71.1074C10.1616 71.1522 10.2065 71.1996 10.2484 71.2493C10.4142 71.4063 10.6379 71.4943 10.8709 71.4943C11.1039 71.4943 11.3276 71.4063 11.4934 71.2493C11.6536 71.0886 11.743 70.8749 11.743 70.6526C11.743 70.4303 11.6536 70.2165 11.4934 70.0558C10.6253 69.0242 8.91055 69.2791 8.03237 70.151C6.9124 71.2629 7.35591 73.0252 8.44532 73.9954C9.67861 75.0938 11.4253 75.1702 13.0117 74.9859C14.3524 74.8628 15.659 74.5089 16.8686 73.9411C18.0705 73.375 19.0105 72.4015 19.5066 71.2091C19.7306 70.5728 19.8111 69.8981 19.7427 69.2297C19.6743 68.5613 19.4586 67.9145 19.1099 67.332C17.7092 64.8077 14.8089 63.5135 11.9422 63.2894C10.4663 63.1785 8.98208 63.3494 7.57549 63.7921C6.16889 64.2347 4.86784 64.9404 3.74761 65.8682C1.58842 67.7316 0.258832 70.3192 0.0338149 73.0959C-0.216417 75.9747 0.948752 78.7705 2.64754 81.0938C4.42597 83.4543 6.54821 85.5583 8.9495 87.3415C13.644 90.9344 19.1506 93.4239 25.0287 94.6109C25.7278 94.7493 26.4308 94.8679 27.1374 94.9664C27.3623 95.0187 27.5995 94.9868 27.8007 94.8773C28.0019 94.7678 28.152 94.5889 28.2204 94.377C28.2807 94.1612 28.2501 93.9313 28.135 93.7371C28.0199 93.5428 27.8297 93.3998 27.6055 93.3389Z" fill="#3F3D56"/>
<path d="M111.504 56.6599C103.826 56.556 96.1728 56.7428 88.5437 57.2203C85.9359 57.3835 83.6797 58.267 83.6797 59.752C83.6797 60.9936 85.918 62.4482 88.5437 62.2838C96.169 61.8065 103.822 61.6197 111.504 61.7235C117.766 61.8082 117.762 56.7446 111.504 56.6599Z" fill="#CCCCCC"/>
<path d="M100.156 61.4727C99.3263 61.4727 79.8352 61.443 79.8352 58.8621C79.8352 56.2814 99.3263 56.2517 100.156 56.2517C100.986 56.2517 120.477 56.2814 120.477 58.8621C120.477 61.443 100.986 61.4727 100.156 61.4727ZM80.5974 58.8621C81.1307 59.6446 88.2953 60.7527 100.156 60.7527C112.017 60.7527 119.181 59.6446 119.715 58.8621C119.181 58.0798 112.017 56.9718 100.156 56.9718C88.2953 56.9718 81.1307 58.0798 80.5974 58.8621Z" fill="#3F3D56"/>
<path d="M161.996 129.321C166.311 129.206 171.681 129.063 175.818 126.166C177.05 125.268 178.062 124.122 178.783 122.81C179.505 121.497 179.918 120.05 179.994 118.568C180.079 116.28 179.217 114.283 177.566 112.946C175.406 111.196 172.25 110.785 168.85 111.743L172.373 87.0638L169.787 86.7241L165.646 115.738L167.805 114.788C170.309 113.687 173.746 113.127 175.881 114.857C176.406 115.309 176.814 115.872 177.075 116.5C177.336 117.128 177.443 117.806 177.386 118.48C177.323 119.583 177.012 120.659 176.476 121.637C175.94 122.615 175.19 123.47 174.278 124.145C171.059 126.399 166.778 126.69 161.924 126.82L161.996 129.321Z" fill="#3F3D56"/>
<path d="M154.846 89.1921H140.787V91.6944H154.846V89.1921Z" fill="#3F3D56"/>
<path d="M123.416 160.683C121.492 158.101 118.888 156.211 115.614 155.504C112.76 154.888 109.825 154.993 106.923 155.014L70.2318 155.285C67.0895 155.309 64.0767 157.918 64.2226 161.046C64.3675 164.147 66.8636 166.831 70.2318 166.807C80.9798 166.727 91.7277 166.648 102.475 166.568C105.009 166.55 107.545 166.506 110.079 166.514C110.648 166.515 111.214 166.544 111.783 166.55C111.921 166.552 112.02 166.551 112.09 166.548C112.108 166.553 112.123 166.558 112.146 166.564C112.442 166.642 112.746 166.696 113.045 166.77C112.94 166.773 113.238 166.951 113.388 167.011C113.408 167.05 113.452 167.119 113.525 167.226C113.628 167.409 113.93 167.967 113.942 167.949C114.397 169.05 114.772 170.18 115.064 171.331C115.763 173.868 115.916 174.399 116.017 176.779C116.144 179.786 118.69 182.683 122.026 182.54C125.173 182.404 128.171 180.004 128.035 176.779C127.805 171.345 126.81 165.24 123.416 160.683Z" fill="#EBF6FF"/>
<path d="M72.3887 173.682C71.6996 169.679 71.0236 165.673 70.3211 161.671C69.6082 157.612 68.1523 153.895 64.8572 151.231C63.9768 150.52 63.0639 149.855 62.1471 149.193C61.8247 148.96 61.5029 148.726 61.1844 148.488C61.1653 148.474 61.1532 148.465 61.1367 148.453C61.1016 148.424 61.0596 148.39 61.0032 148.344C59.6298 147.23 58.3028 146.066 57.0387 144.829C55.9162 143.73 54.8427 142.585 53.8182 141.392C53.5622 141.095 53.3095 140.794 53.0601 140.491C53.0172 140.439 52.7861 140.153 52.6339 139.966C52.4923 139.779 52.2336 139.441 52.1901 139.382C51.8987 138.987 51.6125 138.589 51.3315 138.186C49.4175 135.437 47.7602 132.532 46.3788 129.504C46.2418 129.204 46.1081 128.901 45.9775 128.598C45.9425 128.505 45.8972 128.386 45.8371 128.227C45.5587 127.493 45.2808 126.76 45.0263 126.018C44.4855 124.441 44.0206 122.84 43.6315 121.216C43.4391 120.415 43.2659 119.609 43.1119 118.799C43.0325 118.382 42.9583 117.965 42.8891 117.547C42.8778 117.477 42.8103 117.026 42.7705 116.771C42.7411 116.515 42.6865 116.061 42.6791 115.991C42.6351 115.57 42.5961 115.148 42.562 114.725C42.4851 113.775 42.4332 112.823 42.4061 111.869C42.3599 110.174 42.3916 108.479 42.5011 106.785C42.5634 105.832 42.6522 104.883 42.7615 103.935C42.7681 103.877 42.7732 103.83 42.778 103.788C42.7846 103.746 42.7923 103.698 42.8015 103.638C42.8824 103.114 42.9675 102.591 43.0626 102.07C43.4231 100.09 43.8918 98.1292 44.467 96.1963C44.7393 95.2822 45.0351 94.3755 45.3544 93.4761C45.4967 93.0769 45.6436 92.6792 45.7949 92.2831C45.785 92.3086 46.2389 91.1973 46.2449 91.16C48.0458 87.0811 50.9914 83.3627 50.9954 78.7293C50.9981 75.5922 48.2296 72.5871 44.9862 72.7321C43.3691 72.7904 41.8388 73.4483 40.7178 74.5671C39.5968 75.6858 38.9727 77.1781 38.977 78.7293C38.977 78.7997 38.9766 78.8599 38.9764 78.9182C38.9461 79.0159 38.9208 79.0973 38.8981 79.1694C38.5469 79.901 38.1167 80.5962 37.7312 81.3096C36.6756 83.2622 35.7746 85.2789 34.9188 87.3252C33.5177 90.6575 32.4452 94.1083 31.7154 97.6323C30.1291 105.354 30.006 113.286 31.3519 121.049C33.6818 134.663 41.3654 147.695 52.0473 156.454C52.9743 157.215 53.9239 157.949 54.8825 158.669C55.2791 158.967 55.6791 159.259 56.0811 159.549C56.2711 159.687 57.0582 160.282 56.7119 159.993C57.4565 160.603 57.7699 160.909 57.9612 161.358C57.9888 161.461 58.0266 161.602 58.0778 161.794C58.2126 162.3 58.3406 162.805 58.4469 163.318C59.3767 167.801 60.023 172.359 60.7996 176.871C61.3335 179.971 65.3148 181.988 68.1918 181.059C71.5404 179.978 72.9607 177.004 72.3887 173.682Z" fill="#EBF6FF"/>
<path d="M124.023 185.309C121.499 185.316 119.076 184.362 117.285 182.658C115.494 180.953 114.481 178.638 114.468 176.218V169.647C107.292 170.417 82.7161 170.239 75.6715 169.154V175.956C75.6526 178.373 74.6376 180.685 72.8478 182.388C71.058 184.091 68.6385 185.047 66.1168 185.047C63.5951 185.047 61.1756 184.091 59.3858 182.388C57.596 180.685 56.581 178.373 56.5621 175.956V162.601C47.0208 157.52 39.0669 150.09 33.521 141.079C27.9752 132.067 25.0383 121.8 25.0137 111.337C25.0137 93.3963 33.4953 76.6604 48.2839 65.4204C57.8993 58.0875 69.5819 53.6775 81.8313 52.7569C83.494 52.6319 85.1668 52.5686 86.8035 52.5686C92.5695 52.5686 118.584 53.4224 125.111 55.2226L139.995 41.0655C140.214 40.8545 140.493 40.7108 140.797 40.6527C141.102 40.5945 141.417 40.6246 141.704 40.739C141.992 40.8491 142.239 41.0402 142.413 41.2874C142.586 41.5346 142.677 41.8262 142.674 42.1239V44.3749L145.572 41.6235C145.791 41.4123 146.07 41.2684 146.374 41.2101C146.678 41.1519 146.994 41.1819 147.28 41.2965C147.569 41.4065 147.816 41.5977 147.99 41.845C148.163 42.0922 148.254 42.384 148.252 42.6819V67.8356C155.72 74.2897 161.412 82.4101 164.823 91.4773C168.235 100.544 169.261 110.278 167.809 119.816C166.358 129.354 162.475 138.402 156.504 146.157C150.533 153.913 142.658 160.136 133.578 164.276V176.218C133.565 178.638 132.553 180.953 130.761 182.658C128.97 184.362 126.547 185.316 124.023 185.309ZM115.22 168.831V176.218C115.239 178.445 116.174 180.574 117.823 182.141C119.472 183.709 121.701 184.589 124.023 184.589C126.346 184.589 128.574 183.709 130.223 182.141C131.872 180.574 132.808 178.445 132.827 176.218V163.822L133.041 163.724C143.23 159.089 151.879 151.839 158.028 142.777C165.865 131.213 169.124 117.342 167.216 103.674C165.307 90.0067 158.358 77.4455 147.625 68.2641L147.5 68.1567V42.6819C147.503 42.5271 147.456 42.3753 147.366 42.2468C147.276 42.1184 147.147 42.0194 146.997 41.9634C146.847 41.9021 146.681 41.8855 146.522 41.9159C146.362 41.9463 146.216 42.0223 146.102 42.1338L141.923 46.1015V42.1239C141.926 41.9692 141.879 41.8173 141.789 41.6888C141.699 41.5604 141.57 41.4615 141.419 41.4054C141.269 41.3442 141.103 41.3278 140.944 41.3584C140.784 41.3891 140.637 41.4652 140.523 41.577L125.321 56.0373L125.105 55.9724C119.038 54.1518 92.6132 53.2887 86.8034 53.2887C85.1862 53.2887 83.5332 53.3512 81.8903 53.4748C69.7898 54.3842 58.2491 58.7407 48.7507 65.9846C34.1428 77.0872 25.7648 93.6175 25.7648 111.337C25.7897 121.707 28.7108 131.882 34.2246 140.804C39.7384 149.727 47.6438 157.071 57.1195 162.074L57.3132 162.177V175.956C57.3326 178.182 58.2686 180.31 59.9175 181.878C61.5664 183.445 63.7946 184.325 66.1168 184.325C68.439 184.325 70.6672 183.445 72.3161 181.878C73.965 180.31 74.901 178.182 74.9204 175.956V168.292L75.3654 168.372C81.696 169.514 108.353 169.694 114.795 168.884L115.22 168.831Z" fill="#3F3D56"/>
<path d="M97.1922 0C90.3601 0.00253269 83.7971 2.55342 78.8923 7.11276C73.9875 11.6721 71.1258 17.882 70.913 24.4283C70.9055 24.6839 70.9019 24.9431 70.9019 25.2023C70.9019 30.1869 72.4437 35.0595 75.3326 39.204C78.2214 43.3485 82.3274 46.5787 87.1313 48.4862C91.9352 50.3938 97.2214 50.8929 102.321 49.9204C107.421 48.948 112.106 46.5477 115.782 43.0231C119.459 39.4985 121.963 35.0078 122.977 30.1191C123.992 25.2303 123.471 20.1629 121.481 15.5578C119.491 10.9527 116.122 7.01663 111.798 4.24736C107.475 1.47809 102.392 0 97.1922 0ZM97.1922 49.6846C90.4209 49.6778 83.929 47.0963 79.1411 42.5064C74.3531 37.9166 71.6601 31.6934 71.653 25.2023C71.653 24.8675 71.6605 24.5363 71.6756 24.2086C71.8789 19.4129 73.5484 14.7803 76.4763 10.8868C79.4042 6.99337 83.4614 4.01082 88.1434 2.31005C92.8254 0.609284 97.9256 0.265336 102.81 1.32098C107.694 2.37663 112.147 4.78529 115.615 8.24746C119.082 11.7096 121.412 16.0726 122.314 20.7938C123.216 25.5149 122.65 30.3861 120.687 34.8015C118.724 39.2169 115.45 42.9817 111.273 45.6279C107.096 48.274 102.199 49.6847 97.1922 49.6846Z" fill="#3F3D56"/>
<path d="M119.351 25.2023C119.351 30.8361 117.017 36.239 112.861 40.2227C108.705 44.2063 103.069 46.4443 97.1922 46.4443C91.3153 46.4443 85.679 44.2063 81.5234 40.2227C77.3678 36.239 75.0332 30.8361 75.0332 25.2023C75.0332 24.5291 75.0669 23.8666 75.1308 23.2114C75.6648 17.7742 78.3627 12.7431 82.6645 9.16271C86.9662 5.58229 92.5412 3.72764 98.2318 3.98386C103.922 4.24008 109.292 6.58748 113.224 10.5386C117.157 14.4898 119.351 19.7412 119.351 25.2023Z" fill="#AD3CC5"/>
<path d="M103.791 26.6138C103.254 25.9368 102.547 25.4006 101.737 25.0548C100.737 24.6509 99.7044 24.3258 98.6494 24.0827V18.3006C100.271 18.535 101.792 19.1997 103.04 20.2196L104.264 17.7173C103.56 17.1159 102.752 16.6371 101.876 16.3024C100.904 15.9255 99.8851 15.6748 98.8447 15.5571V12.6265H96.0092V15.5859C94.9142 15.7038 93.858 16.0438 92.9107 16.5832C92.0549 17.0688 91.3345 17.7457 90.8111 18.5562C90.3115 19.3472 90.0527 20.2563 90.0638 21.1809C90.015 22.1828 90.3178 23.1715 90.9238 23.9891C91.4817 24.697 92.2184 25.2571 93.0645 25.6165C94.0803 26.0323 95.1306 26.3659 96.2045 26.6138V32.1547C94.2909 32.0163 92.4675 31.3189 90.9802 30.1565L89.7559 32.6623C90.5875 33.3214 91.5332 33.8356 92.5501 34.1817C93.6644 34.5639 94.8284 34.7965 96.0092 34.8729V37.7784H98.8447V34.8189C100.42 34.6539 101.897 34.0047 103.055 32.9683C103.565 32.4994 103.968 31.9341 104.238 31.3082C104.508 30.6822 104.64 30.0093 104.625 29.332C104.672 28.362 104.378 27.4049 103.791 26.6138ZM96.2045 23.4707C95.5137 23.2699 94.8715 22.9394 94.3152 22.4986C94.0948 22.3106 93.9206 22.0782 93.805 21.818C93.6894 21.5577 93.6354 21.2762 93.6468 20.9936C93.6263 20.3524 93.8721 19.7296 94.3303 19.2619C94.8382 18.7712 95.4936 18.4452 96.2045 18.3294V23.4707ZM100.43 31.1322C99.9505 31.6032 99.3267 31.9149 98.6494 32.0215V27.2546C99.2968 27.4211 99.9023 27.7114 100.43 28.1079C100.63 28.2716 100.788 28.4763 100.894 28.707C101 28.9376 101.051 29.1882 101.042 29.44C101.068 30.0579 100.849 30.6624 100.43 31.1322Z" fill="#2F2E41"/>
<path d="M27.6055 93.3389C22.3653 92.5967 17.3537 90.7802 12.9121 88.0132C10.7117 86.6434 8.67468 85.0463 6.83758 83.2506C5.02435 81.4776 3.28971 79.4626 2.39159 77.1015C1.52748 74.917 1.57202 72.4978 2.51599 70.3439C3.4471 68.2032 5.22571 66.5038 7.46187 65.6183C9.71142 64.7583 12.4293 64.6663 14.6186 65.6081C15.6619 66.0465 16.5647 66.7431 17.2343 67.6264C17.5455 68.0337 17.776 68.4923 17.9142 68.9795C18.0424 69.4209 18.0541 69.886 17.9481 70.3329C17.8197 70.779 17.5933 71.1936 17.2841 71.549C16.9749 71.9044 16.59 72.1923 16.1552 72.3934C15.1982 72.864 14.1614 73.1671 13.0934 73.2885C12.0192 73.4289 10.4761 73.5567 9.61257 72.7301C9.43481 72.5666 9.29499 72.3689 9.20222 72.1501C9.13731 71.9826 9.1151 71.8026 9.13747 71.6252C9.12488 71.7034 9.18957 71.4551 9.18589 71.465C9.17223 71.5017 9.11308 71.5912 9.19715 71.4537C9.22342 71.4084 9.25267 71.3648 9.28471 71.323C9.25617 71.3584 9.19348 71.4175 9.30542 71.3162C9.39792 71.2191 9.51685 71.1487 9.6488 71.113C9.70078 71.0984 9.75352 71.0869 9.80565 71.0732C9.93815 71.0385 9.67359 71.0751 9.80914 71.071C9.86145 71.0694 9.91438 71.0706 9.96651 71.0683C10.0995 71.0626 9.83534 71.0336 9.96276 71.0643C10.0122 71.0762 10.0612 71.0879 10.11 71.1026C10.2159 71.1346 10.035 71.0281 10.1068 71.1078C10.1909 71.2012 10.0184 71.0169 10.114 71.1074C10.1616 71.1522 10.2065 71.1996 10.2484 71.2493C10.4142 71.4063 10.6379 71.4943 10.8709 71.4943C11.1039 71.4943 11.3276 71.4063 11.4934 71.2493C11.6536 71.0886 11.743 70.8749 11.743 70.6526C11.743 70.4303 11.6536 70.2165 11.4934 70.0558C10.6253 69.0242 8.91055 69.2791 8.03237 70.151C6.9124 71.2629 7.35591 73.0252 8.44532 73.9954C9.67861 75.0938 11.4253 75.1702 13.0117 74.9859C14.3524 74.8628 15.659 74.5089 16.8686 73.9411C18.0705 73.375 19.0105 72.4015 19.5066 71.2091C19.7306 70.5728 19.8111 69.8981 19.7427 69.2297C19.6743 68.5613 19.4586 67.9145 19.1099 67.332C17.7092 64.8077 14.8089 63.5135 11.9422 63.2894C10.4663 63.1785 8.98208 63.3494 7.57549 63.7921C6.16889 64.2347 4.86784 64.9404 3.74761 65.8682C1.58842 67.7316 0.258832 70.3192 0.0338149 73.0959C-0.216417 75.9747 0.948752 78.7705 2.64754 81.0938C4.42597 83.4543 6.54821 85.5583 8.9495 87.3415C13.644 90.9344 19.1506 93.4239 25.0287 94.6109C25.7278 94.7493 26.4308 94.8679 27.1374 94.9664C27.3623 95.0187 27.5995 94.9868 27.8007 94.8773C28.0019 94.7678 28.152 94.5889 28.2204 94.377C28.2807 94.1612 28.2501 93.9313 28.135 93.7371C28.0199 93.5428 27.8297 93.3998 27.6055 93.3389Z" fill="#3F3D56"/>
<path d="M111.504 56.6599C103.826 56.556 96.1728 56.7428 88.5437 57.2203C85.9359 57.3835 83.6797 58.267 83.6797 59.752C83.6797 60.9936 85.918 62.4482 88.5437 62.2838C96.169 61.8065 103.822 61.6197 111.504 61.7235C117.766 61.8082 117.762 56.7446 111.504 56.6599Z" fill="#CCCCCC"/>
<path d="M100.156 61.4727C99.3263 61.4727 79.8352 61.443 79.8352 58.8621C79.8352 56.2814 99.3263 56.2517 100.156 56.2517C100.986 56.2517 120.477 56.2814 120.477 58.8621C120.477 61.443 100.986 61.4727 100.156 61.4727ZM80.5974 58.8621C81.1307 59.6446 88.2953 60.7527 100.156 60.7527C112.017 60.7527 119.181 59.6446 119.715 58.8621C119.181 58.0798 112.017 56.9718 100.156 56.9718C88.2953 56.9718 81.1307 58.0798 80.5974 58.8621Z" fill="#3F3D56"/>
<path d="M161.996 129.321C166.311 129.206 171.681 129.063 175.818 126.166C177.05 125.268 178.062 124.122 178.783 122.81C179.505 121.497 179.918 120.05 179.994 118.568C180.079 116.28 179.217 114.283 177.566 112.946C175.406 111.196 172.25 110.785 168.85 111.743L172.373 87.0638L169.787 86.7241L165.646 115.738L167.805 114.788C170.309 113.687 173.746 113.127 175.881 114.857C176.406 115.309 176.814 115.872 177.075 116.5C177.336 117.128 177.443 117.806 177.386 118.48C177.323 119.583 177.012 120.659 176.476 121.637C175.94 122.615 175.19 123.47 174.278 124.145C171.059 126.399 166.778 126.69 161.924 126.82L161.996 129.321Z" fill="#3F3D56"/>
<path d="M154.846 89.1921H140.787V91.6944H154.846V89.1921Z" fill="#3F3D56"/>
</svg>
