<svg width="32" height="33" viewBox="0 0 32 33" fill="none" xmlns="http://www.w3.org/2000/svg">
<g id="uil:money-withdraw">
<path id="Vector" d="M16.0002 16.5C15.209 16.5 14.4357 16.7346 13.7779 17.1741C13.1201 17.6136 12.6074 18.2384 12.3046 18.9693C12.0019 19.7002 11.9227 20.5044 12.077 21.2803C12.2314 22.0563 12.6123 22.769 13.1717 23.3284C13.7311 23.8878 14.4439 24.2688 15.2198 24.4231C15.9957 24.5775 16.8 24.4983 17.5309 24.1955C18.2618 23.8928 18.8865 23.3801 19.326 22.7223C19.7656 22.0645 20.0002 21.2911 20.0002 20.5C20.0002 19.4391 19.5787 18.4217 18.8286 17.6716C18.0784 16.9214 17.061 16.5 16.0002 16.5ZM16.0002 21.8333C15.7365 21.8333 15.4787 21.7551 15.2594 21.6086C15.0401 21.4621 14.8692 21.2539 14.7683 21.0102C14.6674 20.7666 14.641 20.4985 14.6924 20.2399C14.7439 19.9812 14.8709 19.7437 15.0574 19.5572C15.2438 19.3707 15.4814 19.2437 15.74 19.1923C15.9987 19.1408 16.2668 19.1672 16.5104 19.2681C16.754 19.3691 16.9623 19.54 17.1088 19.7592C17.2553 19.9785 17.3335 20.2363 17.3335 20.5C17.3335 20.8536 17.193 21.1927 16.943 21.4428C16.6929 21.6928 16.3538 21.8333 16.0002 21.8333ZM15.0535 13.4467C15.1803 13.568 15.3298 13.6632 15.4935 13.7267C15.6531 13.7972 15.8257 13.8336 16.0002 13.8336C16.1747 13.8336 16.3472 13.7972 16.5068 13.7267C16.6705 13.6632 16.82 13.568 16.9468 13.4467L20.0002 10.4467C20.2583 10.1885 20.4033 9.83839 20.4033 9.47332C20.4033 9.10825 20.2583 8.75813 20.0002 8.49999C19.742 8.24185 19.3919 8.09682 19.0268 8.09682C18.6618 8.09682 18.3116 8.24185 18.0535 8.49999L17.3335 9.28666V4.49999C17.3335 4.14637 17.193 3.80723 16.943 3.55718C16.6929 3.30713 16.3538 3.16666 16.0002 3.16666C15.6465 3.16666 15.3074 3.30713 15.0574 3.55718C14.8073 3.80723 14.6668 4.14637 14.6668 4.49999V9.28666L13.9468 8.49999C13.6887 8.24185 13.3386 8.09682 12.9735 8.09682C12.6084 8.09682 12.2583 8.24185 12.0002 8.49999C11.742 8.75813 11.597 9.10825 11.597 9.47332C11.597 9.83839 11.742 10.1885 12.0002 10.4467L15.0535 13.4467ZM25.3335 20.5C25.3335 20.2363 25.2553 19.9785 25.1088 19.7592C24.9623 19.54 24.754 19.3691 24.5104 19.2681C24.2668 19.1672 23.9987 19.1408 23.74 19.1923C23.4814 19.2437 23.2438 19.3707 23.0574 19.5572C22.8709 19.7437 22.7439 19.9812 22.6924 20.2399C22.641 20.4985 22.6674 20.7666 22.7683 21.0102C22.8692 21.2539 23.0401 21.4621 23.2594 21.6086C23.4787 21.7551 23.7365 21.8333 24.0002 21.8333C24.3538 21.8333 24.6929 21.6928 24.943 21.4428C25.193 21.1927 25.3335 20.8536 25.3335 20.5ZM26.6668 11.1667H22.6668C22.3132 11.1667 21.9741 11.3071 21.724 11.5572C21.474 11.8072 21.3335 12.1464 21.3335 12.5C21.3335 12.8536 21.474 13.1927 21.724 13.4428C21.9741 13.6928 22.3132 13.8333 22.6668 13.8333H26.6668C27.0205 13.8333 27.3596 13.9738 27.6096 14.2238C27.8597 14.4739 28.0002 14.813 28.0002 15.1667V25.8333C28.0002 26.1869 27.8597 26.5261 27.6096 26.7761C27.3596 27.0262 27.0205 27.1667 26.6668 27.1667H5.3335C4.97987 27.1667 4.64074 27.0262 4.39069 26.7761C4.14064 26.5261 4.00016 26.1869 4.00016 25.8333V15.1667C4.00016 14.813 4.14064 14.4739 4.39069 14.2238C4.64074 13.9738 4.97987 13.8333 5.3335 13.8333H9.3335C9.68712 13.8333 10.0263 13.6928 10.2763 13.4428C10.5264 13.1927 10.6668 12.8536 10.6668 12.5C10.6668 12.1464 10.5264 11.8072 10.2763 11.5572C10.0263 11.3071 9.68712 11.1667 9.3335 11.1667H5.3335C4.27263 11.1667 3.25521 11.5881 2.50507 12.3382C1.75492 13.0884 1.3335 14.1058 1.3335 15.1667V25.8333C1.3335 26.8942 1.75492 27.9116 2.50507 28.6617C3.25521 29.4119 4.27263 29.8333 5.3335 29.8333H26.6668C27.7277 29.8333 28.7451 29.4119 29.4953 28.6617C30.2454 27.9116 30.6668 26.8942 30.6668 25.8333V15.1667C30.6668 14.1058 30.2454 13.0884 29.4953 12.3382C28.7451 11.5881 27.7277 11.1667 26.6668 11.1667ZM6.66683 20.5C6.66683 20.7637 6.74503 21.0215 6.89154 21.2407C7.03805 21.46 7.24628 21.6309 7.48992 21.7318C7.73355 21.8327 8.00164 21.8591 8.26028 21.8077C8.51892 21.7563 8.7565 21.6293 8.94297 21.4428C9.12944 21.2563 9.25643 21.0188 9.30788 20.7601C9.35932 20.5015 9.33292 20.2334 9.232 19.9897C9.13109 19.7461 8.96019 19.5379 8.74092 19.3914C8.52166 19.2449 8.26387 19.1667 8.00016 19.1667C7.64654 19.1667 7.3074 19.3071 7.05735 19.5572C6.80731 19.8072 6.66683 20.1464 6.66683 20.5Z" fill="#545454"/>
</g>
</svg>
