<svg width="42" height="42" viewBox="0 0 42 42" fill="none" xmlns="http://www.w3.org/2000/svg">
<g clip-path="url(#clip0_311_2030)">
<path d="M27.3 21.0001C27.3 22.671 26.6362 24.2734 25.4547 25.4549C24.2733 26.6363 22.6708 27.3001 21 27.3001C19.3291 27.3001 17.7267 26.6363 16.5452 25.4549C15.3637 24.2734 14.7 22.671 14.7 21.0001C14.7 20.641 14.7378 20.2903 14.8029 19.9501H12.6V28.3438C12.6 28.9276 13.0725 29.4001 13.6563 29.4001H28.3458C28.6255 29.3995 28.8937 29.288 29.0913 29.09C29.289 28.8919 29.4 28.6236 29.4 28.3438V19.9501H27.1971C27.2622 20.2903 27.3 20.641 27.3 21.0001ZM21 25.2001C21.5517 25.2 22.0979 25.0912 22.6076 24.8799C23.1172 24.6687 23.5802 24.3591 23.9702 23.9689C24.3603 23.5787 24.6696 23.1155 24.8806 22.6057C25.0916 22.096 25.2001 21.5497 25.2 20.998C25.1998 20.4463 25.091 19.9 24.8798 19.3904C24.6685 18.8808 24.359 18.4177 23.9688 18.0277C23.5786 17.6377 23.1154 17.3284 22.6056 17.1174C22.0959 16.9064 21.5496 16.7979 20.9979 16.798C19.8837 16.7983 18.8152 17.2411 18.0276 18.0292C17.2399 18.8172 16.7976 19.8859 16.7979 21.0001C16.7981 22.1143 17.241 23.1827 18.0291 23.9704C18.8171 24.758 19.8858 25.2004 21 25.2001ZM26.04 16.5901H28.5579C28.7251 16.5901 28.8856 16.5238 29.0041 16.4057C29.1226 16.2876 29.1894 16.1274 29.19 15.9601V13.4422C29.19 13.2745 29.1234 13.1138 29.0048 12.9952C28.8863 12.8767 28.7255 12.8101 28.5579 12.8101H26.04C25.8723 12.8101 25.7115 12.8767 25.593 12.9952C25.4745 13.1138 25.4079 13.2745 25.4079 13.4422V15.9601C25.41 16.3066 25.6935 16.5901 26.04 16.5901ZM21 0.840088C15.6532 0.840088 10.5254 2.96408 6.74469 6.74482C2.96396 10.5255 0.839966 15.6533 0.839966 21.0001C0.839966 26.3469 2.96396 31.4746 6.74469 35.2554C10.5254 39.0361 15.6532 41.1601 21 41.1601C23.6474 41.1601 26.2689 40.6386 28.7149 39.6255C31.1608 38.6124 33.3832 37.1274 35.2552 35.2554C37.1273 33.3833 38.6122 31.1609 39.6254 28.715C40.6385 26.2691 41.16 23.6475 41.16 21.0001C41.16 18.3526 40.6385 15.7311 39.6254 13.2852C38.6122 10.8393 37.1273 8.61684 35.2552 6.74482C33.3832 4.87279 31.1608 3.38781 28.7149 2.37468C26.2689 1.36154 23.6474 0.840088 21 0.840088ZM31.5 29.167C31.5 30.4501 30.45 31.5001 29.1669 31.5001H12.8331C11.55 31.5001 10.5 30.4501 10.5 29.167V12.8332C10.5 11.5501 11.55 10.5001 12.8331 10.5001H29.1669C30.45 10.5001 31.5 11.5501 31.5 12.8332V29.167Z" fill="white"/>
</g>
<defs>
<clipPath id="clip0_311_2030">
<rect width="42" height="42" fill="white"/>
</clipPath>
</defs>
</svg>
