<svg width="24" height="25" viewBox="0 0 24 25" fill="none" xmlns="http://www.w3.org/2000/svg">
<g id="lucide:box">
<g id="Group">
<path id="Vector" d="M21 8.49999C20.9996 8.14927 20.9071 7.8048 20.7315 7.50116C20.556 7.19751 20.3037 6.94536 20 6.76999L13 2.76999C12.696 2.59446 12.3511 2.50204 12 2.50204C11.6489 2.50204 11.304 2.59446 11 2.76999L4 6.76999C3.69626 6.94536 3.44398 7.19751 3.26846 7.50116C3.09294 7.8048 3.00036 8.14927 3 8.49999V16.5C3.00036 16.8507 3.09294 17.1952 3.26846 17.4988C3.44398 17.8025 3.69626 18.0546 4 18.23L11 22.23C11.304 22.4055 11.6489 22.4979 12 22.4979C12.3511 22.4979 12.696 22.4055 13 22.23L20 18.23C20.3037 18.0546 20.556 17.8025 20.7315 17.4988C20.9071 17.1952 20.9996 16.8507 21 16.5V8.49999Z" stroke="#545454" stroke-width="2.66667" stroke-linecap="round" stroke-linejoin="round"/>
<path id="Vector_2" d="M3.2998 7.5L11.9998 12.5M11.9998 12.5L20.6998 7.5M11.9998 12.5V22.5" stroke="#545454" stroke-width="2.66667" stroke-linecap="round" stroke-linejoin="round"/>
</g>
</g>
</svg>
