<svg width="216" height="178" viewBox="0 0 216 178" fill="none" xmlns="http://www.w3.org/2000/svg">
<g id="Ilustracion negocio">
<path id="Rectangle 338" d="M215.884 0.116699H0.092041V132.199H215.884V0.116699Z" fill="#E6E6E6"/>
<path id="Rectangle 339" d="M209.714 16.6831H6.2627V124.385H209.714V16.6831Z" fill="white"/>
<path id="Rectangle 340" d="M215.792 0H0V8.76155H215.792V0Z" fill="#AD3CC5"/>
<path id="Ellipse 513" d="M6.81306 6.10354C7.75156 6.10354 8.51236 5.37644 8.51236 4.47951C8.51236 3.58257 7.75156 2.85547 6.81306 2.85547C5.87457 2.85547 5.11377 3.58257 5.11377 4.47951C5.11377 5.37644 5.87457 6.10354 6.81306 6.10354Z" fill="white"/>
<path id="Ellipse 514" d="M13.2623 6.10354C14.2008 6.10354 14.9616 5.37644 14.9616 4.47951C14.9616 3.58257 14.2008 2.85547 13.2623 2.85547C12.3238 2.85547 11.563 3.58257 11.563 4.47951C11.563 5.37644 12.3238 6.10354 13.2623 6.10354Z" fill="white"/>
<path id="Ellipse 515" d="M19.7117 6.10354C20.6502 6.10354 21.411 5.37644 21.411 4.47951C21.411 3.58257 20.6502 2.85547 19.7117 2.85547C18.7733 2.85547 18.0125 3.58257 18.0125 4.47951C18.0125 5.37644 18.7733 6.10354 19.7117 6.10354Z" fill="white"/>
<path id="Rectangle 341" d="M71.0869 25.542H31.2949V66.8009H71.0869V25.542Z" fill="#E6E6E6"/>
<path id="Rectangle 342" d="M127.884 25.542H88.0918V66.8009H127.884V25.542Z" fill="#E6E6E6"/>
<path id="Rectangle 343" d="M184.68 25.542H144.888V66.8009H184.68V25.542Z" fill="#E6E6E6"/>
<path id="Rectangle 344" d="M71.0869 74.2688H31.2949V115.528H71.0869V74.2688Z" fill="#E6E6E6"/>
<path id="Rectangle 345" d="M127.884 74.2688H88.0918V115.528H127.884V74.2688Z" fill="#E6E6E6"/>
<path id="Rectangle 346" d="M184.68 74.2688H144.888V115.528H184.68V74.2688Z" fill="#E6E6E6"/>
<path id="Path 2643" d="M97.7095 84.8726L104.98 82.1255L105.825 95.8609C105.825 95.8609 107.347 100.062 106.84 101.678C106.84 101.678 107.178 104.425 106.332 104.587C105.487 104.748 103.119 105.072 102.952 104.91C102.785 104.748 102.783 104.264 102.783 104.264C102.783 104.264 101.092 105.395 100.923 106.687C100.923 106.687 93.8216 108.788 93.6526 106.849C93.4835 104.91 97.2031 103.294 97.2031 103.294L100.078 99.0923L97.7095 84.8726Z" fill="white"/>
<path id="Path 2644" d="M113.097 84.8726L120.366 82.1255L121.211 95.8609C121.211 95.8609 122.733 100.062 122.226 101.678C122.226 101.678 122.564 104.425 121.718 104.587C120.873 104.748 118.505 105.072 118.338 104.91C118.171 104.748 118.169 104.264 118.169 104.264C118.169 104.264 116.478 105.395 116.309 106.687C116.309 106.687 109.208 108.788 109.039 106.849C108.87 104.91 112.589 103.294 112.589 103.294L115.464 99.0923L113.097 84.8726Z" fill="white"/>
<path id="Path 2645" d="M113.807 31.8313C113.807 31.8313 112.259 35.9654 114.053 37.8297L112.557 42.7408C112.557 42.7408 117.87 57.9742 116.352 60.1021C116.352 60.1021 110.685 62.8102 99.3494 59.1347L103.954 42.0636L103.296 34.858L104.207 31.4727L106.231 31.2808C106.231 31.2808 105.017 35.6331 107.243 36.3103C109.469 36.9874 111.641 31.3895 111.641 31.3895L113.807 31.8313Z" fill="#3F3D56"/>
<path id="Path 2646" d="M42.3137 58.5183L44.2674 59.2822L53.5916 47.5704L56.5219 61.3189L58.4756 60.9795C59.7287 49.1263 60.7516 37.0364 59.4968 31.3182L52.2595 31.021L48.974 41.0368L47.3754 47.8263L42.3137 58.5183Z" fill="white"/>
<path id="Path 2647" d="M160.885 31.2244C160.885 31.2244 158.219 34.7667 158.349 36.1963C158.479 37.6258 160.17 60.9317 160.17 60.9317L164.137 61.1182L162.965 44.3379L163.94 39.801L166.347 60.9317L171.224 61.0562L166.867 33.6484L166.022 31.2247L160.885 31.2244Z" fill="white"/>
<path id="Path 2648" d="M175.954 88.2929C175.246 87.4811 174.029 87.0422 172.861 86.8049C172.894 86.7035 169.307 85.9949 169.246 86.1408L167.893 85.1111L163.737 87.1734L161.402 85.6539L160.317 86.0218C160.361 85.8388 156.95 86.4037 156.95 86.4037C156.298 86.4261 155.466 86.4651 154.534 86.5336C151.271 86.7735 151.02 94.8505 151.02 94.8505C152.521 94.2635 154.122 93.9432 155.743 93.9053L156.625 103.566C161.161 103.194 165.919 103.626 170.85 104.685L173.163 97.0913L178.548 95.0898C178.548 95.0898 177.628 90.2119 175.954 88.2929Z" fill="#3F3D56"/>
<path id="Path 2649" d="M60.3943 83.693C59.8109 83.0241 58.8085 82.6623 57.8456 82.4669C57.8743 82.383 54.9172 81.7996 54.8667 81.9199L53.7521 81.0715L50.3284 82.7707L48.4042 81.519L47.5106 81.8223C47.547 81.6716 44.7359 82.1367 44.7359 82.1367C44.2003 82.1553 43.5129 82.1873 42.7454 82.2439C40.0567 82.4416 39.8499 89.0961 39.8499 89.0961C41.0869 88.6124 42.4059 88.3484 43.7421 88.3172L44.4688 107.802C48.2064 107.496 52.1265 107.853 56.1884 108.725L58.0936 90.9427L62.5308 89.2938C62.5308 89.2938 61.773 85.2748 60.3943 83.693Z" fill="white"/>
<path id="Vector" d="M98.5657 125.2L99.236 155.6L119.858 166L157.412 159.6L158.334 128L134.527 120L98.5657 125.2Z" fill="#B0CCE9"/>
<path id="Vector_2" d="M120.274 166L99.2507 155.61L98.5657 125.18L135.121 120L135.199 120.026L159.383 127.989L158.441 159.626L120.274 166ZM99.905 155.232L120.382 165.352L157.793 159.105L158.707 128.424L135.057 120.636L99.2405 125.711L99.905 155.232Z" fill="#3F3D56"/>
<path id="Vector_3" d="M119.461 134L119.38 133.971L98.5657 126.547L98.808 126L119.543 133.395L158.244 128.607L158.334 129.19L119.461 134Z" fill="#3F3D56"/>
<path id="Vector_4" d="M120.165 133.444L119.507 133.451L119.926 166.344L120.584 166.336L120.165 133.444Z" fill="#3F3D56"/>
<path id="Vector_5" d="M115.662 132L110.1 129.435L145.433 123L150.994 125.565L115.662 132Z" fill="#3F3D56"/>
<path id="Vector_6" d="M99.1147 134.347L98.8545 134.924L107.572 138.511L107.832 137.934L99.1147 134.347Z" fill="#01579B"/>
<path id="Vector_7" d="M103.062 144.721L102.802 145.299L111.519 148.886L111.78 148.308L103.062 144.721Z" fill="#6C63FF"/>
<path id="Vector_8" d="M135.266 129.104L136.042 164.791L159.92 177L203.404 169.487L204.471 132.391L176.906 123L135.266 129.104Z" fill="#01579B"/>
<path id="Vector_9" d="M159.294 178L135.008 165.577L134.217 129.193L176.445 123L176.535 123.031L204.471 132.552L203.383 170.379L159.294 178ZM135.764 165.126L159.419 177.226L202.635 169.756L203.69 133.072L176.371 123.76L134.997 129.828L135.764 165.126Z" fill="#3F3D56"/>
<path id="Vector_10" d="M159.46 140L159.367 139.96L135.266 129.753L135.546 129L159.555 139.168L204.367 132.584L204.471 133.387L159.46 140Z" fill="#3F3D56"/>
<path id="Vector_11" d="M159.359 138.887L158.596 138.896L159.082 177.079L159.845 177.07L159.359 138.887Z" fill="#3F3D56"/>
<path id="Vector_12" d="M153.839 136L146.8 133.71L189.044 128L196.083 130.29L153.839 136Z" fill="#3F3D56"/>
<path id="Vector_13" d="M134.924 139.935L134.622 140.606L144.741 144.77L145.043 144.099L134.924 139.935Z" fill="#3F3D56"/>
<path id="Vector_14" d="M139.506 151.979L139.204 152.649L149.323 156.813L149.625 156.143L139.506 151.979Z" fill="white"/>
</g>
</svg>
