<svg width="24" height="25" viewBox="0 0 24 25" fill="none" xmlns="http://www.w3.org/2000/svg">
<g id="mingcute:task-line" clip-path="url(#clip0_240_281)">
<g id="Group">
<path id="Vector" fill-rule="evenodd" clip-rule="evenodd" d="M15 2.5C15.3511 2.50001 15.6959 2.59243 16 2.76796C16.304 2.9435 16.5565 3.19597 16.732 3.5H18C18.5304 3.5 19.0391 3.71071 19.4142 4.08579C19.7893 4.46086 20 4.96957 20 5.5V17.5C20 18.8261 19.4732 20.0979 18.5355 21.0355C17.5979 21.9732 16.3261 22.5 15 22.5H6C5.46957 22.5 4.96086 22.2893 4.58579 21.9142C4.21071 21.5391 4 21.0304 4 20.5V5.5C4 4.96957 4.21071 4.46086 4.58579 4.08579C4.96086 3.71071 5.46957 3.5 6 3.5H7.268C7.44353 3.19597 7.696 2.9435 8.00003 2.76796C8.30406 2.59243 8.64894 2.50001 9 2.5H15ZM7 5.5H6V20.5H15C15.7956 20.5 16.5587 20.1839 17.1213 19.6213C17.6839 19.0587 18 18.2956 18 17.5V5.5H17C17 6.03043 16.7893 6.53914 16.4142 6.91421C16.0391 7.28929 15.5304 7.5 15 7.5H9C8.46957 7.5 7.96086 7.28929 7.58579 6.91421C7.21071 6.53914 7 6.03043 7 5.5ZM16.238 9.879C16.4255 10.0665 16.5308 10.3208 16.5308 10.586C16.5308 10.8512 16.4255 11.1055 16.238 11.293L11.288 16.243C11.1005 16.4305 10.8462 16.5358 10.581 16.5358C10.3158 16.5358 10.0615 16.4305 9.874 16.243L7.754 14.121C7.57621 13.9317 7.47905 13.6806 7.48309 13.4209C7.48712 13.1612 7.59203 12.9133 7.77561 12.7296C7.95919 12.5459 8.20705 12.4408 8.46673 12.4366C8.72641 12.4324 8.97755 12.5293 9.167 12.707L10.582 14.121L14.824 9.879C15.0115 9.69153 15.2658 9.58621 15.531 9.58621C15.7962 9.58621 16.0505 9.69153 16.238 9.879ZM15 4.5H9V5.5H15V4.5Z" fill="#545454"/>
</g>
</g>
<defs>
<clipPath id="clip0_240_281">
<rect width="24" height="24" fill="white" transform="translate(0 0.5)"/>
</clipPath>
</defs>
</svg>
