<svg width="207" height="193" viewBox="0 0 207 193" fill="none" xmlns="http://www.w3.org/2000/svg">
<g id="Ilustracion perfil">
<g id="Group 7">
<path id="Vector" d="M134 193C174.317 193 207 160.317 207 120C207 79.6832 174.317 47 134 47C93.6832 47 61 79.6832 61 120C61 160.317 93.6832 193 134 193Z" fill="#4C46AA"/>
<path id="Vector_2" d="M84.3401 98.8759L85.0194 131.221L105.914 142.287L143.967 135.477L144.901 101.855L120.779 93.3428L84.3401 98.8759Z" fill="white"/>
<path id="Vector_3" d="M105.86 142.636L84.6898 131.425L84 98.5893L120.811 93L120.889 93.0276L145.241 101.621L144.293 135.759L105.86 142.636ZM85.3487 131.018L105.969 141.938L143.641 135.196L144.561 102.09L120.746 93.6861L84.6796 99.1624L85.3487 131.018Z" fill="#CACACA"/>
<path id="Vector_4" d="M105.448 107.646L105.366 107.614L84.2168 99.1866L84.463 98.5654L105.531 106.96L144.856 101.524L144.947 102.187L105.448 107.646Z" fill="#CACACA"/>
<path id="Vector_5" d="M105.823 107.299L105.156 107.307L105.581 142.291L106.248 142.283L105.823 107.299Z" fill="#CACACA"/>
<path id="Vector_6" d="M100.928 105.21L95.1514 102.874L131.853 97.0137L137.63 99.3496L100.928 105.21Z" fill="#CACACA"/>
<path id="Vector_7" d="M84.4717 108.259L84.2078 108.873L93.05 112.688L93.3139 112.074L84.4717 108.259Z" fill="#CACACA"/>
<path id="Vector_8" d="M88.4758 119.293L88.2119 119.908L97.0542 123.723L97.3181 123.109L88.4758 119.293Z" fill="#244CC0"/>
<path id="Vector_9" d="M120.64 103.31L121.429 140.858L145.685 153.704L189.857 145.799L190.942 106.769L162.94 96.8877L120.64 103.31Z" fill="#0776CE"/>
<path id="Vector_10" d="M145.621 154.11L121.046 141.095L120.246 102.978L162.977 96.4897L163.068 96.5218L191.337 106.497L190.236 146.126L145.621 154.11ZM121.811 140.622L145.748 153.298L189.479 145.473L190.547 107.041L162.902 97.2862L121.034 103.643L121.811 140.622Z" fill="#3F3D56"/>
<path id="Vector_11" d="M145.143 113.492L145.048 113.454L120.497 103.672L120.783 102.95L145.239 112.695L190.889 106.385L190.995 107.154L145.143 113.492Z" fill="#3F3D56"/>
<path id="Vector_12" d="M145.579 113.088L144.804 113.098L145.297 153.709L146.072 153.699L145.579 113.088Z" fill="#3F3D56"/>
<path id="Vector_13" d="M140.29 110.682L133.19 107.953L175.795 101.149L182.895 103.879L140.29 110.682Z" fill="#3F3D56"/>
<path id="Vector_14" d="M120.793 114.203L120.487 114.916L130.751 119.345L131.058 118.632L120.793 114.203Z" fill="#3F3D56"/>
<path id="Vector_15" d="M125.441 127.013L125.135 127.726L135.399 132.154L135.706 131.441L125.441 127.013Z" fill="white"/>
</g>
<path id="Vector_16" d="M73 146C113.317 146 146 113.317 146 73C146 32.6832 113.317 0 73 0C32.6832 0 0 32.6832 0 73C0 113.317 32.6832 146 73 146Z" fill="#E8E0FF"/>
<g id="Group 8">
<path id="Vector_17" d="M108.559 106.163C102.806 103.132 96.802 100.605 90.613 98.6108L89.8231 89.8808L57.8176 86.4326L53.7501 97.591L42.2641 101.901C41.8529 102.057 41.4614 102.261 41.0978 102.508H41.0854C39.2049 102.668 37.3939 103.294 35.8165 104.33C34.7465 105.013 33.7952 105.866 33 106.855C34.554 108.033 36.1681 109.126 37.8317 110.17L37.905 110.206C38.3786 110.498 38.8644 110.789 39.3494 111.068C40.2241 111.59 41.1226 112.088 42.0211 112.562L42.5919 112.853C43.9029 113.533 45.2387 114.177 46.6107 114.772C46.8899 114.893 47.1939 115.014 47.473 115.136C47.4968 115.148 47.5092 115.148 47.533 115.16C48.1771 115.427 48.8202 115.682 49.4758 115.925C51.6297 116.748 53.8265 117.453 56.0568 118.038C61.7485 119.555 67.614 120.322 73.5045 120.321C75.654 120.321 77.7787 120.223 79.8796 120.017C84.6791 119.574 89.4172 118.617 94.0126 117.164C94.024 117.164 94.0373 117.152 94.0488 117.152C96.9518 116.227 99.7878 115.103 102.536 113.788C102.548 113.776 102.573 113.776 102.585 113.764C103.204 113.473 103.799 113.157 104.406 112.853L104.697 112.708C105.183 112.453 105.669 112.198 106.155 111.931C107.369 111.263 108.559 110.559 109.736 109.806C110.063 109.611 110.38 109.405 110.708 109.186C111.169 108.883 111.63 108.567 112.08 108.239C110.951 107.511 109.773 106.819 108.559 106.163Z" fill="#244CC0"/>
<path id="Vector_18" d="M72.5643 80.9133C85.295 80.9133 95.6152 70.5931 95.6152 57.8624C95.6152 45.1318 85.295 34.8115 72.5643 34.8115C59.8337 34.8115 49.5134 45.1318 49.5134 57.8624C49.5134 70.5931 59.8337 80.9133 72.5643 80.9133Z" fill="#A0616A"/>
<path id="Vector_19" d="M57.0882 46.6352C59.4743 49.459 63.5126 50.2558 67.2377 50.5825C74.8029 51.246 85.8037 50.1698 93.1969 48.4628C93.7246 53.5772 92.2859 59.0917 95.2982 63.2987C96.7103 58.2054 97.5314 52.9665 97.7453 47.6854C97.9702 45.4196 97.6744 43.1323 96.8804 40.9983C96.4559 39.9288 95.7398 38.9999 94.8137 38.3171C93.8875 37.6343 92.7884 37.225 91.6413 37.1357C93.3585 35.8329 95.3701 34.9729 97.4984 34.6316L90.1793 30.9534L92.0589 29.0238L78.8079 28.2129L82.6459 25.7747C76.8695 24.981 71.0256 24.7965 65.2106 25.2243C62.5103 25.4233 59.6872 25.8033 57.4993 27.3678C55.3114 28.9324 54.0472 32.0419 55.4054 34.339C53.705 34.6182 52.1039 35.3269 50.754 36.398C49.4041 37.4691 48.35 38.8671 47.6916 40.4596C46.8589 42.9908 46.6579 45.6872 47.106 48.3139C47.6052 52.5282 48.5847 56.6717 50.0252 60.6635L57.0882 46.6352Z" fill="#2F2E41"/>
</g>
</g>
</svg>
