<svg width="24" height="25" viewBox="0 0 24 25" fill="none" xmlns="http://www.w3.org/2000/svg">
<g id="pajamas:list-task" clip-path="url(#clip0_240_276)">
<path id="Vector" fill-rule="evenodd" clip-rule="evenodd" d="M7.17023 5.42001C7.36895 5.20675 7.47714 4.92468 7.47199 4.63323C7.46685 4.34178 7.34878 4.0637 7.14266 3.85758C6.93654 3.65146 6.65847 3.53339 6.36701 3.52825C6.07556 3.52311 5.79349 3.63129 5.58023 3.83001L2.62523 6.78501L1.92023 6.08001C1.70697 5.88129 1.4249 5.77311 1.13345 5.77825C0.841995 5.78339 0.563917 5.90146 0.357798 6.10758C0.151678 6.3137 0.0336102 6.59178 0.0284679 6.88323C0.0233256 7.17468 0.13151 7.45675 0.33023 7.67001L1.83023 9.17001C2.04117 9.38069 2.3271 9.49902 2.62523 9.49902C2.92336 9.49902 3.20929 9.38069 3.42023 9.17001L7.17023 5.42001ZM9.00023 6.12501C9.00023 5.82665 9.11876 5.5405 9.32973 5.32952C9.54071 5.11854 9.82686 5.00001 10.1252 5.00001H22.8752C23.1736 5.00001 23.4597 5.11854 23.6707 5.32952C23.8817 5.5405 24.0002 5.82665 24.0002 6.12501C24.0002 6.42338 23.8817 6.70953 23.6707 6.92051C23.4597 7.13149 23.1736 7.25001 22.8752 7.25001H10.1252C9.82686 7.25001 9.54071 7.13149 9.32973 6.92051C9.11876 6.70953 9.00023 6.42338 9.00023 6.12501ZM9.00023 12.5C9.00023 12.2016 9.11876 11.9155 9.32973 11.7045C9.54071 11.4935 9.82686 11.375 10.1252 11.375H22.8752C23.1736 11.375 23.4597 11.4935 23.6707 11.7045C23.8817 11.9155 24.0002 12.2016 24.0002 12.5C24.0002 12.7984 23.8817 13.0845 23.6707 13.2955C23.4597 13.5065 23.1736 13.625 22.8752 13.625H10.1252C9.82686 13.625 9.54071 13.5065 9.32973 13.2955C9.11876 13.0845 9.00023 12.7984 9.00023 12.5ZM10.1252 17.75C9.82686 17.75 9.54071 17.8685 9.32973 18.0795C9.11876 18.2905 9.00023 18.5766 9.00023 18.875C9.00023 19.1734 9.11876 19.4595 9.32973 19.6705C9.54071 19.8815 9.82686 20 10.1252 20H22.8752C23.1736 20 23.4597 19.8815 23.6707 19.6705C23.8817 19.4595 24.0002 19.1734 24.0002 18.875C24.0002 18.5766 23.8817 18.2905 23.6707 18.0795C23.4597 17.8685 23.1736 17.75 22.8752 17.75H10.1252ZM7.17023 15.83C7.38091 16.041 7.49924 16.3269 7.49924 16.625C7.49924 16.9231 7.38091 17.2091 7.17023 17.42L3.42023 21.17C3.20929 21.3807 2.92336 21.499 2.62523 21.499C2.3271 21.499 2.04117 21.3807 1.83023 21.17L0.33023 19.67C0.2197 19.567 0.131047 19.4428 0.0695589 19.3048C0.00807097 19.1668 -0.0249918 19.0179 -0.0276569 18.8668C-0.0303221 18.7157 -0.00253513 18.5657 0.0540464 18.4256C0.110628 18.2855 0.194845 18.1583 0.301673 18.0515C0.408501 17.9446 0.535752 17.8604 0.675834 17.8038C0.815916 17.7472 0.96596 17.7195 1.11701 17.7221C1.26807 17.7248 1.41704 17.7579 1.55504 17.8193C1.69304 17.8808 1.81724 17.9695 1.92023 18.08L2.62523 18.785L5.58023 15.83C5.79117 15.6193 6.0771 15.501 6.37523 15.501C6.67336 15.501 6.95929 15.6193 7.17023 15.83Z" fill="#545454"/>
</g>
<defs>
<clipPath id="clip0_240_276">
<rect width="24" height="24" fill="white" transform="translate(0 0.5)"/>
</clipPath>
</defs>
</svg>
