<svg width="236" height="213" viewBox="0 0 236 213" fill="none" xmlns="http://www.w3.org/2000/svg">
<g id="undraw_hiring_re_yk5n 1" clip-path="url(#clip0_159_399)">
<path id="Vector" d="M103.147 176.162H4.67599C3.43626 176.16 2.24772 175.668 1.37111 174.794C0.494492 173.919 0.00139522 172.734 0 171.497V38.1409C0.00139522 36.9042 0.494492 35.7185 1.37111 34.844C2.24772 33.9695 3.43626 33.4776 4.67599 33.4762H103.147C104.387 33.4776 105.575 33.9695 106.452 34.844C107.328 35.7185 107.821 36.9042 107.823 38.1409V171.497C107.821 172.734 107.328 173.919 106.452 174.794C105.575 175.668 104.387 176.16 103.147 176.162Z" fill="white"/>
<path id="Vector_2" d="M49.4724 68.1826C49.4724 72.034 48.251 75.7868 45.9831 78.9037C43.7152 82.0206 40.517 84.3419 36.8462 85.5353C36.7365 85.5701 36.6268 85.6049 36.5153 85.6381C36.0398 85.7841 35.5577 85.9085 35.0671 86.0146C34.1795 86.2068 33.2785 86.3315 32.372 86.3878C31.978 86.4144 31.5818 86.4276 31.1832 86.4276C29.1242 86.4297 27.0797 86.0842 25.1361 85.4059C25.0796 85.386 25.0231 85.3661 24.9682 85.3462C21.8193 84.2117 19.0429 82.2367 16.9417 79.6365C14.8404 77.0363 13.4948 73.9107 13.0515 70.6001C12.6083 67.2896 13.0843 63.9212 14.4279 60.862C15.7714 57.8028 17.9308 55.1702 20.6709 53.2509C23.4109 51.3317 26.6265 50.1995 29.9671 49.9778C33.3077 49.756 36.6452 50.4532 39.616 51.9934C42.5868 53.5335 45.0768 55.8575 46.8148 58.7122C48.5528 61.5669 49.472 64.8426 49.4724 68.1826Z" fill="white"/>
<path id="Vector_3" d="M30.745 80.2707C35.6595 80.2707 39.6434 76.2963 39.6434 71.3938C39.6434 66.4912 35.6595 62.5168 30.745 62.5168C25.8306 62.5168 21.8467 66.4912 21.8467 71.3938C21.8467 76.2963 25.8306 80.2707 30.745 80.2707Z" fill="#6C63FF"/>
<path id="Vector_4" d="M33.2731 83.8036C33.2967 83.6945 33.309 83.5834 33.3098 83.4718C33.3091 83.0541 33.1425 82.6537 32.8464 82.3584C32.5503 82.063 32.149 81.8968 31.7302 81.8961H29.4025C28.9837 81.8965 28.5822 82.0626 28.286 82.358C27.9899 82.6535 27.8234 83.054 27.823 83.4718C27.8229 83.584 27.8352 83.6958 27.8595 83.8052C26.9808 84.0814 26.1502 84.4915 25.3972 85.021C25.2508 85.1222 25.1062 85.2316 24.9682 85.3461C25.0231 85.366 25.0796 85.3859 25.1361 85.4058C27.0796 86.0841 29.1242 86.4296 31.1832 86.4275C31.5822 86.4275 31.9785 86.4142 32.372 86.3877C33.2785 86.3314 34.1795 86.2067 35.0671 86.0145C35.5576 85.9084 36.0398 85.784 36.5153 85.638C35.5745 84.8078 34.4702 84.1829 33.2731 83.8036Z" fill="#2F2E41"/>
<path id="Vector_5" d="M32.9739 86.1772C32.7581 86.1931 32.5504 86.2658 32.372 86.3878C33.2785 86.3315 34.1795 86.2068 35.0671 86.0146L32.9739 86.1772Z" fill="#2F2E41"/>
<path id="Vector_6" d="M38.8153 69.285L23.357 63.6435C23.1913 63.5831 23.0566 63.4595 22.9823 63.2999C22.908 63.1403 22.9003 62.9578 22.9609 62.7925L23.0132 62.5459C24.2205 59.2538 28.2219 57.1819 31.522 58.3862L36.2789 60.1222C39.5789 61.3266 41.0132 65.2249 39.806 68.517L39.6684 68.8899C39.6078 69.0551 39.4838 69.1896 39.3239 69.2637C39.1639 69.3378 38.981 69.3454 38.8153 69.285Z" fill="#2F2E41"/>
<path id="Vector_7" d="M39.648 69.598C18.1021 70.3911 16.2195 67.6905 22.7843 63.4437L24.1771 60.8872L40.1385 66.6925L39.648 69.598Z" fill="#2F2E41"/>
<path id="Vector_8" d="M35.4233 59.7173C35.5422 59.3225 35.0327 58.8208 34.2852 58.5966C33.5377 58.3725 32.8354 58.5108 32.7164 58.9056C32.5975 59.3003 33.107 59.8021 33.8545 60.0262C34.6019 60.2504 35.3043 60.112 35.4233 59.7173Z" fill="#2F2E41"/>
<path id="Vector_9" d="M31.1832 86.9252C29.068 86.9275 26.9677 86.5726 24.9712 85.8755L24.7977 85.8138C20.6158 84.3062 17.1054 81.3677 14.8909 77.5211C12.6764 73.6744 11.9014 69.1689 12.7035 64.8058C13.5056 60.4427 15.833 56.5048 19.2718 53.6925C22.7105 50.8802 27.0376 49.3757 31.4837 49.4466C35.9297 49.5175 40.2064 51.1593 43.5532 54.0799C46.9001 57.0005 49.1 61.0106 49.7619 65.3971C50.4237 69.7836 49.5046 74.262 47.1679 78.0361C44.8313 81.8101 41.2285 84.6351 37.0004 86.0085C36.8823 86.046 36.771 86.0812 36.658 86.1149C36.1858 86.2599 35.6848 86.3901 35.1729 86.5008C34.2605 86.6982 33.3344 86.8264 32.4027 86.8844C32.0023 86.9115 31.5911 86.9252 31.1832 86.9252ZM31.1832 50.4351C26.9969 50.4357 22.9448 51.9088 19.7396 54.5954C16.5345 57.282 14.3816 61.01 13.6595 65.1236C12.9375 69.2373 13.6925 73.4732 15.7919 77.0864C17.8913 80.6996 21.2006 83.4586 25.1377 84.8782L25.3024 84.9367C27.1924 85.5965 29.1808 85.9324 31.1832 85.93C31.5687 85.93 31.9574 85.917 32.3384 85.8913C33.2207 85.8364 34.0977 85.7151 34.9617 85.5283C35.4459 85.4235 35.9193 85.3004 36.3686 85.1626C36.4799 85.1294 36.5855 85.0959 36.6912 85.0624C40.7182 83.7539 44.1453 81.0553 46.3563 77.4518C48.5674 73.8483 49.4175 69.5761 48.7538 65.4033C48.09 61.2305 45.956 57.4307 42.7353 54.687C39.5146 51.9433 35.4185 50.4357 31.1832 50.4351Z" fill="#CCCCCC"/>
<path id="Vector_10" d="M103.147 176.162H4.67599C3.43626 176.16 2.24772 175.668 1.37111 174.794C0.494492 173.919 0.00139522 172.734 0 171.497V38.1409C0.00139522 36.9042 0.494492 35.7185 1.37111 34.844C2.24772 33.9695 3.43626 33.4776 4.67599 33.4762H103.147C104.387 33.4776 105.575 33.9695 106.452 34.844C107.328 35.7185 107.821 36.9042 107.823 38.1409V171.497C107.821 172.734 107.328 173.919 106.452 174.794C105.575 175.668 104.387 176.16 103.147 176.162ZM4.67599 34.025C3.58212 34.0262 2.53341 34.4603 1.75993 35.2319C0.986448 36.0035 0.551357 37.0497 0.550117 38.1409V171.497C0.551356 172.588 0.986438 173.634 1.75992 174.406C2.5334 175.178 3.58212 175.612 4.67599 175.613H103.147C104.241 175.612 105.289 175.178 106.063 174.406C106.836 173.634 107.271 172.588 107.273 171.497V38.1409C107.271 37.0497 106.836 36.0035 106.063 35.2319C105.289 34.4603 104.241 34.0262 103.147 34.025H4.67599Z" fill="#3F3D56"/>
<path id="Vector_11" d="M84.084 68.1114H56.2202C55.636 68.1107 55.0761 67.8787 54.6632 67.4664C54.2504 67.0541 54.0186 66.4952 54.0186 65.9124C54.0186 65.3297 54.2504 64.7707 54.6632 64.3584C55.0761 63.9461 55.636 63.7141 56.2202 63.7134H84.084C84.3738 63.713 84.6607 63.7696 84.9284 63.88C85.1962 63.9903 85.4395 64.1523 85.6445 64.3565C85.8495 64.5607 86.0121 64.8033 86.1231 65.0702C86.234 65.3372 86.2911 65.6234 86.2911 65.9124C86.2911 66.2014 86.234 66.4876 86.1231 66.7546C86.0121 67.0216 85.8495 67.2641 85.6445 67.4683C85.4395 67.6726 85.1962 67.8345 84.9284 67.9448C84.6607 68.0552 84.3738 68.1118 84.084 68.1114Z" fill="#3F3D56"/>
<path id="Vector_12" d="M93.177 75.5332H56.2202C55.636 75.5325 55.0761 75.3005 54.6632 74.8882C54.2504 74.4758 54.0186 73.9169 54.0186 73.3342C54.0186 72.7514 54.2504 72.1925 54.6632 71.7802C55.0761 71.3679 55.636 71.1359 56.2202 71.1351H93.177C93.7611 71.1359 94.3211 71.3679 94.7339 71.7802C95.1467 72.1925 95.3786 72.7514 95.3786 73.3342C95.3786 73.9169 95.1467 74.4758 94.7339 74.8882C94.3211 75.3005 93.7611 75.5325 93.177 75.5332Z" fill="#E6E6E6"/>
<path id="Vector_13" d="M84.0435 103.999H14.6458C14.3561 103.999 14.0692 103.942 13.8014 103.832C13.5337 103.722 13.2903 103.56 13.0853 103.356C12.8804 103.151 12.7178 102.909 12.6068 102.642C12.4959 102.375 12.4388 102.089 12.4388 101.8C12.4388 101.511 12.4959 101.224 12.6068 100.957C12.7178 100.69 12.8804 100.448 13.0853 100.244C13.2903 100.039 13.5337 99.8775 13.8014 99.7672C14.0692 99.6568 14.3561 99.6002 14.6458 99.6006H84.0435C84.6276 99.6013 85.1876 99.8333 85.6004 100.246C86.0132 100.658 86.2451 101.217 86.2451 101.8C86.2451 102.382 86.0132 102.941 85.6004 103.354C85.1876 103.766 84.6276 103.998 84.0435 103.999Z" fill="#E6E6E6"/>
<path id="Vector_14" d="M93.1364 111.42H14.6458C14.3561 111.421 14.0692 111.364 13.8014 111.254C13.5337 111.143 13.2903 110.982 13.0853 110.777C12.8804 110.573 12.7178 110.331 12.6068 110.064C12.4959 109.797 12.4388 109.51 12.4388 109.221C12.4388 108.932 12.4959 108.646 12.6068 108.379C12.7178 108.112 12.8804 107.87 13.0853 107.665C13.2903 107.461 13.5337 107.299 13.8014 107.189C14.0692 107.079 14.3561 107.022 14.6458 107.022H93.1364C93.4261 107.022 93.7131 107.079 93.9808 107.189C94.2486 107.299 94.4919 107.461 94.6969 107.665C94.9019 107.87 95.0645 108.112 95.1754 108.379C95.2864 108.646 95.3435 108.932 95.3435 109.221C95.3435 109.51 95.2864 109.797 95.1754 110.064C95.0645 110.331 94.9019 110.573 94.6969 110.777C94.4919 110.982 94.2486 111.143 93.9808 111.254C93.7131 111.364 93.4261 111.421 93.1364 111.42Z" fill="#E6E6E6"/>
<path id="Vector_15" d="M84.0435 128.478H14.6458C14.0612 128.478 13.5005 128.247 13.0871 127.834C12.6737 127.422 12.4415 126.863 12.4415 126.279C12.4415 125.696 12.6737 125.137 13.0871 124.724C13.5005 124.312 14.0612 124.08 14.6458 124.08H84.0435C84.6281 124.08 85.1888 124.312 85.6022 124.724C86.0156 125.137 86.2478 125.696 86.2478 126.279C86.2478 126.863 86.0156 127.422 85.6022 127.834C85.1888 128.247 84.6281 128.478 84.0435 128.478Z" fill="#E6E6E6"/>
<path id="Vector_16" d="M93.1364 135.9H14.6458C14.0612 135.9 13.5005 135.668 13.0871 135.256C12.6737 134.844 12.4415 134.284 12.4415 133.701C12.4415 133.118 12.6737 132.559 13.0871 132.146C13.5005 131.734 14.0612 131.502 14.6458 131.502H93.1364C93.721 131.502 94.2817 131.734 94.6951 132.146C95.1085 132.559 95.3408 133.118 95.3408 133.701C95.3408 134.284 95.1085 134.844 94.6951 135.256C94.2817 135.668 93.721 135.9 93.1364 135.9Z" fill="#E6E6E6"/>
<path id="Vector_17" d="M84.0435 152.958H14.6458C14.0612 152.958 13.5005 152.727 13.0871 152.314C12.6737 151.902 12.4415 151.342 12.4415 150.759C12.4415 150.176 12.6737 149.617 13.0871 149.204C13.5005 148.792 14.0612 148.56 14.6458 148.56H84.0435C84.6281 148.56 85.1888 148.792 85.6022 149.204C86.0156 149.617 86.2478 150.176 86.2478 150.759C86.2478 151.342 86.0156 151.902 85.6022 152.314C85.1888 152.727 84.6281 152.958 84.0435 152.958Z" fill="#E6E6E6"/>
<path id="Vector_18" d="M93.1364 160.38H14.6458C14.0612 160.38 13.5005 160.148 13.0871 159.736C12.6737 159.323 12.4415 158.764 12.4415 158.181C12.4415 157.598 12.6737 157.038 13.0871 156.626C13.5005 156.214 14.0612 155.982 14.6458 155.982H93.1364C93.721 155.982 94.2817 156.214 94.6951 156.626C95.1085 157.038 95.3408 157.598 95.3408 158.181C95.3408 158.764 95.1085 159.323 94.6951 159.736C94.2817 160.148 93.721 160.38 93.1364 160.38Z" fill="#E6E6E6"/>
<path id="Vector_19" d="M231.324 142.685L132.853 142.686C131.613 142.684 130.425 142.192 129.548 141.318C128.672 140.443 128.179 139.258 128.177 138.021L128.177 4.6648C128.178 3.42807 128.672 2.24239 129.548 1.36788C130.425 0.493381 131.613 0.00146996 132.853 7.72045e-05L231.324 0C232.564 0.00139096 233.752 0.493295 234.629 1.3678C235.505 2.2423 235.998 3.42798 236 4.66471L236 138.021C235.999 139.257 235.505 140.443 234.629 141.318C233.752 142.192 232.564 142.684 231.324 142.685Z" fill="white"/>
<path id="Vector_20" d="M231.324 142.685L132.853 142.686C131.613 142.684 130.425 142.192 129.548 141.318C128.672 140.443 128.179 139.258 128.177 138.021L128.177 4.6648C128.178 3.42807 128.672 2.24239 129.548 1.36788C130.425 0.493381 131.613 0.00146996 132.853 7.72045e-05L231.324 0C232.564 0.00139096 233.752 0.493295 234.629 1.3678C235.505 2.2423 235.998 3.42798 236 4.66471L236 138.021C235.999 139.257 235.505 140.443 234.629 141.318C233.752 142.192 232.564 142.684 231.324 142.685ZM132.853 0.548868C131.759 0.550105 130.71 0.984146 129.937 1.75576C129.163 2.52738 128.728 3.57357 128.727 4.6648L128.727 138.021C128.729 139.112 129.164 140.158 129.937 140.93C130.711 141.702 131.759 142.136 132.853 142.137L231.324 142.137C232.418 142.135 233.467 141.701 234.24 140.93C235.014 140.158 235.449 139.112 235.45 138.021L235.45 4.66472C235.449 3.57349 235.013 2.5273 234.24 1.75568C233.466 0.984064 232.418 0.550026 231.324 0.54879L132.853 0.548868Z" fill="#3F3D56"/>
<path id="Vector_21" d="M177.696 34.5245C177.696 38.133 176.623 41.6605 174.613 44.6609C172.604 47.6613 169.747 49.9998 166.405 51.3807C163.064 52.7617 159.386 53.123 155.838 52.419C152.291 51.715 149.032 49.9773 146.474 47.4257C143.916 44.8741 142.174 41.6231 141.469 38.0839C140.763 34.5447 141.125 30.8763 142.51 27.5424C143.894 24.2086 146.238 21.3591 149.246 19.3543C152.253 17.3495 155.789 16.2794 159.406 16.2794C164.257 16.2809 168.908 18.2037 172.337 21.625C175.767 25.0462 177.694 29.686 177.696 34.5245Z" fill="white"/>
<path id="Vector_22" d="M167.859 37.6464C167.66 49.3151 150.261 49.3133 150.063 37.646C150.262 25.9777 167.661 25.9795 167.859 37.6464Z" fill="#6C63FF"/>
<path id="Vector_23" d="M161.846 50.0577C162.195 47.7074 159.436 48.1718 157.977 48.1486C157.741 48.1493 157.509 48.2024 157.297 48.304C157.085 48.4056 156.898 48.5531 156.75 48.7359C156.602 48.9186 156.497 49.1319 156.442 49.3603C156.388 49.5887 156.385 49.8263 156.434 50.056C155.304 50.4044 154.258 50.9802 153.359 51.7478C157.144 53.0643 161.257 53.1098 165.07 51.8772C164.14 51.0445 163.04 50.4236 161.846 50.0577Z" fill="#2F2E41"/>
<path id="Vector_24" d="M159.407 53.2672C154.684 53.2632 150.136 51.4833 146.67 48.2825C143.204 45.0817 141.075 40.6953 140.707 35.9979C140.34 31.3006 141.76 26.6376 144.686 22.939C147.612 19.2404 151.828 16.7779 156.493 16.0428C161.158 15.3076 165.93 16.3538 169.856 18.9726C173.782 21.5914 176.575 25.5904 177.677 30.172C178.778 34.7537 178.108 39.5813 175.8 43.692C173.492 47.8027 169.716 50.8943 165.224 52.3504C163.345 52.9599 161.382 53.2693 159.407 53.2672ZM159.407 16.777C155.887 16.7765 152.447 17.8172 149.52 19.7674C146.594 21.7176 144.313 24.4897 142.966 27.7332C141.619 30.9767 141.266 34.5459 141.953 37.9893C142.639 41.4327 144.334 44.5956 146.823 47.0782C149.311 49.5607 152.482 51.2513 155.933 51.9361C159.385 52.6209 162.963 52.2692 166.214 50.9254C169.466 49.5816 172.244 47.3062 174.199 44.3868C176.154 41.4674 177.197 38.0353 177.197 34.5245C177.192 29.8192 175.315 25.3081 171.98 21.981C168.645 18.6539 164.123 16.7823 159.407 16.777Z" fill="#CCCCCC"/>
<path id="Vector_25" d="M212.261 34.6352L184.397 34.6353C183.813 34.6353 183.252 34.4036 182.839 33.9912C182.425 33.5788 182.193 33.0195 182.193 32.4362C182.193 31.853 182.425 31.2937 182.839 30.8813C183.252 30.4689 183.813 30.2372 184.397 30.2372L212.261 30.2372C212.846 30.2372 213.406 30.4689 213.82 30.8813C214.233 31.2937 214.465 31.853 214.465 32.4362C214.465 33.0194 214.233 33.5788 213.82 33.9912C213.406 34.4036 212.846 34.6352 212.261 34.6352Z" fill="#3F3D56"/>
<path id="Vector_26" d="M221.354 42.057L184.397 42.057C184.108 42.0574 183.821 42.0008 183.553 41.8904C183.285 41.7801 183.042 41.6182 182.837 41.4139C182.632 41.2097 182.469 40.9671 182.358 40.7002C182.247 40.4332 182.19 40.147 182.19 39.858C182.19 39.569 182.247 39.2828 182.358 39.0158C182.469 38.7489 182.632 38.5063 182.837 38.3021C183.042 38.0979 183.285 37.9359 183.553 37.8256C183.821 37.7152 184.108 37.6586 184.397 37.659L221.354 37.6589C221.939 37.6589 222.499 37.8906 222.913 38.303C223.326 38.7154 223.558 39.2748 223.558 39.858C223.558 40.4412 223.326 41.0005 222.913 41.4129C222.499 41.8253 221.939 42.057 221.354 42.057Z" fill="#E6E6E6"/>
<path id="Vector_27" d="M212.221 70.5225L142.823 70.5225C142.239 70.5218 141.679 70.2898 141.266 69.8775C140.853 69.4652 140.621 68.9062 140.621 68.3235C140.621 67.7407 140.853 67.1818 141.266 66.7695C141.679 66.3572 142.239 66.1252 142.823 66.1245L212.221 66.1244C212.805 66.1244 213.366 66.3561 213.779 66.7685C214.193 67.1809 214.425 67.7402 214.425 68.3234C214.425 68.9066 214.193 69.466 213.779 69.8784C213.366 70.2908 212.805 70.5225 212.221 70.5225Z" fill="#E6E6E6"/>
<path id="Vector_28" d="M221.314 77.9442L142.823 77.9443C142.533 77.9446 142.246 77.888 141.979 77.7777C141.711 77.6673 141.467 77.5054 141.262 77.3012C141.057 77.0969 140.895 76.8544 140.784 76.5874C140.673 76.3204 140.616 76.0342 140.616 75.7452C140.616 75.4562 140.673 75.1701 140.784 74.9031C140.895 74.6361 141.057 74.3936 141.262 74.1893C141.467 73.9851 141.711 73.8232 141.979 73.7128C142.246 73.6025 142.533 73.5458 142.823 73.5462L221.314 73.5461C221.898 73.5461 222.459 73.7778 222.872 74.1902C223.286 74.6026 223.518 75.162 223.518 75.7452C223.518 76.3284 223.286 76.8877 222.872 77.3001C222.459 77.7125 221.898 77.9442 221.314 77.9442Z" fill="#E6E6E6"/>
<path id="Vector_29" d="M212.221 95.0022L142.823 95.0023C142.239 95.0015 141.679 94.7695 141.266 94.3572C140.853 93.9449 140.621 93.386 140.621 92.8032C140.621 92.2205 140.853 91.6615 141.266 91.2492C141.679 90.8369 142.239 90.6049 142.823 90.6042L212.221 90.6041C212.805 90.6041 213.366 90.8358 213.779 91.2482C214.193 91.6606 214.425 92.2199 214.425 92.8032C214.425 93.3864 214.193 93.9457 213.779 94.3581C213.366 94.7705 212.805 95.0022 212.221 95.0022Z" fill="#E6E6E6"/>
<path id="Vector_30" d="M221.314 102.424L142.823 102.424C142.533 102.424 142.246 102.368 141.979 102.257C141.711 102.147 141.467 101.985 141.263 101.781C141.058 101.577 140.895 101.334 140.784 101.067C140.673 100.8 140.616 100.514 140.616 100.225C140.616 99.936 140.673 99.6498 140.784 99.3828C140.895 99.1158 141.058 98.8733 141.263 98.6691C141.467 98.4648 141.711 98.3029 141.979 98.1925C142.246 98.0822 142.533 98.0256 142.823 98.0259L221.314 98.0259C221.898 98.0259 222.459 98.2576 222.872 98.67C223.286 99.0824 223.518 99.6417 223.518 100.225C223.518 100.808 223.286 101.367 222.872 101.78C222.459 102.192 221.898 102.424 221.314 102.424Z" fill="#E6E6E6"/>
<path id="Vector_31" d="M212.221 119.482L142.823 119.482C142.238 119.482 141.678 119.25 141.264 118.838C140.851 118.426 140.619 117.866 140.619 117.283C140.619 116.7 140.851 116.14 141.264 115.728C141.678 115.316 142.238 115.084 142.823 115.084L212.221 115.084C212.805 115.084 213.366 115.316 213.779 115.728C214.193 116.14 214.425 116.7 214.425 117.283C214.425 117.866 214.193 118.425 213.779 118.838C213.366 119.25 212.805 119.482 212.221 119.482Z" fill="#E6E6E6"/>
<path id="Vector_32" d="M221.314 126.904L142.823 126.904C142.238 126.904 141.678 126.672 141.264 126.26C140.851 125.847 140.619 125.288 140.619 124.705C140.619 124.121 140.851 123.562 141.264 123.15C141.678 122.737 142.238 122.506 142.823 122.506L221.314 122.506C221.898 122.506 222.459 122.737 222.872 123.15C223.286 123.562 223.518 124.121 223.518 124.705C223.518 125.288 223.286 125.847 222.872 126.26C222.459 126.672 221.898 126.904 221.314 126.904Z" fill="#E6E6E6"/>
<path id="Vector_33" d="M171.911 200.034H73.4405C72.2008 200.033 71.0123 199.541 70.1357 198.666C69.259 197.792 68.766 196.606 68.7646 195.369V62.0134C68.766 60.7766 69.259 59.5909 70.1357 58.7164C71.0123 57.8419 72.2008 57.35 73.4405 57.3486H171.911C173.151 57.35 174.34 57.8419 175.216 58.7164C176.093 59.5909 176.586 60.7766 176.587 62.0134V195.369C176.586 196.606 176.093 197.792 175.216 198.666C174.34 199.541 173.151 200.033 171.911 200.034Z" fill="white"/>
<path id="Vector_34" d="M81.6532 91.6799C81.6501 94.0813 82.1236 96.4596 83.0464 98.6775C83.9693 100.895 85.3233 102.909 87.0302 104.602C87.1733 104.743 87.3196 104.884 87.4675 105.022C88.3588 105.853 89.3314 106.592 90.3706 107.23C90.57 107.352 90.7696 107.47 90.9741 107.585C92.025 108.175 93.1322 108.66 94.2794 109.033C94.4772 109.097 94.6784 109.159 94.8796 109.215C98.5263 110.258 102.407 110.149 105.989 108.903C106.059 108.878 106.129 108.853 106.197 108.829C109.342 107.687 112.112 105.707 114.207 103.104C116.302 100.501 117.641 97.3749 118.078 94.0655C118.515 90.756 118.034 87.3903 116.687 84.3347C115.339 81.2792 113.178 78.6509 110.437 76.7359C107.696 74.8209 104.481 73.6927 101.142 73.474C97.8033 73.2553 94.4681 73.9546 91.4999 75.4956C88.5317 77.0367 86.0441 79.3605 84.3079 82.2141C82.5717 85.0677 81.6535 88.3418 81.6532 91.6799Z" fill="white"/>
<path id="Vector_35" d="M100.951 103.786C105.865 103.786 109.849 99.8114 109.849 94.9088C109.849 90.0062 105.865 86.0319 100.951 86.0319C96.0362 86.0319 92.0523 90.0062 92.0523 94.9088C92.0523 99.8114 96.0362 103.786 100.951 103.786Z" fill="#6C63FF"/>
<path id="Vector_36" d="M94.8796 109.215C98.5263 110.258 102.407 110.149 105.989 108.903C106.059 108.878 106.129 108.853 106.197 108.829C105.353 108.179 104.398 107.687 103.379 107.376C103.451 107.121 103.45 106.85 103.376 106.596C103.275 106.273 103.072 105.992 102.798 105.794C102.524 105.595 102.193 105.49 101.854 105.495H99.6864C99.3483 105.49 99.0178 105.595 98.7442 105.793C98.4706 105.991 98.2686 106.272 98.1684 106.594C98.0941 106.849 98.093 107.12 98.1651 107.376C97.2671 107.65 96.4186 108.065 95.6511 108.605C95.4965 108.712 95.3468 108.825 95.2022 108.943C95.0925 109.031 94.9844 109.122 94.8796 109.215Z" fill="#2F2E41"/>
<path id="Vector_37" d="M107.922 93.9671C107.922 95.4632 108.66 96.7039 109.619 96.9195C109.717 96.9414 109.817 96.9525 109.917 96.9527C111.016 96.9527 111.912 95.6141 111.912 93.9671C111.937 93.118 111.665 92.2867 111.144 91.6152C110.982 91.4193 110.782 91.2575 110.557 91.1391C110.359 91.0362 110.14 90.9822 109.917 90.9816C109.61 90.9853 109.313 91.0851 109.067 91.2669C108.39 91.7445 107.922 92.7745 107.922 93.9671Z" fill="#3F3D56"/>
<path id="Vector_38" d="M90.1311 93.9671C90.1311 95.2542 90.6764 96.3522 91.4413 96.7719C91.6506 96.8889 91.8863 96.9511 92.1263 96.9527C92.1797 96.9527 92.233 96.9494 92.2859 96.9427C93.3101 96.8217 94.1215 95.5345 94.1215 93.9671C94.1215 92.7115 93.601 91.6351 92.8662 91.1955C92.6439 91.0579 92.3879 90.9838 92.1263 90.9816C91.9034 90.9822 91.6838 91.0362 91.4862 91.1391C91.2603 91.2581 91.0603 91.4204 90.8976 91.6168C90.3777 92.2884 90.1068 93.1189 90.1311 93.9671Z" fill="#3F3D56"/>
<path id="Vector_39" d="M91.5657 96.4856C91.6053 96.4856 91.6443 96.4762 91.6795 96.4581C91.7148 96.4401 91.7452 96.4139 91.7683 96.3818C91.7914 96.3498 91.8065 96.3127 91.8123 96.2736C91.8182 96.2345 91.8147 96.1946 91.8021 96.1572C91.3254 94.7432 91.182 93.2386 91.3831 91.7603C91.5841 90.282 92.1241 88.8698 92.9611 87.6336C93.7982 86.3974 94.9097 85.3703 96.2093 84.6323C97.5089 83.8942 98.9616 83.4651 100.455 83.3782C101.947 83.2913 103.44 83.549 104.817 84.1313C106.194 84.7135 107.418 85.6046 108.393 86.7354C109.369 87.8661 110.07 89.2061 110.442 90.651C110.814 92.0959 110.847 93.607 110.538 95.0667C110.525 95.1312 110.537 95.1984 110.573 95.2536C110.609 95.3088 110.666 95.3474 110.731 95.361C110.795 95.3746 110.863 95.3621 110.918 95.3262C110.974 95.2902 111.012 95.2339 111.026 95.1694C111.351 93.6347 111.316 92.0459 110.925 90.5267C110.534 89.0074 109.797 87.5986 108.772 86.4096C107.746 85.2207 106.46 84.2837 105.012 83.6715C103.564 83.0593 101.995 82.7884 100.425 82.8798C98.8555 82.9712 97.3281 83.4224 95.9618 84.1985C94.5954 84.9745 93.4268 86.0545 92.5468 87.3544C91.6669 88.6542 91.0993 90.139 90.8882 91.6934C90.677 93.2477 90.828 94.8296 91.3294 96.3163C91.3461 96.3656 91.3779 96.4085 91.4203 96.4389C91.4627 96.4692 91.5135 96.4856 91.5657 96.4856Z" fill="#3F3D56"/>
<path id="Vector_40" d="M99.9424 110.422C98.183 110.424 96.4322 110.178 94.7414 109.693C94.5427 109.637 94.3339 109.574 94.1242 109.505C92.9461 109.123 91.809 108.625 90.7294 108.018C90.527 107.905 90.3237 107.785 90.1088 107.653C89.0416 106.998 88.0427 106.239 87.1269 105.385C86.9759 105.245 86.8262 105.101 86.6798 104.956C83.8 102.092 81.9296 98.3728 81.3496 94.3574C80.7697 90.342 81.5115 86.2473 83.4636 82.6884C85.4157 79.1296 88.4727 76.2987 92.1754 74.6211C95.878 72.9435 100.026 72.5097 103.997 73.385C107.968 74.2603 111.547 76.3973 114.196 79.4751C116.846 82.5529 118.423 86.4052 118.69 90.4532C118.957 94.5013 117.9 98.5266 115.678 101.924C113.456 105.322 110.189 107.909 106.368 109.296C106.299 109.321 106.228 109.346 106.157 109.372C104.16 110.069 102.059 110.425 99.9424 110.422ZM99.9424 73.9323C96.4214 73.9324 92.9796 74.9749 90.0528 76.9276C87.126 78.8803 84.8458 81.6554 83.5009 84.9016C82.1561 88.1479 81.807 91.7192 82.498 95.1635C83.189 98.6077 84.8888 101.77 87.3824 104.25C87.5204 104.386 87.6633 104.524 87.8078 104.658C88.6751 105.466 89.6211 106.185 90.6319 106.806C90.8355 106.931 91.0271 107.044 91.2181 107.151C92.2405 107.725 93.3176 108.197 94.4335 108.559C94.6309 108.624 94.826 108.683 95.0145 108.736C98.5626 109.752 102.339 109.646 105.825 108.434L106.026 108.361C109.957 106.934 113.258 104.171 115.349 100.557C117.44 96.9433 118.189 92.7101 117.463 88.6007C116.736 84.4912 114.582 80.7684 111.378 78.0859C108.174 75.4035 104.125 73.9328 99.9424 73.9323Z" fill="#CCCCCC"/>
<path id="Vector_41" d="M171.911 200.034H73.4405C72.2008 200.033 71.0123 199.541 70.1357 198.666C69.259 197.792 68.766 196.606 68.7646 195.369V62.0134C68.766 60.7766 69.259 59.5909 70.1357 58.7164C71.0123 57.8419 72.2008 57.35 73.4405 57.3486H171.911C173.151 57.35 174.34 57.8419 175.216 58.7164C176.093 59.5909 176.586 60.7766 176.587 62.0134V195.369C176.586 196.606 176.093 197.792 175.216 198.666C174.34 199.541 173.151 200.033 171.911 200.034ZM73.4405 57.8974C72.3467 57.8987 71.298 58.3327 70.5245 59.1043C69.751 59.8759 69.3159 60.9221 69.3147 62.0133V195.369C69.3159 196.461 69.751 197.507 70.5245 198.278C71.298 199.05 72.3467 199.484 73.4405 199.485H171.911C173.005 199.484 174.054 199.05 174.827 198.278C175.601 197.507 176.036 196.461 176.037 195.369V62.0134C176.036 60.9221 175.601 59.8759 174.827 59.1043C174.054 58.3327 173.005 57.8986 171.911 57.8974H73.4405Z" fill="#3F3D56"/>
<path id="Vector_42" d="M152.849 91.9839H124.985C124.4 91.9839 123.839 91.7522 123.426 91.3398C123.013 90.9274 122.78 90.3681 122.78 89.7849C122.78 89.2016 123.013 88.6423 123.426 88.2299C123.839 87.8175 124.4 87.5858 124.985 87.5858H152.849C153.433 87.5858 153.994 87.8175 154.407 88.2299C154.821 88.6423 155.053 89.2016 155.053 89.7849C155.053 90.3681 154.821 90.9274 154.407 91.3398C153.994 91.7522 153.433 91.9839 152.849 91.9839Z" fill="#6C63FF"/>
<path id="Vector_43" d="M161.942 99.4056H124.985C124.4 99.4056 123.839 99.174 123.426 98.7616C123.013 98.3492 122.78 97.7898 122.78 97.2066C122.78 96.6234 123.013 96.064 123.426 95.6516C123.839 95.2393 124.4 95.0076 124.985 95.0076H161.942C162.526 95.0076 163.087 95.2393 163.5 95.6516C163.914 96.064 164.146 96.6234 164.146 97.2066C164.146 97.7898 163.914 98.3492 163.5 98.7616C163.087 99.174 162.526 99.4056 161.942 99.4056Z" fill="#6C63FF"/>
<path id="Vector_44" d="M152.808 127.871H83.4104C82.8258 127.871 82.2651 127.639 81.8517 127.227C81.4383 126.815 81.206 126.255 81.206 125.672C81.206 125.089 81.4383 124.53 81.8517 124.117C82.2651 123.705 82.8258 123.473 83.4104 123.473H152.808C153.393 123.473 153.953 123.705 154.367 124.117C154.78 124.53 155.012 125.089 155.012 125.672C155.012 126.255 154.78 126.815 154.367 127.227C153.953 127.639 153.393 127.871 152.808 127.871Z" fill="#CCCCCC"/>
<path id="Vector_45" d="M161.901 135.293H83.4104C82.8258 135.293 82.2651 135.061 81.8517 134.649C81.4383 134.236 81.206 133.677 81.206 133.094C81.206 132.511 81.4383 131.951 81.8517 131.539C82.2651 131.126 82.8258 130.895 83.4104 130.895H161.901C162.486 130.895 163.046 131.126 163.46 131.539C163.873 131.951 164.105 132.511 164.105 133.094C164.105 133.677 163.873 134.236 163.46 134.649C163.046 135.061 162.486 135.293 161.901 135.293Z" fill="#CCCCCC"/>
<path id="Vector_46" d="M152.808 152.351H83.4104C82.8262 152.35 82.2662 152.118 81.8534 151.706C81.4406 151.293 81.2088 150.735 81.2088 150.152C81.2088 149.569 81.4406 149.01 81.8534 148.598C82.2662 148.185 82.8262 147.953 83.4104 147.953H152.808C153.393 147.953 153.953 148.184 154.367 148.597C154.78 149.009 155.012 149.569 155.012 150.152C155.012 150.735 154.78 151.294 154.367 151.707C153.953 152.119 153.393 152.351 152.808 152.351Z" fill="#CCCCCC"/>
<path id="Vector_47" d="M161.901 159.773H83.4104C82.8262 159.772 82.2662 159.54 81.8534 159.128C81.4406 158.715 81.2088 158.156 81.2088 157.574C81.2088 156.991 81.4406 156.432 81.8534 156.02C82.2662 155.607 82.8262 155.375 83.4104 155.375H161.901C162.486 155.375 163.046 155.606 163.46 156.019C163.873 156.431 164.105 156.99 164.105 157.574C164.105 158.157 163.873 158.716 163.46 159.129C163.046 159.541 162.486 159.773 161.901 159.773Z" fill="#CCCCCC"/>
<path id="Vector_48" d="M152.808 176.831H83.4104C82.8258 176.831 82.2651 176.599 81.8517 176.186C81.4383 175.774 81.206 175.215 81.206 174.632C81.206 174.048 81.4383 173.489 81.8517 173.077C82.2651 172.664 82.8258 172.432 83.4104 172.432H152.808C153.393 172.432 153.953 172.664 154.367 173.077C154.78 173.489 155.012 174.048 155.012 174.632C155.012 175.215 154.78 175.774 154.367 176.186C153.953 176.599 153.393 176.831 152.808 176.831Z" fill="#CCCCCC"/>
<path id="Vector_49" d="M161.901 184.252H83.4104C82.8258 184.252 82.2651 184.021 81.8517 183.608C81.4383 183.196 81.206 182.637 81.206 182.053C81.206 181.47 81.4383 180.911 81.8517 180.498C82.2651 180.086 82.8258 179.854 83.4104 179.854H161.901C162.486 179.854 163.046 180.086 163.46 180.498C163.873 180.911 164.105 181.47 164.105 182.053C164.105 182.637 163.873 183.196 163.46 183.608C163.046 184.021 162.486 184.252 161.901 184.252Z" fill="#CCCCCC"/>
<path id="Vector_50" d="M170.769 169.668C167.915 169.665 165.088 170.223 162.45 171.31C159.812 172.398 157.415 173.993 155.396 176.005C153.377 178.017 151.775 180.407 150.682 183.037C149.589 185.667 149.026 188.487 149.026 191.334C149.026 194.181 149.589 197 150.682 199.631C151.775 202.261 153.376 204.65 155.396 206.663C157.415 208.675 159.812 210.27 162.45 211.358C165.088 212.445 167.915 213.003 170.769 213C176.522 212.99 182.037 210.703 186.101 206.641C190.166 202.579 192.449 197.074 192.449 191.334C192.449 185.594 190.166 180.089 186.101 176.027C182.037 171.965 176.522 169.678 170.769 169.668Z" fill="#6C63FF"/>
<path id="f276b720-7c73-4755-84a7-b208d54eb1fc" d="M168.708 200.332C168.136 200.333 167.58 200.148 167.122 199.806L167.094 199.785L161.121 195.227C160.563 194.8 160.198 194.169 160.107 193.473C160.015 192.777 160.204 192.073 160.632 191.516C161.06 190.959 161.692 190.595 162.389 190.502C163.087 190.41 163.792 190.598 164.351 191.025L168.22 193.984L177.361 182.086C177.573 181.811 177.838 181.579 178.139 181.405C178.441 181.231 178.774 181.118 179.119 181.073C179.465 181.027 179.816 181.05 180.152 181.14C180.489 181.23 180.804 181.385 181.081 181.596L181.082 181.597L181.025 181.675L181.083 181.597C181.641 182.025 182.006 182.656 182.098 183.351C182.19 184.047 182.002 184.751 181.574 185.308L170.821 199.296C170.573 199.618 170.253 199.879 169.887 200.058C169.521 200.237 169.118 200.33 168.71 200.329L168.708 200.332Z" fill="white"/>
</g>
<defs>
<clipPath id="clip0_159_399">
<rect width="236" height="213" fill="white"/>
</clipPath>
</defs>
</svg>
