<svg width="157" height="169" viewBox="0 0 157 169" fill="none" xmlns="http://www.w3.org/2000/svg">
<path d="M107.646 146.201C105.968 143.852 103.697 142.133 100.841 141.49C98.3516 140.929 95.7914 141.024 93.2604 141.044L61.2578 141.291C58.5169 141.312 55.8891 143.686 56.0164 146.532C56.1427 149.354 58.3199 151.796 61.2578 151.773C70.6324 151.701 80.0069 151.629 89.3814 151.557C91.5915 151.539 93.8028 151.5 96.0131 151.507C96.5094 151.508 97.0037 151.535 97.4995 151.54C97.6197 151.542 97.7063 151.541 97.7676 151.538C97.783 151.543 97.7959 151.547 97.8159 151.552C98.0746 151.623 98.3399 151.672 98.6001 151.74C98.509 151.743 98.7689 151.905 98.8994 151.96C98.9173 151.995 98.9556 152.058 99.0194 152.155C99.1085 152.322 99.3722 152.829 99.3831 152.813C99.7794 153.815 100.106 154.843 100.362 155.89C100.971 158.199 101.105 158.681 101.192 160.847C101.303 163.583 103.524 166.219 106.434 166.088C109.178 165.965 111.794 163.781 111.675 160.847C111.475 155.902 110.607 150.348 107.646 146.201Z" fill="#E6E6E6"/>
<path d="M63.139 158.029C62.5379 154.387 61.9483 150.742 61.3355 147.101C60.7138 143.408 59.4439 140.026 56.5699 137.602C55.8019 136.954 55.0057 136.35 54.2061 135.747C53.9249 135.535 53.6441 135.323 53.3663 135.106C53.3497 135.093 53.3391 135.085 53.3247 135.074C53.2941 135.048 53.2575 135.016 53.2083 134.975C52.0104 133.961 50.8529 132.902 49.7504 131.776C48.7713 130.777 47.835 129.735 46.9414 128.65C46.7181 128.379 46.4977 128.105 46.2802 127.829C46.2427 127.782 46.0412 127.522 45.9084 127.352C45.7849 127.181 45.5593 126.874 45.5213 126.821C45.2672 126.461 45.0175 126.099 44.7724 125.732C43.103 123.231 41.6575 120.588 40.4526 117.833C40.3331 117.559 40.2164 117.284 40.1026 117.008C40.072 116.924 40.0325 116.815 39.9801 116.671C39.7372 116.003 39.4949 115.336 39.2729 114.661C38.8012 113.226 38.3957 111.769 38.0563 110.292C37.8885 109.562 37.7374 108.829 37.6031 108.092C37.5339 107.713 37.4691 107.333 37.4088 106.953C37.3989 106.89 37.34 106.479 37.3053 106.247C37.2797 106.014 37.232 105.601 37.2256 105.538C37.1873 105.154 37.1532 104.77 37.1234 104.386C37.0564 103.521 37.0111 102.655 36.9875 101.787C36.9472 100.245 36.9748 98.7026 37.0704 97.1607C37.1247 96.2944 37.2022 95.4303 37.2975 94.5678C37.3032 94.5148 37.3077 94.4726 37.3119 94.4347C37.3176 94.3961 37.3244 94.3524 37.3324 94.2979C37.4029 93.8213 37.4771 93.3453 37.5601 92.8708C37.8745 91.0692 38.2834 89.2854 38.7851 87.5268C39.0226 86.695 39.2806 85.87 39.5591 85.0517C39.6832 84.6885 39.8113 84.3267 39.9433 83.9662C39.9347 83.9895 40.3305 82.9783 40.3358 82.9443C41.9066 79.2331 44.4757 75.8498 44.4793 71.6339C44.4817 68.7796 42.0668 66.0453 39.2379 66.1772C37.8274 66.2303 36.4927 66.8289 35.5149 67.8468C34.5372 68.8647 33.9928 70.2225 33.9965 71.6339C33.9965 71.698 33.9962 71.7527 33.996 71.8058C33.9696 71.8946 33.9476 71.9688 33.9277 72.0344C33.6214 72.7 33.2462 73.3325 32.9099 73.9817C31.9892 75.7583 31.2034 77.5932 30.4569 79.4551C29.2348 82.4871 28.2994 85.6269 27.6628 88.8333C26.2792 95.8588 26.1718 103.076 27.3458 110.14C29.378 122.527 36.0798 134.384 45.3968 142.354C46.2053 143.046 47.0336 143.714 47.8696 144.369C48.2156 144.64 48.5645 144.906 48.9151 145.17C49.0808 145.295 49.7673 145.837 49.4653 145.574C50.1148 146.129 50.3881 146.407 50.555 146.816C50.5791 146.91 50.6121 147.038 50.6567 147.212C50.7743 147.673 50.8859 148.132 50.9787 148.599C51.7896 152.678 52.3533 156.825 53.0307 160.93C53.4964 163.751 56.969 165.587 59.4783 164.742C62.3991 163.758 63.6379 161.052 63.139 158.029Z" fill="#E6E6E6"/>
<path d="M108.176 168.609C105.975 168.614 103.861 167.747 102.299 166.196C100.736 164.645 99.8529 162.538 99.8421 160.337V154.358C93.5823 155.059 72.1469 154.897 66.0025 153.909V160.098C65.986 162.297 65.1007 164.401 63.5396 165.951C61.9785 167.5 59.8682 168.37 57.6687 168.37C55.4691 168.37 53.3588 167.5 51.7977 165.951C50.2366 164.401 49.3513 162.297 49.3348 160.098V147.947C41.0127 143.324 34.0751 136.564 29.2379 128.364C24.4007 120.165 21.8391 110.823 21.8176 101.303C21.8176 84.9792 29.2155 69.7516 42.1144 59.5246C50.5012 52.8525 60.691 48.84 71.3752 48.0023C72.8254 47.8885 74.2844 47.831 75.712 47.831C80.7412 47.831 103.432 48.6079 109.125 50.2458L122.107 37.3645C122.298 37.1726 122.541 37.0418 122.807 36.9889C123.072 36.936 123.347 36.9634 123.597 37.0675C123.849 37.1676 124.064 37.3416 124.216 37.5665C124.367 37.7914 124.446 38.0567 124.444 38.3276V40.3757L126.972 37.8722C127.162 37.6801 127.406 37.5491 127.671 37.4961C127.936 37.4431 128.211 37.4705 128.461 37.5747C128.713 37.6748 128.929 37.8488 129.08 38.0738C129.231 38.2987 129.311 38.5642 129.308 38.8353V61.722C135.822 67.5945 140.787 74.9831 143.763 83.2331C146.738 91.4831 147.633 100.34 146.367 109.018C145.101 117.697 141.714 125.929 136.506 132.985C131.298 140.041 124.43 145.704 116.51 149.471V160.337C116.499 162.538 115.615 164.645 114.053 166.196C112.491 167.747 110.377 168.614 108.176 168.609ZM100.497 153.615V160.337C100.514 162.363 101.33 164.3 102.768 165.726C104.206 167.153 106.15 167.953 108.176 167.953C110.202 167.953 112.145 167.153 113.583 165.726C115.022 164.3 115.838 162.363 115.854 160.337V149.057L116.041 148.969C124.928 144.752 132.472 138.154 137.836 129.909C144.671 119.388 147.514 106.767 145.849 94.3309C144.185 81.895 138.123 70.4659 128.762 62.112L128.653 62.0142V38.8353C128.656 38.6945 128.615 38.5563 128.536 38.4394C128.458 38.3225 128.345 38.2325 128.214 38.1816C128.083 38.1258 127.939 38.1107 127.8 38.1384C127.661 38.166 127.533 38.2351 127.434 38.3366L123.789 41.9467V38.3276C123.791 38.1868 123.75 38.0486 123.671 37.9317C123.593 37.8148 123.48 37.7248 123.349 37.6739C123.218 37.6182 123.074 37.6032 122.934 37.6311C122.795 37.659 122.667 37.7283 122.568 37.83L109.308 50.987L109.12 50.928C103.827 49.2715 80.7794 48.4861 75.712 48.4861C74.3014 48.4861 72.8596 48.5431 71.4267 48.6555C60.8723 49.483 50.8063 53.4468 42.5215 60.0379C29.7802 70.1399 22.4727 85.1804 22.4727 101.303C22.4945 110.739 25.0423 119.996 29.8516 128.115C34.6608 136.233 41.5561 142.915 49.821 147.468L49.99 147.561V160.098C50.0069 162.123 50.8233 164.06 52.2615 165.486C53.6997 166.913 55.6432 167.713 57.6687 167.713C59.6941 167.713 61.6376 166.913 63.0758 165.486C64.514 164.06 65.3304 162.123 65.3473 160.098V153.125L65.7355 153.198C71.2572 154.237 94.5079 154.401 100.127 153.664L100.497 153.615Z" fill="#3F3D56"/>
<path d="M84.7733 0C78.8141 0.00230443 73.0897 2.3233 68.8117 6.47173C64.5336 10.6202 62.0376 16.2705 61.852 22.2267C61.8455 22.4593 61.8423 22.6952 61.8423 22.931C61.8423 27.4664 63.1871 31.8998 65.7068 35.6708C68.2265 39.4418 71.8079 42.3809 75.998 44.1165C80.1881 45.8521 84.7987 46.3062 89.2469 45.4214C93.6951 44.5366 97.781 42.3527 100.988 39.1457C104.195 35.9387 106.379 31.8528 107.264 27.4046C108.148 22.9565 107.694 18.3458 105.959 14.1557C104.223 9.96561 101.284 6.38427 97.5131 3.86458C93.7421 1.34488 89.3086 0 84.7733 0ZM84.7733 45.2069C78.8672 45.2007 73.2049 42.8518 69.0287 38.6756C64.8525 34.4994 62.5036 28.8371 62.4974 22.931C62.4974 22.6264 62.504 22.325 62.5171 22.0269C62.6945 17.6634 64.1506 13.4483 66.7044 9.90568C69.2582 6.3631 72.797 3.64935 76.8807 2.10186C80.9644 0.554374 85.413 0.241423 89.6732 1.20193C93.9333 2.16244 97.8172 4.35402 100.842 7.50417C103.866 10.6543 105.898 14.6241 106.685 18.9198C107.471 23.2155 106.978 27.6476 105.266 31.6651C103.553 35.6825 100.698 39.1081 97.0547 41.5157C93.4112 43.9234 89.1404 45.207 84.7733 45.2069Z" fill="#3F3D56"/>
<path d="M104.101 22.931C104.101 28.057 102.065 32.9731 98.4399 36.5977C94.8153 40.2223 89.8993 42.2586 84.7733 42.2586C79.6473 42.2586 74.7312 40.2223 71.1066 36.5977C67.482 32.9731 65.4457 28.057 65.4457 22.931C65.4457 22.3184 65.4751 21.7157 65.5308 21.1195C65.9966 16.1724 68.3498 11.5947 72.1019 8.33694C75.8539 5.0792 80.7165 3.39169 85.6801 3.62482C90.6436 3.85794 95.3266 5.99379 98.7568 9.58887C102.187 13.1839 104.101 17.962 104.101 22.931Z" fill="#E6E6E6"/>
<path d="M90.5289 24.2152C90.0604 23.5992 89.4441 23.1114 88.7371 22.7967C87.865 22.4292 86.9644 22.1334 86.0443 21.9123V16.6512C87.4587 16.8645 88.7852 17.4693 89.8737 18.3973L90.9418 16.1205C90.3275 15.5733 89.6224 15.1377 88.8582 14.8331C88.0112 14.4902 87.1221 14.2621 86.2146 14.155V11.4885H83.7414V14.1812C82.7864 14.2885 81.8651 14.5978 81.0388 15.0886C80.2924 15.5304 79.6641 16.1464 79.2075 16.8838C78.7718 17.6035 78.5461 18.4307 78.5557 19.2719C78.5131 20.1835 78.7773 21.0831 79.3059 21.8271C79.7924 22.4712 80.435 22.9808 81.173 23.3078C82.059 23.6861 82.9751 23.9897 83.9118 24.2152V29.2567C82.2427 29.1308 80.6523 28.4963 79.355 27.4386L78.2871 29.7186C79.0125 30.3183 79.8374 30.7862 80.7244 31.101C81.6962 31.4488 82.7116 31.6605 83.7414 31.73V34.3736H86.2147V31.6809C87.5884 31.5308 88.8767 30.9401 89.8869 29.9971C90.3318 29.5704 90.6832 29.0561 90.9189 28.4865C91.1546 27.917 91.2695 27.3047 91.2562 26.6885C91.2973 25.8059 91.0412 24.935 90.5289 24.2152ZM83.9118 21.3554C83.3093 21.1727 82.7492 20.872 82.2639 20.4709C82.0717 20.2998 81.9197 20.0883 81.8189 19.8516C81.7181 19.6148 81.671 19.3587 81.6809 19.1016C81.663 18.5181 81.8774 17.9514 82.277 17.5259C82.7201 17.0795 83.2917 16.7828 83.9118 16.6774V21.3554ZM87.5971 28.3264C87.1792 28.755 86.635 29.0385 86.0443 29.1355V24.7983C86.6089 24.9498 87.1371 25.2139 87.5971 25.5747C87.7715 25.7236 87.91 25.9099 88.0025 26.1197C88.0949 26.3296 88.1388 26.5576 88.131 26.7867C88.1538 27.349 87.9631 27.899 87.5971 28.3264Z" fill="#6C63FF"/>
<path d="M24.0781 84.9268C19.5075 84.2516 15.1362 82.5988 11.2623 80.0811C9.343 78.8347 7.56625 77.3816 5.96389 75.7477C4.38235 74.1346 2.86935 72.3011 2.08599 70.1528C1.3323 68.1652 1.37115 65.964 2.1945 64.0043C3.00663 62.0565 4.55798 60.5102 6.50841 59.7045C8.47052 58.922 10.8411 58.8383 12.7507 59.6953C13.6606 60.0941 14.4481 60.7279 15.0321 61.5317C15.3036 61.9022 15.5046 62.3195 15.6251 62.7628C15.737 63.1645 15.7472 63.5876 15.6547 63.9942C15.5428 64.4001 15.3453 64.7774 15.0756 65.1007C14.8059 65.4241 14.4701 65.686 14.0909 65.869C13.2562 66.2972 12.3519 66.573 11.4204 66.6835C10.4834 66.8112 9.13752 66.9275 8.3843 66.1754C8.22925 66.0266 8.1073 65.8468 8.02638 65.6477C7.96976 65.4953 7.9504 65.3315 7.96991 65.1701C7.95892 65.2412 8.01535 65.0153 8.01213 65.0243C8.00022 65.0577 7.94864 65.1391 8.02196 65.0141C8.04487 64.9728 8.07038 64.9331 8.09833 64.8951C8.07343 64.9273 8.01875 64.9811 8.11639 64.8889C8.19708 64.8006 8.3008 64.7365 8.4159 64.704C8.46124 64.6908 8.50724 64.6803 8.55271 64.6678C8.66827 64.6363 8.43752 64.6696 8.55575 64.6658C8.60137 64.6643 8.64754 64.6655 8.69301 64.6634C8.80898 64.6582 8.5786 64.6318 8.68974 64.6597C8.73289 64.6706 8.77564 64.6812 8.81815 64.6946C8.91056 64.7237 8.75272 64.6268 8.81533 64.6993C8.88871 64.7843 8.73829 64.6166 8.82169 64.6989C8.8632 64.7397 8.90232 64.7828 8.93886 64.8281C9.0835 64.9709 9.27858 65.0509 9.48183 65.0509C9.68509 65.0509 9.88017 64.9709 10.0248 64.8281C10.1645 64.6818 10.2425 64.4874 10.2425 64.2851C10.2425 64.0828 10.1645 63.8884 10.0248 63.7421C9.26762 62.8035 7.77198 63.0354 7.00601 63.8287C6.02915 64.8405 6.41599 66.4439 7.3662 67.3267C8.44189 68.3261 9.9654 68.3955 11.3491 68.2279C12.5185 68.1159 13.6581 67.7939 14.7131 67.2773C15.7615 66.7622 16.5814 65.8764 17.0141 64.7915C17.2095 64.2125 17.2797 63.5986 17.22 62.9904C17.1603 62.3823 16.9722 61.7937 16.668 61.2637C15.4464 58.967 12.9167 57.7895 10.4163 57.5855C9.12893 57.4846 7.83437 57.6401 6.60751 58.0429C5.38064 58.4456 4.24584 59.0877 3.26875 59.9319C1.38545 61.6274 0.225759 63.9818 0.0294941 66.5082C-0.188763 69.1276 0.827523 71.6714 2.30924 73.7853C3.86043 75.9331 5.71149 77.8475 7.80595 79.47C11.9006 82.739 16.7036 85.0042 21.8306 86.0842C22.4404 86.2102 23.0535 86.318 23.6699 86.4077C23.866 86.4553 24.0729 86.4262 24.2484 86.3266C24.4238 86.227 24.5548 86.0642 24.6144 85.8714C24.6671 85.6751 24.6403 85.4659 24.54 85.2892C24.4396 85.1124 24.2737 84.9822 24.0781 84.9268Z" fill="#3F3D56"/>
<path d="M97.256 51.5536C90.5595 51.4591 83.884 51.629 77.2297 52.0634C74.9552 52.2119 72.9872 53.0159 72.9872 54.367C72.9872 55.4967 74.9395 56.8202 77.2297 56.6706C83.8807 56.2363 90.5561 56.0664 97.256 56.1608C102.718 56.2379 102.715 51.6306 97.256 51.5536Z" fill="#CCCCCC"/>
<path d="M87.3584 55.9326C86.6347 55.9326 69.6341 55.9056 69.6341 53.5573C69.6341 51.2092 86.6347 51.1821 87.3584 51.1821C88.0821 51.1821 105.083 51.2092 105.083 53.5573C105.083 55.9056 88.0821 55.9326 87.3584 55.9326ZM70.2989 53.5573C70.7641 54.2692 77.0132 55.2774 87.3584 55.2774C97.7036 55.2774 103.953 54.2693 104.418 53.5573C103.953 52.8455 97.7036 51.8373 87.3584 51.8373C77.0132 51.8373 70.7641 52.8455 70.2989 53.5573Z" fill="#3F3D56"/>
<path d="M141.297 117.666C145.06 117.562 149.744 117.431 153.352 114.795C154.427 113.978 155.309 112.936 155.939 111.742C156.568 110.548 156.929 109.23 156.995 107.882C157.069 105.801 156.317 103.983 154.877 102.767C152.993 101.175 150.241 100.801 147.275 101.673L150.348 79.2174L148.092 78.9083L144.48 105.307L146.363 104.443C148.547 103.441 151.545 102.932 153.408 104.506C153.865 104.917 154.221 105.429 154.449 106.001C154.677 106.572 154.769 107.189 154.72 107.802C154.665 108.806 154.394 109.785 153.926 110.675C153.458 111.564 152.805 112.342 152.009 112.957C149.201 115.008 145.468 115.272 141.233 115.391L141.297 117.666Z" fill="#3F3D56"/>
<path d="M135.06 81.1539H122.798V83.4307H135.06V81.1539Z" fill="#3F3D56"/>
<path d="M107.646 146.201C105.968 143.852 103.697 142.133 100.841 141.49C98.3516 140.929 95.7914 141.024 93.2604 141.044L61.2578 141.291C58.5169 141.312 55.8891 143.686 56.0164 146.532C56.1427 149.354 58.3199 151.796 61.2578 151.773C70.6324 151.701 80.0069 151.629 89.3814 151.557C91.5915 151.539 93.8028 151.5 96.0131 151.507C96.5094 151.508 97.0037 151.535 97.4995 151.54C97.6197 151.542 97.7063 151.541 97.7676 151.538C97.783 151.543 97.7959 151.547 97.8159 151.552C98.0746 151.623 98.3399 151.672 98.6001 151.74C98.509 151.743 98.7689 151.905 98.8994 151.96C98.9173 151.995 98.9556 152.058 99.0194 152.155C99.1085 152.322 99.3722 152.829 99.3831 152.813C99.7794 153.815 100.106 154.843 100.362 155.89C100.971 158.199 101.105 158.681 101.192 160.847C101.303 163.583 103.524 166.219 106.434 166.088C109.178 165.965 111.794 163.781 111.675 160.847C111.475 155.902 110.607 150.348 107.646 146.201Z" fill="#E6E6E6"/>
<path d="M63.139 158.029C62.5379 154.387 61.9483 150.742 61.3355 147.101C60.7138 143.408 59.4439 140.026 56.5699 137.602C55.8019 136.954 55.0057 136.35 54.2061 135.747C53.9249 135.535 53.6441 135.323 53.3663 135.106C53.3497 135.093 53.3391 135.085 53.3247 135.074C53.2941 135.048 53.2575 135.016 53.2083 134.975C52.0104 133.961 50.8529 132.902 49.7504 131.776C48.7713 130.777 47.835 129.735 46.9414 128.65C46.7181 128.379 46.4977 128.105 46.2802 127.829C46.2427 127.782 46.0412 127.522 45.9084 127.352C45.7849 127.181 45.5593 126.874 45.5213 126.821C45.2672 126.461 45.0175 126.099 44.7724 125.732C43.103 123.231 41.6575 120.588 40.4526 117.833C40.3331 117.559 40.2164 117.284 40.1026 117.008C40.072 116.924 40.0325 116.815 39.9801 116.671C39.7372 116.003 39.4949 115.336 39.2729 114.661C38.8012 113.226 38.3957 111.769 38.0563 110.292C37.8885 109.562 37.7374 108.829 37.6031 108.092C37.5339 107.713 37.4691 107.333 37.4088 106.953C37.3989 106.89 37.34 106.479 37.3053 106.247C37.2797 106.014 37.232 105.601 37.2256 105.538C37.1873 105.154 37.1532 104.77 37.1234 104.386C37.0564 103.521 37.0111 102.655 36.9875 101.787C36.9472 100.245 36.9748 98.7026 37.0704 97.1607C37.1247 96.2944 37.2022 95.4303 37.2975 94.5678C37.3032 94.5148 37.3077 94.4726 37.3119 94.4347C37.3176 94.3961 37.3244 94.3524 37.3324 94.2979C37.4029 93.8213 37.4771 93.3453 37.5601 92.8708C37.8745 91.0692 38.2834 89.2854 38.7851 87.5268C39.0226 86.695 39.2806 85.87 39.5591 85.0517C39.6832 84.6885 39.8113 84.3267 39.9433 83.9662C39.9347 83.9895 40.3305 82.9783 40.3358 82.9443C41.9066 79.2331 44.4757 75.8498 44.4793 71.6339C44.4817 68.7796 42.0668 66.0453 39.2379 66.1772C37.8274 66.2303 36.4927 66.8289 35.5149 67.8468C34.5372 68.8647 33.9928 70.2225 33.9965 71.6339C33.9965 71.698 33.9962 71.7527 33.996 71.8058C33.9696 71.8946 33.9476 71.9688 33.9277 72.0344C33.6214 72.7 33.2462 73.3325 32.9099 73.9817C31.9892 75.7583 31.2034 77.5932 30.4569 79.4551C29.2348 82.4871 28.2994 85.6269 27.6628 88.8333C26.2792 95.8588 26.1718 103.076 27.3458 110.14C29.378 122.527 36.0798 134.384 45.3968 142.354C46.2053 143.046 47.0336 143.714 47.8696 144.369C48.2156 144.64 48.5645 144.906 48.9151 145.17C49.0808 145.295 49.7673 145.837 49.4653 145.574C50.1148 146.129 50.3881 146.407 50.555 146.816C50.5791 146.91 50.6121 147.038 50.6567 147.212C50.7743 147.673 50.8859 148.132 50.9787 148.599C51.7896 152.678 52.3533 156.825 53.0307 160.93C53.4964 163.751 56.969 165.587 59.4783 164.742C62.3991 163.758 63.6379 161.052 63.139 158.029Z" fill="#E6E6E6"/>
<path d="M108.176 168.609C105.975 168.614 103.861 167.747 102.299 166.196C100.736 164.645 99.8529 162.538 99.8421 160.337V154.358C93.5823 155.059 72.1469 154.897 66.0025 153.909V160.098C65.986 162.297 65.1007 164.401 63.5396 165.951C61.9785 167.5 59.8682 168.37 57.6687 168.37C55.4691 168.37 53.3588 167.5 51.7977 165.951C50.2366 164.401 49.3513 162.297 49.3348 160.098V147.947C41.0127 143.324 34.0751 136.564 29.2379 128.364C24.4007 120.165 21.8391 110.823 21.8176 101.303C21.8176 84.9792 29.2155 69.7516 42.1144 59.5246C50.5012 52.8525 60.691 48.84 71.3752 48.0023C72.8254 47.8885 74.2844 47.831 75.712 47.831C80.7412 47.831 103.432 48.6079 109.125 50.2458L122.107 37.3645C122.298 37.1726 122.541 37.0418 122.807 36.9889C123.072 36.936 123.347 36.9634 123.597 37.0675C123.849 37.1676 124.064 37.3416 124.216 37.5665C124.367 37.7914 124.446 38.0567 124.444 38.3276V40.3757L126.972 37.8722C127.162 37.6801 127.406 37.5491 127.671 37.4961C127.936 37.4431 128.211 37.4705 128.461 37.5747C128.713 37.6748 128.929 37.8488 129.08 38.0738C129.231 38.2987 129.311 38.5642 129.308 38.8353V61.722C135.822 67.5945 140.787 74.9831 143.763 83.2331C146.738 91.4831 147.633 100.34 146.367 109.018C145.101 117.697 141.714 125.929 136.506 132.985C131.298 140.041 124.43 145.704 116.51 149.471V160.337C116.499 162.538 115.615 164.645 114.053 166.196C112.491 167.747 110.377 168.614 108.176 168.609ZM100.497 153.615V160.337C100.514 162.363 101.33 164.3 102.768 165.726C104.206 167.153 106.15 167.953 108.176 167.953C110.202 167.953 112.145 167.153 113.583 165.726C115.022 164.3 115.838 162.363 115.854 160.337V149.057L116.041 148.969C124.928 144.752 132.472 138.154 137.836 129.909C144.671 119.388 147.514 106.767 145.849 94.3309C144.185 81.895 138.123 70.4659 128.762 62.112L128.653 62.0142V38.8353C128.656 38.6945 128.615 38.5563 128.536 38.4394C128.458 38.3225 128.345 38.2325 128.214 38.1816C128.083 38.1258 127.939 38.1107 127.8 38.1384C127.661 38.166 127.533 38.2351 127.434 38.3366L123.789 41.9467V38.3276C123.791 38.1868 123.75 38.0486 123.671 37.9317C123.593 37.8148 123.48 37.7248 123.349 37.6739C123.218 37.6182 123.074 37.6032 122.934 37.6311C122.795 37.659 122.667 37.7283 122.568 37.83L109.308 50.987L109.12 50.928C103.827 49.2715 80.7794 48.4861 75.712 48.4861C74.3014 48.4861 72.8596 48.5431 71.4267 48.6555C60.8723 49.483 50.8063 53.4468 42.5215 60.0379C29.7802 70.1399 22.4727 85.1804 22.4727 101.303C22.4945 110.739 25.0423 119.996 29.8516 128.115C34.6608 136.233 41.5561 142.915 49.821 147.468L49.99 147.561V160.098C50.0069 162.123 50.8233 164.06 52.2615 165.486C53.6997 166.913 55.6432 167.713 57.6687 167.713C59.6941 167.713 61.6376 166.913 63.0758 165.486C64.514 164.06 65.3304 162.123 65.3473 160.098V153.125L65.7355 153.198C71.2572 154.237 94.5079 154.401 100.127 153.664L100.497 153.615Z" fill="#3F3D56"/>
<path d="M84.7733 0C78.8141 0.00230443 73.0897 2.3233 68.8117 6.47173C64.5336 10.6202 62.0376 16.2705 61.852 22.2267C61.8455 22.4593 61.8423 22.6952 61.8423 22.931C61.8423 27.4664 63.1871 31.8998 65.7068 35.6708C68.2265 39.4418 71.8079 42.3809 75.998 44.1165C80.1881 45.8521 84.7987 46.3062 89.2469 45.4214C93.6951 44.5366 97.781 42.3527 100.988 39.1457C104.195 35.9387 106.379 31.8528 107.264 27.4046C108.148 22.9565 107.694 18.3458 105.959 14.1557C104.223 9.96561 101.284 6.38427 97.5131 3.86458C93.7421 1.34488 89.3086 0 84.7733 0ZM84.7733 45.2069C78.8672 45.2007 73.2049 42.8518 69.0287 38.6756C64.8525 34.4994 62.5036 28.8371 62.4974 22.931C62.4974 22.6264 62.504 22.325 62.5171 22.0269C62.6945 17.6634 64.1506 13.4483 66.7044 9.90568C69.2582 6.3631 72.797 3.64935 76.8807 2.10186C80.9644 0.554374 85.413 0.241423 89.6732 1.20193C93.9333 2.16244 97.8172 4.35402 100.842 7.50417C103.866 10.6543 105.898 14.6241 106.685 18.9198C107.471 23.2155 106.978 27.6476 105.266 31.6651C103.553 35.6825 100.698 39.1081 97.0547 41.5157C93.4112 43.9234 89.1404 45.207 84.7733 45.2069Z" fill="#3F3D56"/>
<path d="M104.101 22.931C104.101 28.057 102.065 32.9731 98.4399 36.5977C94.8153 40.2223 89.8993 42.2586 84.7733 42.2586C79.6473 42.2586 74.7312 40.2223 71.1066 36.5977C67.482 32.9731 65.4457 28.057 65.4457 22.931C65.4457 22.3184 65.4751 21.7157 65.5308 21.1195C65.9966 16.1724 68.3498 11.5947 72.1019 8.33694C75.8539 5.0792 80.7165 3.39169 85.6801 3.62482C90.6436 3.85794 95.3266 5.99379 98.7568 9.58887C102.187 13.1839 104.101 17.962 104.101 22.931Z" fill="#E6E6E6"/>
<path d="M90.5289 24.2152C90.0604 23.5992 89.4441 23.1114 88.7371 22.7967C87.865 22.4292 86.9644 22.1334 86.0443 21.9123V16.6512C87.4587 16.8645 88.7852 17.4693 89.8737 18.3973L90.9418 16.1205C90.3275 15.5733 89.6224 15.1377 88.8582 14.8331C88.0112 14.4902 87.1221 14.2621 86.2146 14.155V11.4885H83.7414V14.1812C82.7864 14.2885 81.8651 14.5978 81.0388 15.0886C80.2924 15.5304 79.6641 16.1464 79.2075 16.8838C78.7718 17.6035 78.5461 18.4307 78.5557 19.2719C78.5131 20.1835 78.7773 21.0831 79.3059 21.8271C79.7924 22.4712 80.435 22.9808 81.173 23.3078C82.059 23.6861 82.9751 23.9897 83.9118 24.2152V29.2567C82.2427 29.1308 80.6523 28.4963 79.355 27.4386L78.2871 29.7186C79.0125 30.3183 79.8374 30.7862 80.7244 31.101C81.6962 31.4488 82.7116 31.6605 83.7414 31.73V34.3736H86.2147V31.6809C87.5884 31.5308 88.8767 30.9401 89.8869 29.9971C90.3318 29.5704 90.6832 29.0561 90.9189 28.4865C91.1546 27.917 91.2695 27.3047 91.2562 26.6885C91.2973 25.8059 91.0412 24.935 90.5289 24.2152ZM83.9118 21.3554C83.3093 21.1727 82.7492 20.872 82.2639 20.4709C82.0717 20.2998 81.9197 20.0883 81.8189 19.8516C81.7181 19.6148 81.671 19.3587 81.6809 19.1016C81.663 18.5181 81.8774 17.9514 82.277 17.5259C82.7201 17.0795 83.2917 16.7828 83.9118 16.6774V21.3554ZM87.5971 28.3264C87.1792 28.755 86.635 29.0385 86.0443 29.1355V24.7983C86.6089 24.9498 87.1371 25.2139 87.5971 25.5747C87.7715 25.7236 87.91 25.9099 88.0025 26.1197C88.0949 26.3296 88.1388 26.5576 88.131 26.7867C88.1538 27.349 87.9631 27.899 87.5971 28.3264Z" fill="#2F2E41"/>
<path d="M24.0781 84.9268C19.5075 84.2516 15.1362 82.5988 11.2623 80.0811C9.343 78.8347 7.56625 77.3816 5.96389 75.7477C4.38235 74.1346 2.86935 72.3011 2.08599 70.1528C1.3323 68.1652 1.37115 65.964 2.1945 64.0043C3.00663 62.0565 4.55798 60.5102 6.50841 59.7045C8.47052 58.922 10.8411 58.8383 12.7507 59.6953C13.6606 60.0941 14.4481 60.7279 15.0321 61.5317C15.3036 61.9022 15.5046 62.3195 15.6251 62.7628C15.737 63.1645 15.7472 63.5876 15.6547 63.9942C15.5428 64.4001 15.3453 64.7774 15.0756 65.1007C14.8059 65.4241 14.4701 65.686 14.0909 65.869C13.2562 66.2972 12.3519 66.573 11.4204 66.6835C10.4834 66.8112 9.13752 66.9275 8.3843 66.1754C8.22925 66.0266 8.1073 65.8468 8.02638 65.6477C7.96976 65.4953 7.9504 65.3315 7.96991 65.1701C7.95892 65.2412 8.01535 65.0153 8.01213 65.0243C8.00022 65.0577 7.94864 65.1391 8.02196 65.0141C8.04487 64.9728 8.07038 64.9331 8.09833 64.8951C8.07343 64.9273 8.01875 64.9811 8.11639 64.8889C8.19708 64.8006 8.3008 64.7365 8.4159 64.704C8.46124 64.6908 8.50724 64.6803 8.55271 64.6678C8.66827 64.6363 8.43752 64.6696 8.55575 64.6658C8.60137 64.6643 8.64754 64.6655 8.69301 64.6634C8.80898 64.6582 8.5786 64.6318 8.68974 64.6597C8.73289 64.6706 8.77564 64.6812 8.81815 64.6946C8.91056 64.7237 8.75272 64.6268 8.81533 64.6993C8.88871 64.7843 8.73829 64.6166 8.82169 64.6989C8.8632 64.7397 8.90232 64.7828 8.93886 64.8281C9.0835 64.9709 9.27858 65.0509 9.48183 65.0509C9.68509 65.0509 9.88017 64.9709 10.0248 64.8281C10.1645 64.6818 10.2425 64.4874 10.2425 64.2851C10.2425 64.0828 10.1645 63.8884 10.0248 63.7421C9.26762 62.8035 7.77198 63.0354 7.00601 63.8287C6.02915 64.8405 6.41599 66.4439 7.3662 67.3267C8.44189 68.3261 9.9654 68.3955 11.3491 68.2279C12.5185 68.1159 13.6581 67.7939 14.7131 67.2773C15.7615 66.7622 16.5814 65.8764 17.0141 64.7915C17.2095 64.2125 17.2797 63.5986 17.22 62.9904C17.1603 62.3823 16.9722 61.7937 16.668 61.2637C15.4464 58.967 12.9167 57.7895 10.4163 57.5855C9.12893 57.4846 7.83437 57.6401 6.60751 58.0429C5.38064 58.4456 4.24584 59.0877 3.26875 59.9319C1.38545 61.6274 0.225759 63.9818 0.0294941 66.5082C-0.188763 69.1276 0.827523 71.6714 2.30924 73.7853C3.86043 75.9331 5.71149 77.8475 7.80595 79.47C11.9006 82.739 16.7036 85.0042 21.8306 86.0842C22.4404 86.2102 23.0535 86.318 23.6699 86.4077C23.866 86.4553 24.0729 86.4262 24.2484 86.3266C24.4238 86.227 24.5548 86.0642 24.6144 85.8714C24.6671 85.6751 24.6403 85.4659 24.54 85.2892C24.4396 85.1124 24.2737 84.9822 24.0781 84.9268Z" fill="#3F3D56"/>
<path d="M97.256 51.5536C90.5595 51.4591 83.884 51.629 77.2297 52.0634C74.9552 52.2119 72.9872 53.0159 72.9872 54.367C72.9872 55.4967 74.9395 56.8202 77.2297 56.6706C83.8807 56.2363 90.5561 56.0664 97.256 56.1608C102.718 56.2379 102.715 51.6306 97.256 51.5536Z" fill="#CCCCCC"/>
<path d="M87.3584 55.9326C86.6347 55.9326 69.6341 55.9056 69.6341 53.5573C69.6341 51.2092 86.6347 51.1821 87.3584 51.1821C88.0821 51.1821 105.083 51.2092 105.083 53.5573C105.083 55.9056 88.0821 55.9326 87.3584 55.9326ZM70.2989 53.5573C70.7641 54.2692 77.0132 55.2774 87.3584 55.2774C97.7036 55.2774 103.953 54.2693 104.418 53.5573C103.953 52.8455 97.7036 51.8373 87.3584 51.8373C77.0132 51.8373 70.7641 52.8455 70.2989 53.5573Z" fill="#3F3D56"/>
<path d="M141.297 117.666C145.06 117.562 149.744 117.431 153.352 114.795C154.427 113.978 155.309 112.936 155.939 111.742C156.568 110.548 156.929 109.23 156.995 107.882C157.069 105.801 156.317 103.983 154.877 102.767C152.993 101.175 150.241 100.801 147.275 101.673L150.348 79.2174L148.092 78.9083L144.48 105.307L146.363 104.443C148.547 103.441 151.545 102.932 153.408 104.506C153.865 104.917 154.221 105.429 154.449 106.001C154.677 106.572 154.769 107.189 154.72 107.802C154.665 108.806 154.394 109.785 153.926 110.675C153.458 111.564 152.805 112.342 152.009 112.957C149.201 115.008 145.468 115.272 141.233 115.391L141.297 117.666Z" fill="#3F3D56"/>
<path d="M135.06 81.1539H122.798V83.4307H135.06V81.1539Z" fill="#3F3D56"/>
</svg>
