<svg width="123" height="116" viewBox="0 0 123 116" fill="none" xmlns="http://www.w3.org/2000/svg">
<path d="M22.8319 2.70667C23.5536 1.85781 24.4496 1.17632 25.4582 0.709078C26.4668 0.241833 27.564 -7.34718e-05 28.6744 1.67387e-08H94.3256C95.436 -7.34718e-05 96.5332 0.241833 97.5418 0.709078C98.5504 1.17632 99.4464 1.85781 100.168 2.70667L120.225 26.2469C122.016 28.3491 123 31.0262 123 33.7947V35.7667C123 39.5945 121.812 43.3268 119.601 46.4419C117.389 49.5571 114.266 51.8994 110.667 53.1415C107.068 54.3836 103.172 54.4634 99.5259 53.3698C95.8794 52.2762 92.6637 50.0638 90.3281 47.0419C88.6226 49.2518 86.4369 51.0398 83.9385 52.269C81.4401 53.4982 78.6953 54.1359 75.9141 54.1333C73.1328 54.1365 70.3877 53.499 67.8892 52.2698C65.3907 51.0406 63.2052 49.2522 61.5 47.0419C59.7948 49.2522 57.6093 51.0406 55.1108 52.2698C52.6123 53.499 49.8672 54.1365 47.0859 54.1333C44.3047 54.1365 41.5596 53.499 39.0611 52.2698C36.5626 51.0406 34.377 49.2522 32.6719 47.0419C30.3363 50.0638 27.1206 52.2762 23.4741 53.3698C19.8275 54.4634 15.9325 54.3836 12.3332 53.1415C8.73402 51.8994 5.61051 49.5571 3.39928 46.4419C1.18804 43.3268 -0.000419727 39.5945 1.11196e-07 35.7667V33.7947C9.69204e-05 31.0262 0.984435 28.3491 2.77519 26.2469L22.8396 2.69893L22.8319 2.70667ZM36.5156 35.7667C36.5156 38.5868 37.6293 41.2914 39.6116 43.2856C41.5939 45.2797 44.2825 46.4 47.0859 46.4C49.8894 46.4 52.578 45.2797 54.5603 43.2856C56.5426 41.2914 57.6562 38.5868 57.6562 35.7667C57.6562 34.7412 58.0612 33.7577 58.7821 33.0325C59.5029 32.3074 60.4806 31.9 61.5 31.9C62.5194 31.9 63.4971 32.3074 64.2179 33.0325C64.9388 33.7577 65.3438 34.7412 65.3438 35.7667C65.3438 38.5868 66.4574 41.2914 68.4397 43.2856C70.422 45.2797 73.1106 46.4 75.9141 46.4C78.7175 46.4 81.4061 45.2797 83.3884 43.2856C85.3707 41.2914 86.4844 38.5868 86.4844 35.7667C86.4844 34.7412 86.8893 33.7577 87.6102 33.0325C88.331 32.3074 89.3087 31.9 90.3281 31.9C91.3475 31.9 92.3252 32.3074 93.0461 33.0325C93.7669 33.7577 94.1719 34.7412 94.1719 35.7667C94.1719 38.5868 95.2855 41.2914 97.2679 43.2856C99.2502 45.2797 101.939 46.4 104.742 46.4C107.546 46.4 110.234 45.2797 112.217 43.2856C114.199 41.2914 115.312 38.5868 115.312 35.7667V33.7947C115.313 32.8731 114.985 31.9818 114.39 31.2813L94.3256 7.73333H28.6744L8.61 31.2813C8.01458 31.9818 7.68743 32.8731 7.6875 33.7947V35.7667C7.6875 38.5868 8.80116 41.2914 10.7835 43.2856C12.7658 45.2797 15.4544 46.4 18.2578 46.4C21.0612 46.4 23.7498 45.2797 25.7322 43.2856C27.7145 41.2914 28.8281 38.5868 28.8281 35.7667C28.8281 34.7412 29.2331 33.7577 29.9539 33.0325C30.6748 32.3074 31.6524 31.9 32.6719 31.9C33.6913 31.9 34.669 32.3074 35.3898 33.0325C36.1107 33.7577 36.5156 34.7412 36.5156 35.7667ZM11.5312 58C12.5507 58 13.5283 58.4074 14.2492 59.1325C14.97 59.8577 15.375 60.8412 15.375 61.8667V108.267H23.0625V69.6C23.0625 67.549 23.8724 65.582 25.3141 64.1317C26.7558 62.6814 28.7111 61.8667 30.75 61.8667H53.8125C55.8514 61.8667 57.8067 62.6814 59.2484 64.1317C60.6901 65.582 61.5 67.549 61.5 69.6V108.267H107.625V61.8667C107.625 60.8412 108.03 59.8577 108.751 59.1325C109.472 58.4074 110.449 58 111.469 58C112.488 58 113.466 58.4074 114.187 59.1325C114.908 59.8577 115.312 60.8412 115.312 61.8667V108.267H119.156C120.176 108.267 121.153 108.674 121.874 109.399C122.595 110.124 123 111.108 123 112.133C123 113.159 122.595 114.142 121.874 114.867C121.153 115.593 120.176 116 119.156 116H3.84375C2.82432 116 1.84665 115.593 1.12581 114.867C0.404966 114.142 1.11196e-07 113.159 1.11196e-07 112.133C1.11196e-07 111.108 0.404966 110.124 1.12581 109.399C1.84665 108.674 2.82432 108.267 3.84375 108.267H7.6875V61.8667C7.6875 60.8412 8.09246 59.8577 8.81331 59.1325C9.53415 58.4074 10.5118 58 11.5312 58ZM30.75 108.267H53.8125V69.6H30.75V108.267ZM69.1875 69.6C69.1875 67.549 69.9974 65.582 71.4391 64.1317C72.8808 62.6814 74.8362 61.8667 76.875 61.8667H92.25C94.2889 61.8667 96.2442 62.6814 97.6859 64.1317C99.1276 65.582 99.9375 67.549 99.9375 69.6V92.8C99.9375 94.851 99.1276 96.818 97.6859 98.2683C96.2442 99.7186 94.2889 100.533 92.25 100.533H76.875C74.8362 100.533 72.8808 99.7186 71.4391 98.2683C69.9974 96.818 69.1875 94.851 69.1875 92.8V69.6ZM92.25 69.6H76.875V92.8H92.25V69.6Z" fill="#545454"/>
</svg>
